SplineFontDB: 3.2
FontName: CognformsThin
FullName: CognformsThin
FamilyName: CognformsThin
Weight: Thin
Copyright: Copyright (c) 2023, Liesbeth Flobbe, liesbeth@syboor.eu with Reserved Font Name "CogncurLines".\nThis Font Software is licensed under the SIL Open Font License, Version 1.1. http://scripts.sil.org/OFL\n
FontLog: "Copyright (c) 2023-2024, Liesbeth Flobbe, liesbeth@syboor.eu with Reserved Font Name +ACIA-Cognforms+ACIACgAA"
Version: 1.12
ItalicAngle: 0
UnderlinePosition: -368
UnderlineWidth: 204
Ascent: 1365
Descent: 683
InvalidEm: 0
LayerCount: 3
Layer: 0 0 "Back" 1
Layer: 1 1 "Fore" 0
Layer: 2 0 "Images" 0
XUID: [1021 630 -1095995287 12585]
StyleMap: 0x0000
FSType: 0
OS2Version: 0
OS2_WeightWidthSlopeOnly: 0
OS2_UseTypoMetrics: 1
CreationTime: 1670875426
ModificationTime: 1755114510
PfmFamily: 17
TTFWeight: 400
TTFWidth: 5
LineGap: 0
VLineGap: 184
OS2TypoAscent: 0
OS2TypoAOffset: 1
OS2TypoDescent: 0
OS2TypoDOffset: 1
OS2TypoLinegap: 0
OS2WinAscent: 500
OS2WinAOffset: 1
OS2WinDescent: 20
OS2WinDOffset: 1
HheadAscent: 0
HheadAOffset: 1
HheadDescent: 0
HheadDOffset: 1
OS2XHeight: 512
OS2Vendor: 'PfEd'
MarkAttachClasses: 1
DEI: 91125
LangName: 1033
Encoding: UnicodeBmp
Compacted: 1
UnicodeInterp: none
NameList: AGL For New Fonts
DisplaySize: -72
AntiAlias: 1
FitToEm: 0
WinInfo: 16 16 6
BeginPrivate: 0
EndPrivate
GridOrder2: 1
Grid
-2048 -454 m 0,0,-1
 4096 -454 l 1024
  Named: "-.67"
-2048 1137 m 0,2,-1
 4096 1137 l 1024
  Named: "1.667"
4096 -681 m 0,2,-1
 -2048 -681 l 0,32,-1
 4096 -681 l 0,2,-1
  Named: "Bottom"
-2048 171 m 0,0,-1
 4096 171 l 1024
  Named: "1/4"
-2048 545.999983728 m 0,10,-1
 4096 545.999983728 l 1024
  Named: "Curve2"
-2048 -341 m 0,22,-1
 4096 -341 l 1024
  Named: "-.5"
-2048 1023 m 0,24,-1
 4096 1023 l 1024
  Named: "1.5"
-2048 341 m 0,26,-1
 4096 341 l 1024
  Named: "Half"
-2048 682 m 0,28,-1
 4096 682 l 1024
  Named: "Midline"
-2048 1364 m 0,30,-1
 4096 1364 l 1024
  Named: "Top"
EndSplineSet

StartChar: a
Encoding: 97 97 0
Width: 600
Flags: W
LayerCount: 3
Back
SplineSet
525 690 m 5
 571 690 l 5
 571 674 l 5
 525 674 l 5
 525 690 l 5
450 690 m 5
 496 690 l 5
 496 674 l 5
 450 674 l 5
 450 690 l 5
375 690 m 5
 421 690 l 5
 421 674 l 5
 375 674 l 5
 375 690 l 5
300 690 m 5
 346 690 l 5
 346 674 l 5
 300 674 l 5
 300 690 l 5
225 690 m 5
 271 690 l 5
 271 674 l 5
 225 674 l 5
 225 690 l 5
150 690 m 5
 196 690 l 5
 196 674 l 5
 150 674 l 5
 150 690 l 5
75 690 m 5
 121 690 l 5
 121 674 l 5
 75 674 l 5
 75 690 l 5
0 -674 m 5
 601 -674 l 5
 601 -690 l 5
 0 -690 l 5
 0 -674 l 5
0 690 m 5
 46 690 l 5
 46 674 l 5
 0 674 l 5
 0 690 l 5
0 1372 m 5
 601 1372 l 5
 601 1356 l 5
 0 1356 l 5
 0 1372 l 5
0 14 m 5
 601 14 l 5
 601 -14 l 5
 0 -14 l 5
 0 14 l 5
EndSplineSet
Fore
SplineSet
525 690 m 1,0,-1
 571 690 l 1,1,-1
 571 674 l 1,2,-1
 525 674 l 1,3,-1
 525 690 l 1,0,-1
450 690 m 1,4,-1
 496 690 l 1,5,-1
 496 674 l 1,6,-1
 450 674 l 1,7,-1
 450 690 l 1,4,-1
375 690 m 1,8,-1
 421 690 l 1,9,-1
 421 674 l 1,10,-1
 375 674 l 1,11,-1
 375 690 l 1,8,-1
300 690 m 1,12,-1
 346 690 l 1,13,-1
 346 674 l 1,14,-1
 300 674 l 1,15,-1
 300 690 l 1,12,-1
225 690 m 1,16,-1
 271 690 l 1,17,-1
 271 674 l 1,18,-1
 225 674 l 1,19,-1
 225 690 l 1,16,-1
150 690 m 1,20,-1
 196 690 l 1,21,-1
 196 674 l 1,22,-1
 150 674 l 1,23,-1
 150 690 l 1,20,-1
75 690 m 1,24,-1
 121 690 l 1,25,-1
 121 674 l 1,26,-1
 75 674 l 1,27,-1
 75 690 l 1,24,-1
0 -674 m 1,28,-1
 602 -674 l 5,29,-1
 602 -690 l 5,30,-1
 0 -690 l 1,31,-1
 0 -674 l 1,28,-1
0 690 m 1,32,-1
 46 690 l 1,33,-1
 46 674 l 1,34,-1
 0 674 l 1,35,-1
 0 690 l 1,32,-1
0 1372 m 1,36,-1
 602 1372 l 5,37,-1
 602 1356 l 5,38,-1
 0 1356 l 1,39,-1
 0 1372 l 1,36,-1
0 14 m 1,40,-1
 602 14 l 5,41,-1
 602 -14 l 5,42,-1
 0 -14 l 1,43,-1
 0 14 l 1,40,-1
EndSplineSet
Validated: 1
EndChar

StartChar: n
Encoding: 110 110 1
Width: 600
VWidth: 1540
Flags: W
LayerCount: 3
Back
SplineSet
0 512 m 5
 600 512 l 5
 600 0 l 5
 0 0 l 5
 0 512 l 5
EndSplineSet
Fore
SplineSet
0 0 m 1,0,-1
 602 0 l 5,1,-1
 602 -681 l 5,2,-1
 0 -681 l 1,3,-1
 0 0 l 1,0,-1
EndSplineSet
Validated: 1
EndChar

StartChar: i
Encoding: 105 105 2
Width: 833
VWidth: 1540
Flags: W
LayerCount: 3
Back
SplineSet
525 690 m 1
 571 690 l 1
 571 674 l 1
 525 674 l 1
 525 690 l 1
450 690 m 1
 496 690 l 1
 496 674 l 1
 450 674 l 1
 450 690 l 1
375 690 m 1
 421 690 l 1
 421 674 l 1
 375 674 l 1
 375 690 l 1
300 690 m 1
 346 690 l 1
 346 674 l 1
 300 674 l 1
 300 690 l 1
225 690 m 1
 271 690 l 1
 271 674 l 1
 225 674 l 1
 225 690 l 1
150 690 m 1
 196 690 l 1
 196 674 l 1
 150 674 l 1
 150 690 l 1
75 690 m 1
 121 690 l 1
 121 674 l 1
 75 674 l 1
 75 690 l 1
600 -674 m 1
 1201 -674 l 1
 1201 -690 l 1
 600 -690 l 1
 600 -674 l 1
0 690 m 1
 46 690 l 1
 46 674 l 1
 0 674 l 1
 0 690 l 1
0 1372 m 1
 601 1372 l 1
 601 1356 l 1
 0 1356 l 1
 0 1372 l 1
0 14 m 1
 601 14 l 1
 601 -14 l 1
 0 -14 l 1
 0 14 l 1
EndSplineSet
Fore
SplineSet
806.25390625 668.002929688 m 1,0,-1
 89.767578125 668.002929688 l 1,1,-1
 89.767578125 13.9970703125 l 1,2,-1
 806.25390625 13.9970703125 l 1,3,-1
 806.25390625 668.002929688 l 1,0,-1
834.248046875 -690.359375 m 1,4,-1
 806.25390625 -690.359375 l 1,5,-1
 806.25390625 -525.1484375 l 1,6,-1
 620.133789062 -525.1484375 l 1,7,-1
 620.133789062 -354.940429688 l 1,8,-1
 434.013671875 -354.940429688 l 1,9,-1
 434.013671875 -183.845703125 l 1,10,-1
 247.893554688 -183.845703125 l 1,11,-1
 247.893554688 -13.9970703125 l 1,12,-1
 61.7734375 -13.9970703125 l 1,13,-1
 61.7734375 668.002929688 l 1,14,-1
 0.7373046875 668.002929688 l 1,15,-1
 445.343326851 1372 l 1,16,17
 445.343326851 1372 445.343326851 1372 450.678157525 1372 c 2,18,19
 450.678157525 1372 450.678157525 1372 895.284179688 668.002929688 c 1,20,-1
 834.248046875 668.002929688 l 1,21,-1
 834.248046875 -13.9970703125 l 1,22,-1
 275.887695312 -13.9970703125 l 1,23,-1
 275.887695312 -155.8515625 l 1,24,-1
 462.0078125 -155.8515625 l 1,25,-1
 462.0078125 -326.946289062 l 1,26,-1
 648.127929688 -326.946289062 l 1,27,-1
 648.127929688 -497.154296875 l 1,28,-1
 834.248046875 -497.154296875 l 1,29,-1
 834.248046875 -690.359375 l 1,4,-1
844.481445312 695.997070312 m 1,30,-1
 448.010742188 1323.77636719 l 1,31,-1
 51.5400390625 695.997070312 l 1,32,-1
 844.481445312 695.997070312 l 1,30,-1
EndSplineSet
Validated: 1
EndChar

StartChar: ccnn
Encoding: 57345 57345 4
Width: 2048
LayerCount: 3
Back
SplineSet
218.171875 410.755859375 m 4
 218.171875 451.379882812 205.3828125 487.490234375 161.75 487.490234375 c 7
 130.153320312 487.490234375 114.182617188 458.987304688 103.0703125 436.333984375 c 6
 -72.9677734375 77.4873046875 l 5
 -84.0859375 54.8359375 -100.05078125 26.330078125 -131.647460938 26.330078125 c 7
 -175.280273438 26.330078125 -188.0703125 62.4404296875 -188.0703125 103.065429688 c 1028
218.171875 410.755859375 m 0
 218.171875 451.379882812 205.3828125 487.490234375 161.75 487.490234375 c 3
 130.153320312 487.490234375 114.182617188 458.987304688 103.0703125 436.333984375 c 2
 -72.9677734375 77.4873046875 l 1
 -84.0859375 54.8359375 -100.05078125 26.330078125 -131.647460938 26.330078125 c 3
 -175.280273438 26.330078125 -188.0703125 62.4404296875 -188.0703125 103.065429688 c 1024
EndSplineSet
Fore
Validated: 1
EndChar

StartChar: h
Encoding: 104 104 5
Width: 1200
VWidth: 1540
Flags: W
LayerCount: 3
Back
SplineSet
972.250976562 -681.359375 m 29
 972.250976562 -511.151367188 l 5
 786.130859375 -511.151367188 l 5
 786.130859375 -340.943359375 l 5
 600.010742188 -340.943359375 l 5
 600.010742188 -169.848632812 l 5
 413.890625 -169.848632812 l 5
 413.890625 0.359375 l 1037
413.890625 0 m 1029
227.770507812 682 m 29
 209.159179688 682 178.138671875 682 178.138671875 682 c 21
 600.010742188 1350 l 5
 1021.8828125 682 l 13
 1021.8828125 682 992.103515625 682 972.250976562 682 c 1053
227.770507812 682 m 5
 972.250976562 682 l 5
 972.250976562 0 l 5
 227.770507812 0 l 5
 227.770507812 682 l 5
EndSplineSet
Fore
SplineSet
996.481809644 695.997254748 m 1,0,-1
 600.010742188 1323.77683936 l 1,1,-1
 203.539674731 695.997254748 l 1,2,-1
 996.481809644 695.997254748 l 1,0,-1
958.253721814 668.002745252 m 1,3,-1
 241.76776256 668.002745252 l 1,4,-1
 241.76776256 14 l 1,5,-1
 958.253721814 14 l 1,6,-1
 958.253721814 668.002745252 l 1,3,-1
0 690 m 1,7,-1
 46 690 l 1,8,-1
 46 674 l 1,9,-1
 0 674 l 1,10,-1
 0 690 l 1,7,-1
75 690 m 1,11,-1
 121 690 l 1,12,-1
 121 674 l 1,13,-1
 75 674 l 1,14,-1
 75 690 l 1,11,-1
1050 690 m 1,15,-1
 1096 690 l 1,16,-1
 1096 674 l 1,17,-1
 1050 674 l 1,18,-1
 1050 690 l 1,15,-1
1125 690 m 1,19,-1
 1171 690 l 1,20,-1
 1171 674 l 1,21,-1
 1125 674 l 1,22,-1
 1125 690 l 1,19,-1
399.893370252 -14 m 1,23,-1
 0 -14 l 1,24,-1
 0 14 l 1,25,-1
 213.773253064 14 l 1,26,-1
 213.773253064 668.002745252 l 1,27,-1
 152.737669019 668.002745252 l 1,28,-1
 156.525205361 674 l 1,29,-1
 150 674 l 1,30,-1
 150 690 l 1,31,-1
 166.629925608 690 l 1,32,-1
 587.23890589 1356 l 1,33,-1
 0 1356 l 1,34,-1
 0 1372 l 1,35,-1
 1202 1372 l 5,36,-1
 1202 1356 l 5,37,-1
 612.782578486 1356 l 1,38,-1
 1047.28381536 668.002745252 l 1,39,-1
 986.24823131 668.002745252 l 1,40,-1
 986.24823131 14 l 1,41,-1
 1202 14 l 5,42,-1
 1202 -14 l 5,43,-1
 427.887879748 -14 l 1,44,-1
 427.887879748 -155.851378064 l 1,45,-1
 614.007996936 -155.851378064 l 1,46,-1
 614.007996936 -326.946104627 l 1,47,-1
 800.128114123 -326.946104627 l 1,48,-1
 800.128114123 -497.15411244 l 1,49,-1
 986.24823131 -497.15411244 l 1,50,-1
 986.24823131 -674 l 1,51,-1
 1202 -674 l 5,52,-1
 1202 -690 l 5,53,-1
 601 -690 l 1,54,-1
 600 -690 l 1,55,-1
 0 -690 l 1,56,-1
 0 -674 l 1,57,-1
 600 -674 l 1,58,-1
 601 -674 l 1,59,-1
 958.253721814 -674 l 1,60,-1
 958.253721814 -525.148621936 l 1,61,-1
 772.133604627 -525.148621936 l 1,62,-1
 772.133604627 -354.940614123 l 1,63,-1
 586.01348744 -354.940614123 l 1,64,-1
 586.01348744 -183.84588756 l 1,65,-1
 399.893370252 -183.84588756 l 1,66,-1
 399.893370252 -14 l 1,23,-1
EndSplineSet
Validated: 1
Layer: 2
SplineSet
1125 690 m 5
 1171 690 l 5
 1171 674 l 5
 1125 674 l 5
 1125 690 l 5
1050 690 m 5
 1096 690 l 5
 1096 674 l 5
 1050 674 l 5
 1050 690 l 5
975 690 m 5
 1021 690 l 5
 1021 674 l 5
 975 674 l 5
 975 690 l 5
600 -674 m 5
 1201 -674 l 5
 1201 -690 l 5
 600 -690 l 5
 600 -674 l 5
600 1372 m 5
 1201 1372 l 5
 1201 1356 l 5
 600 1356 l 5
 600 1372 l 5
600 14 m 5
 1201 14 l 5
 1201 -14 l 5
 600 -14 l 5
 600 14 l 5
150 690 m 5
 196 690 l 5
 196 674 l 5
 150 674 l 5
 150 690 l 5
75 690 m 5
 121 690 l 5
 121 674 l 5
 75 674 l 5
 75 690 l 5
0 -674 m 5
 601 -674 l 5
 601 -690 l 5
 0 -690 l 5
 0 -674 l 5
0 690 m 5
 46 690 l 5
 46 674 l 5
 0 674 l 5
 0 690 l 5
0 1372 m 5
 601 1372 l 5
 601 1356 l 5
 0 1356 l 5
 0 1372 l 5
0 14 m 5
 601 14 l 5
 601 -14 l 5
 0 -14 l 5
 0 14 l 5
EndSplineSet
EndChar

StartChar: ccno
Encoding: 57347 57347 6
Width: 0
VWidth: 1540
LayerCount: 3
Back
SplineSet
460.068359375 442.362304688 m 5
 434.111328125 469.892578125 401.522460938 487.490234375 366.370117188 487.490234375 c 4
 319.751953125 487.490234375 277.641601562 457.6484375 248.52734375 410.466796875 c 1029
EndSplineSet
Fore
Validated: 1
EndChar

StartChar: ccna
Encoding: 57348 57348 7
Width: 0
VWidth: 1540
LayerCount: 3
Back
SplineSet
571.748046875 25.578125 m 3
 528.114257812 25.578125 515.325195312 62.4404296875 515.325195312 103.065429688 c 0
 515.325195312 104.12890625 515.325195312 487.490234375 515.325195312 487.490234375 c 1049
515.325195312 412.260742188 m 4
 493.508789062 440.84765625 445.361328125 487.490234375 384.42578125 487.490234375 c 4
 271.881835938 487.490234375 198.532226562 381.416015625 198.532226562 255.782226562 c 4
 198.532226562 128.643554688 277.147460938 25.578125 373.140625 25.578125 c 0
 451.379882812 25.578125 515.325195312 109.8125 515.325195312 217.415039062 c 1024
EndSplineSet
Fore
Validated: 1
EndChar

StartChar: o
Encoding: 111 111 8
Width: 140
VWidth: 1540
Flags: W
LayerCount: 3
Back
SplineSet
0 -44 m 5
 54 0 l 5
 0 44 l 5
 0 -44 l 5
EndSplineSet
Fore
SplineSet
0 -88 m 1,0,-1
 108 0 l 1,1,-1
 0 88 l 1,2,-1
 0 -88 l 1,0,-1
EndSplineSet
Validated: 9
EndChar

StartChar: c
Encoding: 99 99 9
Width: 600
Flags: W
LayerCount: 3
Fore
SplineSet
0 14 m 1,0,-1
 602 14 l 1,1,2
 608 14 608 14 608 0 c 128,-1,3
 608 -14 608 -14 602 -14 c 1,4,-1
 0 -14 l 1,5,-1
 0 14 l 1,0,-1
EndSplineSet
Validated: 1
EndChar

StartChar: ccoo
Encoding: 57359 57359 10
Width: 0
VWidth: 1540
LayerCount: 3
Back
SplineSet
273.411132812 443.201171875 m 5
 299.587890625 471.018554688 331.735351562 487.490234375 366.370117188 487.490234375 c 4
 401.356445312 487.490234375 433.802734375 470.051757812 460.068359375 442.362304688 c 1029
273.411132812 443.201171875 m 1029
EndSplineSet
Fore
Validated: 1
EndChar

StartChar: ccoa
Encoding: 57360 57360 11
Width: 0
VWidth: 1540
LayerCount: 3
Back
SplineSet
-107.91796875 442.362304688 m 1029
-360.3515625 255.782226562 m 4
 -360.3515625 382.920898438 -288.8828125 487.490234375 -201.616210938 487.490234375 c 4
 -114.349609375 487.490234375 -42.880859375 383.672851562 -42.880859375 256.534179688 c 4
 -42.880859375 159.6484375 -84.3837890625 76.306640625 -142.752929688 42.12890625 c 4
 -160.979492188 31.4560546875 -180.850585938 25.578125 -201.616210938 25.578125 c 4
 -288.8828125 25.578125 -360.3515625 128.643554688 -360.3515625 255.782226562 c 4
571.748046875 25.578125 m 3
 528.114257812 25.578125 515.325195312 62.4404296875 515.325195312 103.065429688 c 0
 515.325195312 104.12890625 515.325195312 487.490234375 515.325195312 487.490234375 c 1049
515.325195312 412.260742188 m 0
 493.508789062 440.84765625 445.361328125 487.490234375 384.42578125 487.490234375 c 0
 271.881835938 487.490234375 198.532226562 381.416015625 198.532226562 255.782226562 c 0
 198.532226562 128.643554688 277.147460938 25.578125 373.140625 25.578125 c 0
 451.379882812 25.578125 515.325195312 109.8125 515.325195312 217.415039062 c 1024
EndSplineSet
Fore
Validated: 1
EndChar

StartChar: ccoh
Encoding: 57358 57358 12
Width: 0
VWidth: 1540
LayerCount: 3
Back
SplineSet
-107.91796875 442.362304688 m 1025
-360.3515625 255.782226562 m 0
 -360.3515625 382.920898438 -288.8828125 487.490234375 -201.616210938 487.490234375 c 0
 -114.349609375 487.490234375 -42.880859375 383.672851562 -42.880859375 256.534179688 c 0
 -42.880859375 159.6484375 -84.3837890625 76.306640625 -142.752929688 42.12890625 c 0
 -160.979492188 31.4560546875 -180.850585938 25.578125 -201.616210938 25.578125 c 0
 -288.8828125 25.578125 -360.3515625 128.643554688 -360.3515625 255.782226562 c 0
EndSplineSet
Fore
Validated: 1
EndChar

StartChar: e
Encoding: 101 101 13
Width: 600
Flags: W
LayerCount: 3
Fore
SplineSet
-3 -674 m 1,0,-1
 602 -674 l 5,1,-1
 602 -690 l 5,2,-1
 -3 -690 l 1,3,-1
 -3 -674 l 1,0,-1
-3 1372 m 1,4,-1
 602 1372 l 5,5,-1
 602 1356 l 5,6,-1
 -3 1356 l 1,7,-1
 -3 1372 l 1,4,-1
-3 14 m 1,8,-1
 602 14 l 5,9,-1
 602 -14 l 5,10,-1
 -3 -14 l 1,11,-1
 -3 14 l 1,8,-1
EndSplineSet
Validated: 1
EndChar

StartChar: ccne
Encoding: 57349 57349 14
Width: 0
VWidth: 1540
LayerCount: 3
Back
SplineSet
366.370117188 487.490234375 m 4
 279.103515625 487.490234375 207.634765625 382.920898438 207.634765625 255.782226562 c 4
 207.634765625 128.643554688 279.103515625 25.578125 366.370117188 25.578125 c 1028
EndSplineSet
Fore
Validated: 1
EndChar

StartChar: ccoe
Encoding: 57361 57361 15
Width: 0
VWidth: 1540
LayerCount: 3
Back
SplineSet
366.370117188 487.490234375 m 4
 279.103515625 487.490234375 207.634765625 382.920898438 207.634765625 255.782226562 c 4
 207.634765625 128.643554688 279.103515625 25.578125 366.370117188 25.578125 c 1028
EndSplineSet
Fore
Validated: 1
EndChar

StartChar: u
Encoding: 117 117 16
Width: 682
VWidth: 1540
Flags: W
LayerCount: 3
Fore
SplineSet
-7.99843128432 -7.99843128432 m 13,0,-1
 -8.001953125 7.998046875 l 17,1,-1
 690.001953125 7.998046875 l 1,2,-1
 689.998431284 -7.99843128432 l 1,3,-1
 -7.99843128432 -7.99843128432 l 13,0,-1
EndSplineSet
Validated: 524289
EndChar

StartChar: ccei
Encoding: 57368 57368 17
Width: 2048
LayerCount: 3
Back
SplineSet
-134.25 442.362304688 m 1029
-386.682617188 255.782226562 m 4
 -386.682617188 382.920898438 -315.21484375 487.490234375 -227.947265625 487.490234375 c 4
 -140.680664062 487.490234375 -69.2119140625 383.672851562 -69.2119140625 256.534179688 c 4
 -69.2119140625 159.6484375 -110.71484375 76.306640625 -169.084960938 42.12890625 c 4
 -187.310546875 31.4560546875 -207.182617188 25.578125 -227.947265625 25.578125 c 4
 -315.21484375 25.578125 -386.682617188 128.643554688 -386.682617188 255.782226562 c 4
EndSplineSet
Fore
Validated: 1
EndChar

StartChar: ccen
Encoding: 57369 57369 18
Width: 2048
LayerCount: 3
Back
SplineSet
-134.25 442.362304688 m 1029
-386.682617188 255.782226562 m 4
 -386.682617188 382.920898438 -315.21484375 487.490234375 -227.947265625 487.490234375 c 4
 -140.680664062 487.490234375 -69.2119140625 383.672851562 -69.2119140625 256.534179688 c 4
 -69.2119140625 159.6484375 -110.71484375 76.306640625 -169.084960938 42.12890625 c 4
 -187.310546875 31.4560546875 -207.182617188 25.578125 -227.947265625 25.578125 c 4
 -315.21484375 25.578125 -386.682617188 128.643554688 -386.682617188 255.782226562 c 4
246.756835938 410.755859375 m 4
 246.756835938 451.379882812 233.967773438 487.490234375 190.333984375 487.490234375 c 7
 158.737304688 487.490234375 142.774414062 458.982421875 131.654296875 436.333984375 c 6
 29.33984375 227.947265625 l 5
 -20.2021484375 126.953125 -38.8916015625 104.141601562 -97.7998046875 64.7421875 c 4
 -137.057617188 38.486328125 -179.810546875 25.578125 -227.947265625 25.578125 c 1028
EndSplineSet
Fore
Validated: 1
EndChar

StartChar: cceh
Encoding: 57370 57370 19
Width: 2048
LayerCount: 3
Back
SplineSet
447.887695312 1257.02050781 m 7
 552.940429688 1257.02050781 586.041992188 1135.22460938 586.041992188 1053.21972656 c 7
 586.041992188 1006.00976562 577.776367188 934.536132812 525.326171875 820.006835938 c 4
 493.34375 750.169921875 439.209960938 667.369140625 365.618164062 558.20703125 c 6
 365.618164062 558.20703125 95.7578125 156.696289062 94.7900390625 156.478515625 c 6
 29.2431640625 59.251953125 -19 25 -115.1015625 24.578125 c 1052
315.965820312 25.578125 m 1
 316.341796875 1003.19238281 l 2
 316.341796875 1141.99121094 331.771484375 1257.09375 448.37109375 1257.09375 c 1024
315.965820312 256.534179688 m 0
 315.965820312 337.030273438 425.049804688 487.490234375 531.875976562 487.490234375 c 3
 589.05078125 487.490234375 632.684570312 446.114257812 632.684570312 384.42578125 c 0
 632.684570312 384.42578125 632.684570312 103.817382812 632.684570312 103.065429688 c 0
 632.684570312 62.4404296875 645.473632812 25.578125 689.106445312 25.578125 c 1024
-115.1015625 487.490234375 m 0
 -202.369140625 487.490234375 -273.836914062 382.920898438 -273.836914062 255.782226562 c 0
 -273.836914062 128.643554688 -202.369140625 25.578125 -115.1015625 25.578125 c 1024
EndSplineSet
Fore
Validated: 1
EndChar

StartChar: cceo
Encoding: 57371 57371 20
Width: 2048
LayerCount: 3
Back
SplineSet
497.68359375 442.362304688 m 1029
303.58984375 434.803710938 m 5
 330.999023438 467.672851562 365.995117188 487.490234375 403.985351562 487.490234375 c 4
 439.033203125 487.490234375 471.533203125 470.744140625 497.87890625 442.467773438 c 1029
497.87890625 442.467773438 m 5
 537.130859375 400.337890625 562.720703125 332.611328125 562.720703125 256.534179688 c 0
 562.720703125 159.6484375 521.217773438 76.306640625 462.848632812 42.12890625 c 0
 444.622070312 31.4560546875 424.750976562 25.578125 403.985351562 25.578125 c 0
 316.71875 25.578125 245.25 128.643554688 245.25 255.782226562 c 0
 245.25 327.573242188 268.037109375 392.16796875 303.58984375 434.803710938 c 1029
-134.25 442.362304688 m 1025
-386.682617188 255.782226562 m 0
 -386.682617188 382.920898438 -315.21484375 487.490234375 -227.947265625 487.490234375 c 0
 -140.680664062 487.490234375 -69.2119140625 383.672851562 -69.2119140625 256.534179688 c 0
 -69.2119140625 159.6484375 -110.71484375 76.306640625 -169.084960938 42.12890625 c 0
 -187.310546875 31.4560546875 -207.182617188 25.578125 -227.947265625 25.578125 c 0
 -315.21484375 25.578125 -386.682617188 128.643554688 -386.682617188 255.782226562 c 0
EndSplineSet
Fore
Validated: 1
EndChar

StartChar: ccea
Encoding: 57372 57372 21
Width: 2048
LayerCount: 3
Back
SplineSet
609.36328125 25.578125 m 7
 565.729492188 25.578125 552.940429688 62.4404296875 552.940429688 103.065429688 c 4
 552.940429688 104.12890625 552.940429688 487.490234375 552.940429688 487.490234375 c 1053
552.940429688 412.260742188 m 4
 531.124023438 440.84765625 482.9765625 487.490234375 422.040039062 487.490234375 c 4
 309.49609375 487.490234375 236.147460938 381.416015625 236.147460938 255.782226562 c 4
 236.147460938 128.643554688 314.762695312 25.578125 410.755859375 25.578125 c 4
 488.995117188 25.578125 552.940429688 109.8125 552.940429688 217.415039062 c 1028
EndSplineSet
Fore
Validated: 1
EndChar

StartChar: m
Encoding: 109 109 22
Width: 600
VWidth: 1540
Flags: W
LayerCount: 3
Back
SplineSet
0 512 m 5
 600 512 l 5
 600 0 l 5
 0 0 l 5
 0 512 l 5
EndSplineSet
Fore
SplineSet
602 1364 m 5,0,-1
 602 682 l 5,1,-1
 0 682 l 1,2,-1
 0 1364 l 1,3,-1
 602 1364 l 5,0,-1
EndSplineSet
Validated: 1
EndChar

StartChar: l
Encoding: 108 108 23
Width: 600
VWidth: 1540
Flags: W
LayerCount: 3
Fore
SplineSet
0 682 m 1,0,-1
 602 682 l 5,1,-1
 602 0 l 5,2,-1
 0 0 l 1,3,-1
 0 682 l 1,0,-1
EndSplineSet
Validated: 1
EndChar

StartChar: csi
Encoding: 57536 57536 24
Width: 2048
LayerCount: 3
Back
SplineSet
-179.12109375 103.065429688 m 4
 -179.12109375 75.9775390625 -151.787109375 25.580078125 -122.698242188 25.578125 c 4
 -101.633789062 25.578125 -71.3984375 62.453125 -64.0185546875 77.4873046875 c 14
 137.59765625 488.243164062 l 1029
EndSplineSet
Fore
Validated: 1
EndChar

StartChar: csn
Encoding: 57537 57537 25
Width: 2048
LayerCount: 3
Back
SplineSet
227.875976562 410.755859375 m 4
 227.875976562 451.379882812 215.086914062 487.490234375 171.453125 487.490234375 c 7
 139.856445312 487.490234375 123.88671875 458.987304688 112.774414062 436.333984375 c 6
 -63.2646484375 77.4873046875 l 5
 -74.3818359375 54.8359375 -90.3466796875 26.330078125 -121.943359375 26.330078125 c 7
 -165.577148438 26.330078125 -178.366210938 62.4404296875 -178.366210938 103.065429688 c 1028
EndSplineSet
Fore
Validated: 1
EndChar

StartChar: csh
Encoding: 57538 57538 26
Width: 2048
LayerCount: 3
Back
SplineSet
495.9609375 1257.02050781 m 7
 601.014648438 1257.02050781 634.115234375 1135.22460938 634.115234375 1053.21972656 c 7
 634.115234375 977.22265625 624.393554688 838.348632812 417.453125 558.20703125 c 6
 24 25.578125 l 1029
EndSplineSet
Fore
Validated: 1
EndChar

StartChar: cso
Encoding: 57539 57539 27
Width: 2048
LayerCount: 3
Back
SplineSet
470.236328125 442.362304688 m 1029
217.802734375 255.782226562 m 4
 217.802734375 382.920898438 289.271484375 487.490234375 376.538085938 487.490234375 c 4
 463.8046875 487.490234375 535.2734375 383.672851562 535.2734375 256.534179688 c 4
 535.2734375 159.6484375 493.770507812 76.306640625 435.401367188 42.12890625 c 4
 417.174804688 31.4560546875 397.303710938 25.578125 376.538085938 25.578125 c 4
 289.271484375 25.578125 217.802734375 128.643554688 217.802734375 255.782226562 c 4
EndSplineSet
Fore
Validated: 1
EndChar

StartChar: csa
Encoding: 57540 57540 28
Width: 2048
LayerCount: 3
Back
SplineSet
582.20703125 25.578125 m 7
 538.573242188 25.578125 525.784179688 62.4404296875 525.784179688 103.065429688 c 4
 525.784179688 104.12890625 525.784179688 487.490234375 525.784179688 487.490234375 c 1053
525.784179688 412.260742188 m 4
 503.967773438 440.84765625 455.8203125 487.490234375 394.884765625 487.490234375 c 4
 282.340820312 487.490234375 208.991210938 381.416015625 208.991210938 255.782226562 c 4
 208.991210938 128.643554688 287.606445312 25.578125 383.599609375 25.578125 c 4
 461.838867188 25.578125 525.784179688 109.8125 525.784179688 217.415039062 c 1028
EndSplineSet
Fore
Validated: 1
EndChar

StartChar: cse
Encoding: 57541 57541 29
Width: 2048
LayerCount: 3
Back
SplineSet
256.4609375 487.490234375 m 0
 305.360351562 487.490234375 357.26953125 457.404296875 357.26953125 406.2421875 c 3
 357.26953125 369.37890625 344.291992188 342.561523438 317.397460938 323.489257812 c 2
 -57.248046875 48.8994140625 l 2
 -76.6376953125 35.1484375 -97.8720703125 25.578125 -129.46875 25.578125 c 7
 -173.102539062 25.578125 -185.891601562 62.4404296875 -185.891601562 103.065429688 c 1028
EndSplineSet
Fore
Validated: 1
EndChar

StartChar: v
Encoding: 118 118 30
Width: 682
VWidth: 1540
Flags: W
LayerCount: 3
Back
SplineSet
0 0 m 5
 682 0 l 5
 682 454.666666667 682 909.333333333 682 1364 c 5
 0 1364 l 5
 0 0 l 5
EndSplineSet
Fore
SplineSet
674.001568716 1356.00156872 m 5,0,-1
 7.99843128432 1356.00156872 l 5,1,-1
 7.99843128432 7.99843128432 l 5,2,-1
 674.001568716 7.99843128432 l 5,3,-1
 674.001568716 1356.00156872 l 5,0,-1
-7.99843128432 -7.99843128432 m 5,4,-1
 -7.99843128432 1371.99843128 l 5,5,-1
 689.998431284 1371.99843128 l 5,6,-1
 689.998431284 -7.99843128432 l 5,7,-1
 -7.99843128432 -7.99843128432 l 5,4,-1
EndSplineSet
Validated: 1
EndChar

StartChar: w
Encoding: 119 119 31
Width: 682
VWidth: 1540
Flags: W
LayerCount: 3
Fore
SplineSet
642 690 m 5,0,-1
 688 690 l 5,1,-1
 688 674 l 5,2,-1
 642 674 l 5,3,-1
 642 690 l 5,0,-1
561 690 m 5,4,-1
 607 690 l 5,5,-1
 607 674 l 5,6,-1
 561 674 l 5,7,-1
 561 690 l 5,4,-1
480 690 m 5,8,-1
 526 690 l 5,9,-1
 526 674 l 5,10,-1
 480 674 l 5,11,-1
 480 690 l 5,8,-1
399 690 m 5,12,-1
 445 690 l 5,13,-1
 445 674 l 5,14,-1
 399 674 l 5,15,-1
 399 690 l 5,12,-1
318 690 m 5,16,-1
 364 690 l 5,17,-1
 364 674 l 5,18,-1
 318 674 l 5,19,-1
 318 690 l 5,16,-1
237 690 m 5,20,-1
 283 690 l 5,21,-1
 283 674 l 5,22,-1
 237 674 l 5,23,-1
 237 690 l 5,20,-1
156 690 m 5,24,-1
 202 690 l 5,25,-1
 202 674 l 5,26,-1
 156 674 l 5,27,-1
 156 690 l 5,24,-1
75 690 m 5,28,-1
 121 690 l 5,29,-1
 121 674 l 5,30,-1
 75 674 l 5,31,-1
 75 690 l 5,28,-1
-6 690 m 5,32,-1
 40 690 l 5,33,-1
 40 674 l 5,34,-1
 -6 674 l 5,35,-1
 -6 690 l 5,32,-1
674.001568716 1356.00156872 m 1,36,-1
 7.99843128432 1356.00156872 l 1,37,-1
 7.99843128432 7.99843128432 l 1,38,-1
 674.001568716 7.99843128432 l 1,39,-1
 674.001568716 1356.00156872 l 1,36,-1
-7.99843128432 -7.99843128432 m 1,40,-1
 -7.99843128432 1371.99843128 l 1,41,-1
 689.998431284 1371.99843128 l 1,42,-1
 689.998431284 -7.99843128432 l 1,43,-1
 -7.99843128432 -7.99843128432 l 1,40,-1
EndSplineSet
Validated: 5
EndChar

StartChar: ccvi
Encoding: 57380 57380 32
Width: 0
VWidth: 1540
LayerCount: 3
Back
SplineSet
-540.903320312 487.490234375 m 7
 -497.270507812 487.490234375 -484.481445312 451.379882812 -484.481445312 410.755859375 c 4
 -483.728515625 410.755859375 -484.481445312 128.643554688 -484.481445312 128.643554688 c 4
 -484.481445312 71.46875 -445.361328125 25.578125 -383.672851562 25.578125 c 7
 -276.846679688 25.578125 -167.762695312 163.252929688 -167.762695312 330.259765625 c 7
 -167.762695312 406.275390625 -188.075195312 464.168945312 -205.377929688 487.490234375 c 1028
EndSplineSet
Fore
Validated: 1
EndChar

StartChar: ccvn
Encoding: 57381 57381 33
Width: 0
VWidth: 1540
LayerCount: 3
Back
SplineSet
-220.763671875 443.114257812 m 4
 -189.580078125 416.774414062 -163.249023438 395.709960938 -90.2763671875 395.709960938 c 7
 -12.037109375 395.709960938 14.2939453125 451.9453125 24.0732421875 464.168945312 c 4
 33.1015625 475.453125 46.642578125 487.490234375 71.470703125 487.490234375 c 7
 115.104492188 487.490234375 127.893554688 451.379882812 127.893554688 410.755859375 c 1028
-540.903320312 487.490234375 m 3
 -497.270507812 487.490234375 -484.481445312 451.379882812 -484.481445312 410.755859375 c 0
 -483.728515625 410.755859375 -484.481445312 128.643554688 -484.481445312 128.643554688 c 0
 -484.481445312 71.46875 -445.361328125 25.578125 -383.672851562 25.578125 c 3
 -276.846679688 25.578125 -167.762695312 163.252929688 -167.762695312 330.259765625 c 3
 -167.762695312 406.275390625 -188.075195312 464.168945312 -205.377929688 487.490234375 c 1024
EndSplineSet
Fore
Validated: 1
EndChar

StartChar: ccvh
Encoding: 57382 57382 34
Width: 0
VWidth: 1540
LayerCount: 3
Back
SplineSet
240.736328125 25.578125 m 1
 241.112304688 1003.19238281 l 2
 241.112304688 1141.99121094 256.541992188 1257.09375 373.140625 1257.09375 c 1024
240.736328125 256.534179688 m 0
 240.736328125 337.030273438 349.819335938 487.490234375 456.646484375 487.490234375 c 3
 513.821289062 487.490234375 557.454101562 446.114257812 557.454101562 384.42578125 c 0
 557.454101562 384.42578125 557.454101562 103.817382812 557.454101562 103.065429688 c 0
 557.454101562 62.4404296875 570.243164062 25.578125 613.876953125 25.578125 c 1024
-428.05859375 487.490234375 m 3
 -384.42578125 487.490234375 -371.635742188 451.379882812 -371.635742188 410.755859375 c 0
 -370.883789062 410.755859375 -371.635742188 128.643554688 -371.635742188 128.643554688 c 0
 -371.635742188 71.46875 -332.516601562 25.578125 -270.828125 25.578125 c 3
 -164.000976562 25.578125 -54.91796875 163.252929688 -54.91796875 330.259765625 c 3
 -54.91796875 406.275390625 -75.23046875 464.168945312 -92.533203125 487.490234375 c 1024
EndSplineSet
Fore
Validated: 1
EndChar

StartChar: ccvo
Encoding: 57383 57383 35
Width: 0
VWidth: 1540
LayerCount: 3
Back
SplineSet
460.068359375 442.362304688 m 1029
273.443359375 443.236328125 m 5
 299.615234375 471.032226562 331.75 487.490234375 366.370117188 487.490234375 c 4
 401.497070312 487.490234375 434.063476562 470.669921875 460.440429688 442.27734375 c 1029
460.440429688 442.27734375 m 5
 499.592773438 400.134765625 525.10546875 332.497070312 525.10546875 256.534179688 c 0
 525.10546875 159.6484375 483.602539062 76.306640625 425.233398438 42.12890625 c 0
 407.006835938 31.4560546875 387.135742188 25.578125 366.370117188 25.578125 c 0
 279.103515625 25.578125 207.634765625 128.643554688 207.634765625 255.782226562 c 0
 207.634765625 332.482421875 233.645507812 400.96875 273.443359375 443.236328125 c 1029
-540.903320312 487.490234375 m 3
 -497.270507812 487.490234375 -484.481445312 451.379882812 -484.481445312 410.755859375 c 0
 -483.728515625 410.755859375 -484.481445312 128.643554688 -484.481445312 128.643554688 c 0
 -484.481445312 71.46875 -445.361328125 25.578125 -383.672851562 25.578125 c 3
 -276.846679688 25.578125 -167.762695312 163.252929688 -167.762695312 330.259765625 c 3
 -167.762695312 406.275390625 -188.075195312 464.168945312 -205.377929688 487.490234375 c 1024
EndSplineSet
Fore
Validated: 1
EndChar

StartChar: ccva
Encoding: 57384 57384 36
Width: 0
VWidth: 1540
LayerCount: 3
Back
SplineSet
-92.533203125 487.490234375 m 4
 -60.18359375 433.325195312 -4.5244140625 355.837890625 97.798828125 355.837890625 c 7
 200.908203125 355.837890625 278.350585938 401.728515625 299.415039062 423.544921875 c 4
 343.807617188 462.209960938 401.895507812 487.490234375 474.701171875 487.490234375 c 7
 509.33984375 487.490234375 515.325195312 487.490234375 515.325195312 487.490234375 c 1028
EndSplineSet
Fore
Validated: 1
EndChar

StartChar: ccve
Encoding: 57385 57385 37
Width: 0
VWidth: 1540
LayerCount: 3
Back
SplineSet
-540.903320312 487.490234375 m 3
 -497.270507812 487.490234375 -484.481445312 451.379882812 -484.481445312 410.755859375 c 0
 -483.728515625 410.755859375 -484.481445312 128.643554688 -484.481445312 128.643554688 c 0
 -484.481445312 71.46875 -445.361328125 25.578125 -383.672851562 25.578125 c 3
 -276.846679688 25.578125 -167.762695312 163.252929688 -167.762695312 330.259765625 c 3
 -167.762695312 406.275390625 -188.075195312 464.168945312 -205.377929688 487.490234375 c 1024
EndSplineSet
Fore
Validated: 1
EndChar

StartChar: b
Encoding: 98 98 38
Width: 600
Flags: W
LayerCount: 3
Fore
SplineSet
525 690 m 1,0,-1
 571 690 l 1,1,-1
 571 674 l 1,2,-1
 525 674 l 1,3,-1
 525 690 l 1,0,-1
450 690 m 1,4,-1
 496 690 l 1,5,-1
 496 674 l 1,6,-1
 450 674 l 1,7,-1
 450 690 l 1,4,-1
375 690 m 1,8,-1
 421 690 l 1,9,-1
 421 674 l 1,10,-1
 375 674 l 1,11,-1
 375 690 l 1,8,-1
300 690 m 1,12,-1
 346 690 l 1,13,-1
 346 674 l 1,14,-1
 300 674 l 1,15,-1
 300 690 l 1,12,-1
225 690 m 1,16,-1
 271 690 l 1,17,-1
 271 674 l 1,18,-1
 225 674 l 1,19,-1
 225 690 l 1,16,-1
150 690 m 1,20,-1
 196 690 l 1,21,-1
 196 674 l 1,22,-1
 150 674 l 1,23,-1
 150 690 l 1,20,-1
75 690 m 1,24,-1
 121 690 l 1,25,-1
 121 674 l 1,26,-1
 75 674 l 1,27,-1
 75 690 l 1,24,-1
0 690 m 1,28,-1
 46 690 l 1,29,-1
 46 674 l 1,30,-1
 0 674 l 1,31,-1
 0 690 l 1,28,-1
0 14 m 1,32,-1
 602 14 l 5,33,-1
 602 -14 l 5,34,-1
 0 -14 l 1,35,-1
 0 14 l 1,32,-1
EndSplineSet
Validated: 1
EndChar

StartChar: d
Encoding: 100 100 39
Width: 600
Flags: W
LayerCount: 3
Fore
SplineSet
525 690 m 5,0,-1
 571 690 l 5,1,-1
 571 674 l 5,2,-1
 525 674 l 5,3,-1
 525 690 l 5,0,-1
450 690 m 5,4,-1
 496 690 l 5,5,-1
 496 674 l 5,6,-1
 450 674 l 5,7,-1
 450 690 l 5,4,-1
375 690 m 5,8,-1
 421 690 l 5,9,-1
 421 674 l 5,10,-1
 375 674 l 5,11,-1
 375 690 l 5,8,-1
300 690 m 5,12,-1
 346 690 l 5,13,-1
 346 674 l 5,14,-1
 300 674 l 5,15,-1
 300 690 l 5,12,-1
225 690 m 5,16,-1
 271 690 l 5,17,-1
 271 674 l 5,18,-1
 225 674 l 5,19,-1
 225 690 l 5,16,-1
150 690 m 5,20,-1
 196 690 l 5,21,-1
 196 674 l 5,22,-1
 150 674 l 5,23,-1
 150 690 l 5,20,-1
75 690 m 5,24,-1
 121 690 l 5,25,-1
 121 674 l 5,26,-1
 75 674 l 5,27,-1
 75 690 l 5,24,-1
0 690 m 5,28,-1
 46 690 l 5,29,-1
 46 674 l 5,30,-1
 0 674 l 5,31,-1
 0 690 l 5,28,-1
EndSplineSet
Validated: 1
EndChar

StartChar: j
Encoding: 106 106 40
Width: 833
VWidth: 1540
Flags: W
LayerCount: 3
Back
SplineSet
1125 690 m 1
 1171 690 l 1
 1171 674 l 1
 1125 674 l 1
 1125 690 l 1
1050 690 m 1
 1096 690 l 1
 1096 674 l 1
 1050 674 l 1
 1050 690 l 1
975 690 m 1
 1021 690 l 1
 1021 674 l 1
 975 674 l 1
 975 690 l 1
900 690 m 1
 946 690 l 1
 946 674 l 1
 900 674 l 1
 900 690 l 1
825 690 m 1
 871 690 l 1
 871 674 l 1
 825 674 l 1
 825 690 l 1
750 690 m 1
 796 690 l 1
 796 674 l 1
 750 674 l 1
 750 690 l 1
675 690 m 1
 721 690 l 1
 721 674 l 1
 675 674 l 1
 675 690 l 1
600 -674 m 1
 1201 -674 l 1
 1201 -690 l 1
 600 -690 l 1
 600 -674 l 1
600 690 m 1
 646 690 l 1
 646 674 l 1
 600 674 l 1
 600 690 l 1
600 14 m 1
 1201 14 l 1
 1201 -14 l 1
 600 -14 l 1
 600 14 l 1
445 1372 m 1
 834 1372 l 1
 834 1356 l 1
 445 1356 l 1
 445 1372 l 1
EndSplineSet
Fore
SplineSet
844.481445312 695.997070312 m 1,0,-1
 448.010742188 1323.77636719 l 1,1,-1
 51.5400390625 695.997070312 l 1,2,-1
 844.481445312 695.997070312 l 1,0,-1
834.248046875 -690.359375 m 1,3,-1
 806.25390625 -690.359375 l 1,4,-1
 806.25390625 -525.1484375 l 1,5,-1
 620.133789062 -525.1484375 l 1,6,-1
 620.133789062 -354.940429688 l 1,7,-1
 434.013671875 -354.940429688 l 1,8,-1
 434.013671875 -183.845703125 l 1,9,-1
 247.893554688 -183.845703125 l 1,10,-1
 247.893554688 -13.9970703125 l 1,11,-1
 61.7734375 -13.9970703125 l 1,12,-1
 61.7734375 668.002929688 l 1,13,-1
 0.7373046875 668.002929688 l 1,14,-1
 445 1371.45637017 l 1,15,-1
 446 1372 l 1,16,-1
 834 1372 l 5,17,-1
 834 1356 l 5,18,-1
 460.782881898 1356 l 1,19,-1
 895.284179688 668.002929688 l 1,20,-1
 834.248046875 668.002929688 l 1,21,-1
 834.248046875 -13.9970703125 l 1,22,-1
 275.887695312 -13.9970703125 l 1,23,-1
 275.887695312 -155.8515625 l 1,24,-1
 462.0078125 -155.8515625 l 1,25,-1
 462.0078125 -326.946289062 l 1,26,-1
 648.127929688 -326.946289062 l 1,27,-1
 648.127929688 -497.154296875 l 1,28,-1
 834.248046875 -497.154296875 l 1,29,-1
 834.248046875 -690.359375 l 1,3,-1
806.25390625 668.002929688 m 1,30,-1
 89.767578125 668.002929688 l 1,31,-1
 89.767578125 13.9970703125 l 1,32,-1
 806.25390625 13.9970703125 l 1,33,-1
 806.25390625 668.002929688 l 1,30,-1
EndSplineSet
Validated: 1
EndChar

StartChar: ccgi
Encoding: 57392 57392 41
Width: 2048
LayerCount: 3
Back
SplineSet
343.045898438 25.578125 m 7
 299.412109375 25.578125 286.623046875 62.4404296875 286.623046875 103.065429688 c 4
 286.623046875 104.12890625 285.87109375 488.243164062 286.623046875 487.490234375 c 1029
-56.4228515625 487.490234375 m 0
 -56.42578125 487.4921875 -56.427734375 341.922851562 -56.4228515625 -489.37109375 c 0
 -56.4228515625 -628.170898438 -72.220703125 -743.272460938 -181.680664062 -743.272460938 c 1024
EndSplineSet
Fore
Validated: 1
EndChar

StartChar: ccgn
Encoding: 57393 57393 42
Width: 2048
LayerCount: 3
Back
SplineSet
-55.6748046875 487.990234375 m 25
 -55.6748046875 487.990234375 -55.6748046875 109.39453125 -55.6748046875 108.331054688 c 0
 -55.6767578125 -33.8701171875 -55.6748046875 -229.004882812 -55.6748046875 -489.37109375 c 0
 -55.6748046875 -628.170898438 -71.47265625 -744.272460938 -180.932617188 -744.272460938 c 1024
-55.6748046875 412.260742188 m 0
 -77.4912109375 440.84765625 -125.638671875 487.990234375 -186.57421875 487.990234375 c 0
 -299.118164062 487.990234375 -372.467773438 379.916015625 -372.467773438 254.282226562 c 0
 -372.467773438 127.143554688 -293.852539062 24.078125 -197.859375 24.078125 c 0
 -119.620117188 24.078125 -55.6748046875 109.8125 -55.6748046875 217.415039062 c 1024
EndSplineSet
Fore
Validated: 1
EndChar

StartChar: ccgh
Encoding: 57394 57394 43
Width: 2048
LayerCount: 3
Back
SplineSet
286.625976562 25.578125 m 1
 287.002929688 1003.19238281 l 2
 287.002929688 1141.99121094 302.431640625 1257.09375 419.03125 1257.09375 c 1024
286.625976562 256.534179688 m 0
 286.625976562 337.030273438 395.709960938 487.490234375 502.536132812 487.490234375 c 3
 559.7109375 487.490234375 603.344726562 446.114257812 603.344726562 384.42578125 c 0
 603.344726562 384.42578125 603.344726562 103.817382812 603.344726562 103.065429688 c 0
 603.344726562 62.4404296875 616.133789062 25.578125 659.767578125 25.578125 c 1024
-56.4228515625 487.490234375 m 0
 -56.42578125 487.4921875 -56.427734375 341.922851562 -56.4228515625 -489.37109375 c 0
 -56.4228515625 -628.170898438 -72.220703125 -743.272460938 -181.680664062 -743.272460938 c 1024
EndSplineSet
Fore
Validated: 1
EndChar

StartChar: ccgo
Encoding: 57395 57395 44
Width: 0
VWidth: 1540
LayerCount: 3
Back
SplineSet
460.2265625 442.5078125 m 5
 433.887695312 470.760742188 401.401367188 487.490234375 366.370117188 487.490234375 c 4
 321.528320312 487.490234375 281.610351562 460.6328125 252.665039062 416.538085938 c 5
 252.772460938 416.774414062 -209.896484375 -267.818359375 -209.896484375 -267.818359375 c 6
 -244.497070312 -318.975585938 -243.75 -364.727539062 -243.75 -391.948242188 c 7
 -243.75 -434.852539062 -220.428710938 -486.73828125 -162.501953125 -486.73828125 c 1028
460.2265625 442.5078125 m 1029
460.068359375 442.362304688 m 1025
251.913085938 415.786132812 m 1
 280.858398438 459.880859375 321.528320312 487.490234375 366.370117188 487.490234375 c 0
 401.401367188 487.490234375 433.887695312 470.760742188 460.2265625 442.5078125 c 1025
460.2265625 442.5078125 m 1
 499.499023438 400.380859375 525.10546875 332.635742188 525.10546875 256.534179688 c 0
 525.10546875 159.6484375 483.602539062 76.306640625 425.233398438 42.12890625 c 0
 407.006835938 31.4560546875 387.135742188 25.578125 366.370117188 25.578125 c 0
 279.103515625 25.578125 207.634765625 128.643554688 207.634765625 255.782226562 c 0
 207.634765625 317.591796875 224.526367188 374.06640625 251.913085938 415.786132812 c 1025
EndSplineSet
Fore
Validated: 1
EndChar

StartChar: ccge
Encoding: 57397 57397 45
Width: 0
VWidth: 1540
LayerCount: 3
Back
SplineSet
366.370117188 487.490234375 m 4
 279.103515625 487.490234375 207.634765625 382.920898438 207.634765625 255.782226562 c 4
 207.634765625 128.643554688 279.103515625 25.578125 366.370117188 25.578125 c 1028
-56.4228515625 487.490234375 m 0
 -56.42578125 487.4921875 -56.427734375 341.922851562 -56.4228515625 -489.37109375 c 0
 -56.4228515625 -628.170898438 -72.220703125 -743.272460938 -181.680664062 -743.272460938 c 1024
EndSplineSet
Fore
Validated: 1
EndChar

StartChar: g
Encoding: 103 103 46
Width: 600
Flags: W
LayerCount: 3
Back
SplineSet
0 -674 m 5
 602 -674 l 7
 604.666992188 -674 606 -676.666992188 606 -682 c 135
 606 -687.333007812 604.666992188 -690 602 -690 c 5
 0 -690 l 5
 0 -674 l 5
EndSplineSet
Fore
SplineSet
0 -674 m 5,0,-1
 602 -674 l 6,1,2
 606.000488281 -674 606.000488281 -674 606 -682 c 132,-1,3
 606 -689.999511719 606 -689.999511719 602 -690 c 6,4,-1
 0 -690 l 5,5,-1
 0 -674 l 5,0,-1
EndSplineSet
Validated: 1
EndChar

StartChar: y
Encoding: 121 121 47
Width: 682
VWidth: 1540
Flags: W
LayerCount: 3
Fore
SplineSet
0 682 m 1,0,-1
 684 682 l 1,1,-1
 684 0 l 1,2,-1
 0 0 l 1,3,-1
 0 682 l 1,0,-1
EndSplineSet
Validated: 1
EndChar

StartChar: k
Encoding: 107 107 48
Width: 1200
VWidth: 1540
Flags: W
LayerCount: 3
Back
SplineSet
600 -668 m 5
 1201 -668 l 5
 1201 -696 l 5
 600 -696 l 5
 600 -668 l 5
1100 696 m 5
 1160 696 l 5
 1160 668 l 5
 1100 668 l 5
 1100 696 l 5
1000 696 m 5
 1060 696 l 5
 1060 668 l 5
 1000 668 l 5
 1000 696 l 5
900 696 m 5
 960 696 l 5
 960 668 l 5
 900 668 l 5
 900 696 l 5
800 696 m 5
 860 696 l 5
 860 668 l 5
 800 668 l 5
 800 696 l 5
700 696 m 5
 760 696 l 5
 760 668 l 5
 700 668 l 5
 700 696 l 5
600 696 m 5
 660 696 l 5
 660 668 l 5
 600 668 l 5
 600 696 l 5
600 1378 m 5
 1201 1378 l 5
 1201 1350 l 5
 600 1350 l 5
 600 1378 l 5
600 21 m 5
 1201 21 l 5
 1201 -21 l 5
 600 -21 l 5
 600 21 l 5
0 -668 m 1
 601 -668 l 1
 601 -696 l 1
 0 -696 l 1
 0 -668 l 1
500 696 m 1
 560 696 l 1
 560 668 l 1
 500 668 l 1
 500 696 l 1
400 696 m 1
 460 696 l 1
 460 668 l 1
 400 668 l 1
 400 696 l 1
300 696 m 1
 360 696 l 1
 360 668 l 1
 300 668 l 1
 300 696 l 1
200 696 m 1
 260 696 l 1
 260 668 l 1
 200 668 l 1
 200 696 l 1
100 696 m 1
 160 696 l 1
 160 668 l 1
 100 668 l 1
 100 696 l 1
0 696 m 1
 60 696 l 1
 60 668 l 1
 0 668 l 1
 0 696 l 1
0 1378 m 1
 601 1378 l 1
 601 1350 l 1
 0 1350 l 1
 0 1378 l 1
0 21 m 1
 601 21 l 1
 601 -21 l 1
 0 -21 l 1
 0 21 l 1
EndSplineSet
Fore
SplineSet
519.291992188 683.583984375 m 1,0,1
 344 707 344 707 301.814453125 772.234375 c 1,2,3
 120 794 120 794 120.384765625 909.736328125 c 0,4,5
 121 945 121 945 137.05859375 988.540039062 c 1,6,7
 94 1035 94 1035 94.3154296875 1069.40820312 c 0,8,9
 94 1122 94 1122 191.046875 1151.65625 c 1,10,11
 212 1292 212 1292 361.471679688 1291.95800781 c 0,12,13
 383 1292 383 1292 406.998046875 1289.06347656 c 1,14,15
 472 1364 472 1364 588.508789062 1364.41601562 c 0,16,17
 725 1364 725 1364 802.59765625 1250.94433594 c 1,18,19
 860 1265 860 1265 901.918945312 1264.99804688 c 0,20,21
 1039.61328125 1263.63867188 1039.61328125 1263.63867188 1039.61328125 1120.61425781 c 0,22,23
 1040 1117 1040 1117 1039.82910156 1112.80664062 c 0,24,25
 1039 1101 1039 1101 1038.09667969 1088.71484375 c 1,26,27
 1086 1063 1086 1063 1086.04296875 1015.32617188 c 0,28,29
 1086 970 1086 970 1042.75097656 928.2578125 c 1,30,31
 1047 911 1047 911 1046.01171875 895.479492188 c 0,32,33
 1045 843 1045 843 943.840820312 801 c 0,34,35
 927 794 927 794 909.865234375 793.899414062 c 0,36,37
 893 794 893 794 877.064453125 800.6015625 c 1,38,39
 855 684 855 684 673.428710938 683.583984375 c 1,40,41
 673.428710938 683.583984375 673.428710938 683.583984375 686 -0.583984375 c 1,42,-1
 685.36328125 -0.583984375 l 1,43,44
 694 -22 694 -22 713.907226562 -35.87890625 c 0,45,46
 732 -49 732 -49 759 -55.546875 c 0,47,48
 766 -57 766 -57 788.05859375 -61.2333984375 c 0,49,50
 810 -65 810 -65 821.853515625 -69.1455078125 c 0,51,52
 838 -75 838 -75 849.569335938 -83.66796875 c 0,53,54
 864 -95 864 -95 868 -106.963867188 c 0,55,56
 871 -115 871 -115 874.15234375 -133.241210938 c 0,57,58
 875 -139 875 -139 873.880859375 -160.190429688 c 0,59,60
 873 -177 873 -177 875.221679688 -187.083984375 c 0,61,62
 878 -201 878 -201 885 -212.45703125 c 0,63,64
 893 -225 893 -225 907.751953125 -235.814453125 c 0,65,66
 913 -240 913 -240 936 -254.123046875 c 0,67,68
 971 -276 971 -276 993 -301.994140625 c 0,69,70
 1025 -340 1025 -340 1030 -379.119140625 c 0,71,72
 1033 -403 1033 -403 1024.98925781 -431.115234375 c 0,73,74
 1022 -442 1022 -442 1007 -481.067382812 c 0,75,76
 983 -543 983 -543 985 -596.311523438 c 0,77,78
 987 -640 987 -640 1002 -681.416015625 c 1,79,80
 955 -631 955 -631 961 -559.965820312 c 0,81,82
 963 -532 963 -532 980 -481.067382812 c 0,83,84
 995 -436 995 -436 994.998046875 -408.96484375 c 1,85,86
 958 -414 958 -414 932 -446.493164062 c 0,87,88
 911 -474 911 -474 900 -519.186523438 c 0,89,90
 895 -541 895 -541 892.799804688 -564.3984375 c 1,91,92
 876 -509 876 -509 898.399414062 -456.245117188 c 0,93,94
 912 -423 912 -423 938.399414062 -400.395507812 c 0,95,96
 962 -380 962 -380 989.442382812 -372.19921875 c 1,97,98
 982 -347 982 -347 963 -324.15625 c 0,99,100
 953 -312 953 -312 939.5 -299.77734375 c 0,101,102
 926 -288 926 -288 907 -273.182617188 c 0,103,104
 888 -259 888 -259 880 -251.463867188 c 0,105,106
 854 -229 854 -229 852.56640625 -221.640625 c 0,107,108
 848 -192 848 -192 840 -184.975585938 c 0,109,110
 839 -184 839 -184 839.440429688 -168.62890625 c 0,111,112
 840 -153 840 -153 839.564453125 -152.25 c 0,113,114
 838 -149 838 -149 833 -120.26171875 c 0,115,116
 831 -106 831 -106 805 -92.7802734375 c 1,117,118
 782 -111 782 -111 776 -138.877929688 c 0,119,120
 771 -163 771 -163 783 -194.727539062 c 0,121,122
 787 -205 787 -205 794 -218.663085938 c 0,123,124
 802 -234 802 -234 805 -241.711914062 c 0,125,126
 816 -270 816 -270 814 -291.356445312 c 0,127,128
 813 -305 813 -305 804.5 -329.475585938 c 128,-1,129
 796 -354 796 -354 795 -357.84375 c 0,130,131
 787 -387 787 -387 792 -434.08203125 c 0,132,133
 799 -497 799 -497 793 -535.143554688 c 1,134,135
 788 -519 788 -519 782 -502.342773438 c 0,136,137
 764 -453 764 -453 761.172851562 -442.342773438 c 0,138,139
 753 -410 753 -410 759 -380.005859375 c 0,140,141
 761 -369 761 -369 773.19140625 -334.2890625 c 0,142,143
 781 -313 781 -313 783 -287.809570312 c 0,144,145
 784 -277 784 -277 762.80078125 -223.094726562 c 0,146,147
 762 -221 762 -221 751.745117188 -205.439453125 c 0,148,149
 742 -189 742 -189 737.4140625 -180.836914062 c 0,150,151
 733 -172 733 -172 730 -161.926757812 c 0,152,153
 721 -132 721 -132 732.6875 -109.859375 c 0,154,155
 742 -91 742 -91 759 -79.482421875 c 1,156,157
 680 -61.7529296875 680 -61.7529296875 680 -61.7529296875 c 2,158,159
 659 -57 659 -57 648.037109375 -53.513671875 c 1,160,161
 648 -55 648 -55 644.959960938 -58.47265625 c 0,162,163
 644 -60 644 -60 641 -63.525390625 c 0,164,165
 636 -70 636 -70 631.692382812 -74.435546875 c 0,166,167
 629 -78 629 -78 627.875976562 -79.2353515625 c 0,168,169
 627 -81 627 -81 625.534179688 -83.861328125 c 0,170,171
 625 -87 625 -87 624.229492188 -88.4208984375 c 0,172,173
 624 -91 624 -91 623.984375 -93.3583984375 c 0,174,175
 624 -95 624 -95 625 -98.0986328125 c 128,-1,176
 626 -101 626 -101 627.323242188 -102.64453125 c 0,177,178
 629 -105 629 -105 630.883789062 -106.668945312 c 0,179,180
 633 -108 633 -108 635.092773438 -109.779296875 c 0,181,182
 638 -111 638 -111 640.244140625 -112.380859375 c 0,183,184
 642 -113 642 -113 645.971679688 -114.02734375 c 0,185,186
 652 -116 652 -116 662 -118.48828125 c 0,187,188
 667 -120 667 -120 669.712890625 -121.041992188 c 0,189,190
 673 -122 673 -122 676.184570312 -124.084960938 c 0,191,192
 680 -126 680 -126 682.401367188 -128.307617188 c 0,193,194
 685 -131 685 -131 687.567382812 -133.391601562 c 0,195,196
 692 -139 692 -139 694.2421875 -144.9921875 c 0,197,198
 697 -152 697 -152 697 -159.267578125 c 0,199,200
 697 -164 697 -164 696.290039062 -171.482421875 c 0,201,202
 696 -175 696 -175 694.870117188 -182.694335938 c 0,203,204
 694 -190 694 -190 693.439453125 -194.038085938 c 0,205,206
 692 -206 692 -206 691.915039062 -212.748046875 c 0,207,208
 692 -221 692 -221 693 -228.887695312 c 0,209,210
 694 -237 694 -237 697.568359375 -246.05078125 c 0,211,212
 700 -253 700 -253 706.3515625 -266.943359375 c 0,213,214
 714 -283 714 -283 716.100585938 -289.090820312 c 0,215,216
 720 -298 720 -298 721 -304.653320312 c 0,217,218
 723 -314 723 -314 722.25 -323.712890625 c 0,219,220
 721 -333 721 -333 718 -341.88671875 c 0,221,222
 714 -354 714 -354 701 -366.487304688 c 0,223,224
 689 -377 689 -377 674 -381.779296875 c 1,225,226
 681 -376 681 -376 685.698242188 -367.177734375 c 0,227,228
 690 -359 690 -359 692.44921875 -350.141601562 c 0,229,230
 694 -342 694 -342 694.037109375 -332.884765625 c 0,231,232
 694 -329 694 -329 691 -314.405273438 c 0,233,234
 689 -305 689 -305 686.671875 -302.66015625 c 0,235,236
 686 -302 686 -302 682.5859375 -292.887695312 c 0,237,238
 679 -284 679 -284 677.049804688 -279.4140625 c 0,239,240
 672 -267 672 -267 670.32421875 -260.477539062 c 0,241,242
 668 -251 668 -251 667 -243.485351562 c 0,243,244
 666 -237 666 -237 666.724609375 -229.06640625 c 0,245,246
 667 -226 667 -226 668.095703125 -207.4921875 c 0,247,248
 669 -195 669 -195 668.5703125 -187.102539062 c 0,249,250
 668 -179 668 -179 666 -171.678710938 c 0,251,252
 663 -164 663 -164 658.541992188 -156.883789062 c 0,253,254
 654 -150 654 -150 646.64453125 -145.63671875 c 0,255,256
 639 -141 639 -141 630.708984375 -138.454101562 c 0,257,258
 622 -136 622 -136 613 -137.10546875 c 1,259,260
 606 -151 606 -151 602.5 -167.024414062 c 0,261,262
 599 -182 599 -182 601 -200.046875 c 0,263,264
 602 -209 602 -209 603.75 -218.884765625 c 0,265,266
 606 -228 606 -228 610 -245.2578125 c 0,267,268
 616 -268 616 -268 618.25 -279.388671875 c 0,269,270
 621 -293 621 -293 623 -307.313476562 c 1,271,272
 622 -300 622 -300 619.75 -293.12890625 c 0,273,274
 617 -286 617 -286 614 -278.9453125 c 0,275,276
 612 -275 612 -275 608.625 -269.3046875 c 0,277,278
 607 -267 607 -267 600.5 -256.338867188 c 0,279,280
 596 -250 596 -250 592.875 -244.704101562 c 0,281,282
 589 -240 589 -240 589 -239.052734375 c 0,283,284
 588 -230 588 -230 576.938476562 -213.649414062 c 0,285,286
 569 -202 569 -202 571.336914062 -187.620117188 c 0,287,288
 574 -170 574 -170 571.33984375 -166.737304688 c 0,289,290
 571 -166 571 -166 574 -133.55859375 c 0,291,292
 576 -112 576 -112 575.673828125 -101.447265625 c 0,293,294
 576 -87 576 -87 573.594726562 -75.1025390625 c 0,295,296
 572 -67 572 -67 569.940429688 -58.998046875 c 128,-1,297
 568 -51 568 -51 564.524414062 -43.5888671875 c 1,298,299
 564 -44 564 -44 562.890625 -44.4462890625 c 0,300,301
 562 -45 562 -45 561.219726562 -45.283203125 c 0,302,303
 555 -48 555 -48 545.318359375 -51.5166015625 c 0,304,305
 537 -55 537 -55 522.463867188 -58.0478515625 c 1,306,307
 534 -81 534 -81 537.098632812 -106.129882812 c 0,308,309
 540 -131 540 -131 535 -159.267578125 c 0,310,311
 533 -169 533 -169 530 -180.764648438 c 0,312,313
 527 -191 527 -191 521 -209.797851562 c 0,314,315
 515 -229 515 -229 512 -237.944335938 c 0,316,317
 509 -248 509 -248 507 -256.782226562 c 0,318,319
 505 -266 505 -266 503.776367188 -274.009765625 c 0,320,321
 503 -282 503 -282 502.2578125 -290.387695312 c 1,322,323
 521 -294 521 -294 538.698242188 -301.655273438 c 0,324,325
 557 -309 557 -309 572 -319.723632812 c 0,326,327
 588 -331 588 -331 601 -345.2109375 c 0,328,329
 613 -359 613 -359 622 -375.573242188 c 0,330,331
 636 -402 636 -402 637.75 -429.20703125 c 0,332,333
 640 -457 640 -457 629 -483.7265625 c 1,334,335
 627 -472 627 -472 625.25 -460.899414062 c 0,336,337
 623 -449 623 -449 620 -438.514648438 c 0,338,339
 614 -416 614 -416 603.5 -397.736328125 c 0,340,341
 593 -379 593 -379 580 -365.822265625 c 0,342,343
 565 -351 565 -351 546.247070312 -341.135742188 c 0,344,345
 527 -331 527 -331 506.03125 -328.920898438 c 1,346,347
 508 -335 508 -335 509.473632812 -341.072265625 c 128,-1,348
 511 -347 511 -347 514 -353.411132812 c 0,349,350
 516 -358 516 -358 518.108398438 -362.83984375 c 0,351,352
 520 -368 520 -368 524.022460938 -375.3984375 c 0,353,354
 529 -386 529 -386 529.740234375 -387.359375 c 0,355,356
 532 -392 532 -392 533.258789062 -394.994140625 c 0,357,358
 541 -417 541 -417 541.577148438 -418.055664062 c 0,359,360
 543 -420 543 -420 545 -438.514648438 c 0,361,362
 546 -449 546 -449 543.333984375 -459.984375 c 0,363,364
 541 -470 541 -470 536.116210938 -480.725585938 c 0,365,366
 532 -490 532 -490 524.927734375 -498.666015625 c 0,367,368
 518 -508 518 -508 509 -516.52734375 c 0,369,370
 503 -523 503 -523 493.625 -530.157226562 c 0,371,372
 486 -537 486 -537 471.5 -547.998046875 c 0,373,374
 453 -563 453 -563 449.625 -565.395507812 c 0,375,376
 441 -572 441 -572 435 -577.6953125 c 0,377,378
 411 -599 411 -599 396 -623.350585938 c 0,379,380
 382 -647 382 -647 375 -673.4375 c 1,381,382
 373 -658 373 -658 375.69140625 -643.6484375 c 0,383,384
 378 -629 378 -629 383.985351562 -614.48046875 c 0,385,386
 390 -602 390 -602 398.158203125 -588.80859375 c 0,387,388
 406 -577 406 -577 419 -563.51171875 c 0,389,390
 424 -558 424 -558 429 -553.427734375 c 0,391,392
 433 -549 433 -549 443 -540.905273438 c 0,393,394
 452 -533 452 -533 458 -527.497070312 c 0,395,396
 465 -521 465 -521 471 -514.75390625 c 0,397,398
 477 -509 477 -509 482 -502.342773438 c 0,399,400
 487 -496 487 -496 491 -489.931640625 c 0,401,402
 498 -479 498 -479 501.750976562 -469.2265625 c 0,403,404
 506 -459 506 -459 507.177734375 -448.008789062 c 0,405,406
 509 -438 509 -438 507.2578125 -426.317382812 c 0,407,408
 506 -415 506 -415 502 -403.94140625 c 0,409,410
 500 -397 500 -397 495.20703125 -388.17578125 c 0,411,412
 493 -384 493 -384 483.024414062 -364.368164062 c 0,413,414
 476 -351 476 -351 472.3515625 -342.313476562 c 0,415,416
 468 -333 468 -333 466 -324.15625 c 0,417,418
 463 -313 463 -313 462.661132812 -300.87890625 c 0,419,420
 462 -289 462 -289 464.40625 -276.533203125 c 0,421,422
 465 -272 465 -272 466.576171875 -266.479492188 c 0,423,424
 468 -260 468 -260 470.005859375 -254.188476562 c 1,425,426
 425 -259 425 -259 394 -291.356445312 c 0,427,428
 367 -318 367 -318 354 -364.048828125 c 0,429,430
 348 -386 348 -386 345 -409.260742188 c 1,431,432
 324 -354 324 -354 352 -301.107421875 c 0,433,434
 370 -266 370 -266 402 -245.2578125 c 0,435,436
 439 -220 439 -220 483.721679688 -213.700195312 c 1,437,438
 492 -189 492 -189 495.831054688 -162.913085938 c 0,439,440
 499 -141 499 -141 497 -121.1484375 c 0,441,442
 496 -108 496 -108 491.586914062 -93.5830078125 c 0,443,444
 488 -80 488 -80 481.724609375 -67.4267578125 c 1,445,446
 468 -69 468 -69 453.6796875 -73.580078125 c 0,447,448
 452 -74 452 -74 443.525390625 -75.720703125 c 0,449,450
 435 -78 435 -78 430 -78.595703125 c 0,451,452
 413 -83 413 -83 403.8203125 -84.873046875 c 0,453,454
 393 -87 393 -87 385.80859375 -91.2451171875 c 0,455,456
 375 -96 375 -96 366.557617188 -103.706054688 c 0,457,458
 358 -111 358 -111 354 -120.26171875 c 0,459,460
 353 -123 353 -123 349.225585938 -134.586914062 c 0,461,462
 346 -147 346 -147 347.435546875 -152.25 c 0,463,464
 348 -155 348 -155 347.4609375 -156.711914062 c 0,465,466
 347 -157 347 -157 347.48828125 -161.674804688 c 0,467,468
 348 -166 348 -166 347.559570312 -168.62890625 c 0,469,470
 346 -177 346 -177 347.48828125 -180.536132812 c 0,471,472
 348 -182 348 -182 347 -184.975585938 c 0,473,474
 345 -193 345 -193 342.859375 -204.181640625 c 0,475,476
 342 -208 342 -208 334.43359375 -221.640625 c 0,477,478
 330 -229 330 -229 323 -236.276367188 c 0,479,480
 317 -243 317 -243 307 -251.463867188 c 0,481,482
 302 -256 302 -256 296.25 -260.439453125 c 0,483,484
 292 -264 292 -264 280 -273.182617188 c 0,485,486
 270 -282 270 -282 262.375 -287.145507812 c 0,487,488
 254 -294 254 -294 247.5 -299.77734375 c 0,489,490
 240 -306 240 -306 234.875 -311.856445312 c 0,491,492
 229 -318 229 -318 224 -324.15625 c 0,493,494
 216 -334 216 -334 210.59765625 -343.368164062 c 0,495,496
 205 -353 205 -353 200.809570312 -363.080078125 c 1,497,498
 223 -368 223 -368 241.678710938 -381.484375 c 0,499,500
 268 -401 268 -401 279 -426.103515625 c 0,501,502
 283 -435 283 -435 296.909179688 -470.80078125 c 0,503,504
 307 -498 307 -498 319 -513.8671875 c 0,505,506
 343 -546 343 -546 382 -553.759765625 c 1,507,508
 339 -561 339 -561 304 -535.143554688 c 0,509,510
 290 -525 290 -525 279.646484375 -508.500976562 c 0,511,512
 272 -496 272 -496 265 -476.634765625 c 0,513,514
 256 -450 256 -450 252.255859375 -443.041015625 c 0,515,516
 243 -425 243 -425 229 -414.579101562 c 0,517,518
 212 -402 212 -402 198 -400.395507812 c 0,519,520
 195 -400 195 -400 192.359375 -399.024414062 c 1,521,522
 192 -401 192 -401 192.08984375 -403.686523438 c 0,523,524
 192 -406 192 -406 192 -408.374023438 c 0,525,526
 192 -423 192 -423 195.75 -439.844726562 c 0,527,528
 199 -455 199 -455 207 -481.067382812 c 0,529,530
 218 -516 218 -516 220.25 -526.5 c 0,531,532
 225 -552 225 -552 226 -559.965820312 c 0,533,534
 230 -592 230 -592 218.75 -625.788085938 c 0,535,536
 208 -657 208 -657 185 -681.416015625 c 1,537,538
 192 -660 192 -660 196.75 -639.307617188 c 0,539,540
 201 -618 201 -618 202 -596.311523438 c 0,541,542
 203 -569 203 -569 197.5 -540.905273438 c 0,543,544
 195 -529 195 -529 180 -481.067382812 c 0,545,546
 178 -475 178 -475 173.737304688 -464.252929688 c 0,547,548
 170 -454 170 -454 168.037109375 -449.081054688 c 0,549,550
 164 -439 164 -439 162.010742188 -431.115234375 c 0,551,552
 158 -417 158 -417 156.846679688 -404.1015625 c 0,553,554
 156 -391 156 -391 157 -379.119140625 c 0,555,556
 159 -361 159 -361 168.75 -340.334960938 c 0,557,558
 179 -320 179 -320 194 -301.994140625 c 0,559,560
 210 -283 210 -283 219.25 -277.171875 c 0,561,562
 233 -268 233 -268 251 -254.123046875 c 0,563,564
 255 -251 255 -251 261.012695312 -247.75 c 0,565,566
 268 -243 268 -243 269.4296875 -242.4375 c 0,567,568
 275 -239 275 -239 279.248046875 -235.814453125 c 0,569,570
 287 -230 287 -230 292.376953125 -224.451171875 c 0,571,572
 298 -219 298 -219 302 -212.45703125 c 0,573,574
 306 -207 306 -207 308.083984375 -200.421875 c 0,575,576
 311 -194 311 -194 311.778320312 -187.083984375 c 0,577,578
 313 -181 313 -181 313.044921875 -175.151367188 c 0,579,580
 313 -170 313 -170 313.119140625 -160.190429688 c 0,581,582
 313 -157 313 -157 312.920898438 -151.920898438 c 0,583,584
 313 -146 313 -146 312.720703125 -143.016601562 c 0,585,586
 313 -137 313 -137 312.84765625 -133.241210938 c 0,587,588
 313 -126 313 -126 314.862304688 -119.231445312 c 0,589,590
 316 -112 316 -112 319 -106.963867188 c 0,591,592
 322 -100 322 -100 326.698242188 -94.3671875 c 0,593,594
 331 -88 331 -88 337.430664062 -83.66796875 c 0,595,596
 343 -79 343 -79 350.006835938 -75.5439453125 c 0,597,598
 362 -70 362 -70 365.146484375 -69.1455078125 c 0,599,600
 371 -68 371 -68 379.37109375 -65.220703125 c 0,601,602
 386 -63 386 -63 398.942382812 -61.232421875 c 0,603,604
 401 -61 401 -61 407.322265625 -59.6787109375 c 0,605,606
 414 -58 414 -58 417.329101562 -57.80078125 c 0,607,608
 424 -56 424 -56 428 -55.546875 c 0,609,610
 441 -53 441 -53 452.84765625 -47.3125 c 0,611,612
 465 -42 465 -42 473.092773438 -35.87890625 c 0,613,614
 480 -31 480 -31 490.454101562 -19.47265625 c 0,615,616
 503 -6 503 -6 508.12890625 -0.583984375 c 1,617,618
 508.12890625 -0.583984375 508.12890625 -0.583984375 508 -0.583984375 c 0,619,-1
 519.291992188 683.583984375 l 1,0,1
200.809570312 -363.080078125 m 1025,620,-1
200.749023438 -363.06640625 m 1025,621,-1
EndSplineSet
Validated: 37
EndChar

StartChar: p
Encoding: 112 112 49
Width: 600
Flags: W
LayerCount: 3
Back
SplineSet
0 -668 m 5
 601 -668 l 5
 601 -696 l 5
 0 -696 l 5
 0 -668 l 5
500 696 m 5
 560 696 l 5
 560 668 l 5
 500 668 l 5
 500 696 l 5
400 696 m 5
 460 696 l 5
 460 668 l 5
 400 668 l 5
 400 696 l 5
300 696 m 5
 360 696 l 5
 360 668 l 5
 300 668 l 5
 300 696 l 5
200 696 m 5
 260 696 l 5
 260 668 l 5
 200 668 l 5
 200 696 l 5
100 696 m 5
 160 696 l 5
 160 668 l 5
 100 668 l 5
 100 696 l 5
0 696 m 5
 60 696 l 5
 60 668 l 5
 0 668 l 5
 0 696 l 5
0 1378 m 5
 601 1378 l 5
 601 1350 l 5
 0 1350 l 5
 0 1378 l 5
0 21 m 5
 601 21 l 5
 601 -21 l 5
 0 -21 l 5
 0 21 l 5
EndSplineSet
Fore
Validated: 1
EndChar

StartChar: comma
Encoding: 44 44 50
Width: 178
VWidth: 1540
Flags: W
LayerCount: 3
Back
SplineSet
-42.58984375 -54.166015625 m 29
 -30.88671875 -42.4619140625 -6.4169921875 -17.9931640625 11.669921875 0.09375 c 5
 -6.4169921875 18.0869140625 -30.88671875 42.556640625 -42.58984375 54.259765625 c 1053
EndSplineSet
Fore
Validated: 1
EndChar

StartChar: s
Encoding: 115 115 51
Width: 600
Flags: W
LayerCount: 3
Back
SplineSet
574 326.002929688 m 132
 570.1328125 326.002929688 566.833007812 327.369140625 564.100585938 330.100585938 c 132
 561.369140625 332.833007812 560.002929688 336.1328125 560.002929688 340 c 132
 560.002929688 343.8671875 561.369140625 347.166992188 564.100585938 349.899414062 c 132
 566.833007812 352.630859375 570.1328125 353.997070312 574 353.997070312 c 132
 577.8671875 353.997070312 581.166992188 352.630859375 583.899414062 349.899414062 c 132
 586.630859375 347.166992188 587.997070312 343.8671875 587.997070312 340 c 132
 587.997070312 336.1328125 586.630859375 332.833007812 583.899414062 330.100585938 c 132
 581.166992188 327.369140625 577.8671875 326.002929688 574 326.002929688 c 132
534 326.002929688 m 132
 530.1328125 326.002929688 526.833007812 327.369140625 524.100585938 330.100585938 c 132
 521.369140625 332.833007812 520.002929688 336.1328125 520.002929688 340 c 132
 520.002929688 343.8671875 521.369140625 347.166992188 524.100585938 349.899414062 c 132
 526.833007812 352.630859375 530.1328125 353.997070312 534 353.997070312 c 132
 537.8671875 353.997070312 541.166992188 352.630859375 543.899414062 349.899414062 c 132
 546.630859375 347.166992188 547.997070312 343.8671875 547.997070312 340 c 132
 547.997070312 336.1328125 546.630859375 332.833007812 543.899414062 330.100585938 c 132
 541.166992188 327.369140625 537.8671875 326.002929688 534 326.002929688 c 132
494 326.002929688 m 132
 490.1328125 326.002929688 486.833007812 327.369140625 484.100585938 330.100585938 c 132
 481.369140625 332.833007812 480.002929688 336.1328125 480.002929688 340 c 132
 480.002929688 343.8671875 481.369140625 347.166992188 484.100585938 349.899414062 c 132
 486.833007812 352.630859375 490.1328125 353.997070312 494 353.997070312 c 132
 497.8671875 353.997070312 501.166992188 352.630859375 503.899414062 349.899414062 c 132
 506.630859375 347.166992188 507.997070312 343.8671875 507.997070312 340 c 132
 507.997070312 336.1328125 506.630859375 332.833007812 503.899414062 330.100585938 c 132
 501.166992188 327.369140625 497.8671875 326.002929688 494 326.002929688 c 132
454 326.002929688 m 132
 450.1328125 326.002929688 446.833007812 327.369140625 444.100585938 330.100585938 c 132
 441.369140625 332.833007812 440.002929688 336.1328125 440.002929688 340 c 132
 440.002929688 343.8671875 441.369140625 347.166992188 444.100585938 349.899414062 c 132
 446.833007812 352.630859375 450.1328125 353.997070312 454 353.997070312 c 132
 457.8671875 353.997070312 461.166992188 352.630859375 463.899414062 349.899414062 c 132
 466.630859375 347.166992188 467.997070312 343.8671875 467.997070312 340 c 132
 467.997070312 336.1328125 466.630859375 332.833007812 463.899414062 330.100585938 c 132
 461.166992188 327.369140625 457.8671875 326.002929688 454 326.002929688 c 132
414 326.002929688 m 132
 410.1328125 326.002929688 406.833007812 327.369140625 404.100585938 330.100585938 c 132
 401.369140625 332.833007812 400.002929688 336.1328125 400.002929688 340 c 132
 400.002929688 343.8671875 401.369140625 347.166992188 404.100585938 349.899414062 c 132
 406.833007812 352.630859375 410.1328125 353.997070312 414 353.997070312 c 132
 417.8671875 353.997070312 421.166992188 352.630859375 423.899414062 349.899414062 c 132
 426.630859375 347.166992188 427.997070312 343.8671875 427.997070312 340 c 132
 427.997070312 336.1328125 426.630859375 332.833007812 423.899414062 330.100585938 c 132
 421.166992188 327.369140625 417.8671875 326.002929688 414 326.002929688 c 132
374 326.002929688 m 132
 370.1328125 326.002929688 366.833007812 327.369140625 364.100585938 330.100585938 c 132
 361.369140625 332.833007812 360.002929688 336.1328125 360.002929688 340 c 132
 360.002929688 343.8671875 361.369140625 347.166992188 364.100585938 349.899414062 c 132
 366.833007812 352.630859375 370.1328125 353.997070312 374 353.997070312 c 132
 377.8671875 353.997070312 381.166992188 352.630859375 383.899414062 349.899414062 c 132
 386.630859375 347.166992188 387.997070312 343.8671875 387.997070312 340 c 132
 387.997070312 336.1328125 386.630859375 332.833007812 383.899414062 330.100585938 c 132
 381.166992188 327.369140625 377.8671875 326.002929688 374 326.002929688 c 132
334 326.002929688 m 132
 330.1328125 326.002929688 326.833007812 327.369140625 324.100585938 330.100585938 c 132
 321.369140625 332.833007812 320.002929688 336.1328125 320.002929688 340 c 132
 320.002929688 343.8671875 321.369140625 347.166992188 324.100585938 349.899414062 c 132
 326.833007812 352.630859375 330.1328125 353.997070312 334 353.997070312 c 132
 337.8671875 353.997070312 341.166992188 352.630859375 343.899414062 349.899414062 c 132
 346.630859375 347.166992188 347.997070312 343.8671875 347.997070312 340 c 132
 347.997070312 336.1328125 346.630859375 332.833007812 343.899414062 330.100585938 c 132
 341.166992188 327.369140625 337.8671875 326.002929688 334 326.002929688 c 132
294 326.002929688 m 132
 290.1328125 326.002929688 286.833007812 327.369140625 284.100585938 330.100585938 c 132
 281.369140625 332.833007812 280.002929688 336.1328125 280.002929688 340 c 132
 280.002929688 343.8671875 281.369140625 347.166992188 284.100585938 349.899414062 c 132
 286.833007812 352.630859375 290.1328125 353.997070312 294 353.997070312 c 132
 297.8671875 353.997070312 301.166992188 352.630859375 303.899414062 349.899414062 c 132
 306.630859375 347.166992188 307.997070312 343.8671875 307.997070312 340 c 132
 307.997070312 336.1328125 306.630859375 332.833007812 303.899414062 330.100585938 c 132
 301.166992188 327.369140625 297.8671875 326.002929688 294 326.002929688 c 132
254 326.002929688 m 132
 250.1328125 326.002929688 246.833007812 327.369140625 244.100585938 330.100585938 c 132
 241.369140625 332.833007812 240.002929688 336.1328125 240.002929688 340 c 132
 240.002929688 343.8671875 241.369140625 347.166992188 244.100585938 349.899414062 c 132
 246.833007812 352.630859375 250.1328125 353.997070312 254 353.997070312 c 132
 257.8671875 353.997070312 261.166992188 352.630859375 263.899414062 349.899414062 c 132
 266.630859375 347.166992188 267.997070312 343.8671875 267.997070312 340 c 132
 267.997070312 336.1328125 266.630859375 332.833007812 263.899414062 330.100585938 c 132
 261.166992188 327.369140625 257.8671875 326.002929688 254 326.002929688 c 132
214 326.002929688 m 132
 210.1328125 326.002929688 206.833007812 327.369140625 204.100585938 330.100585938 c 132
 201.369140625 332.833007812 200.002929688 336.1328125 200.002929688 340 c 132
 200.002929688 343.8671875 201.369140625 347.166992188 204.100585938 349.899414062 c 132
 206.833007812 352.630859375 210.1328125 353.997070312 214 353.997070312 c 132
 217.8671875 353.997070312 221.166992188 352.630859375 223.899414062 349.899414062 c 132
 226.630859375 347.166992188 227.997070312 343.8671875 227.997070312 340 c 132
 227.997070312 336.1328125 226.630859375 332.833007812 223.899414062 330.100585938 c 132
 221.166992188 327.369140625 217.8671875 326.002929688 214 326.002929688 c 132
174 326.002929688 m 132
 170.1328125 326.002929688 166.833007812 327.369140625 164.100585938 330.100585938 c 132
 161.369140625 332.833007812 160.002929688 336.1328125 160.002929688 340 c 132
 160.002929688 343.8671875 161.369140625 347.166992188 164.100585938 349.899414062 c 132
 166.833007812 352.630859375 170.1328125 353.997070312 174 353.997070312 c 132
 177.8671875 353.997070312 181.166992188 352.630859375 183.899414062 349.899414062 c 132
 186.630859375 347.166992188 187.997070312 343.8671875 187.997070312 340 c 132
 187.997070312 336.1328125 186.630859375 332.833007812 183.899414062 330.100585938 c 132
 181.166992188 327.369140625 177.8671875 326.002929688 174 326.002929688 c 132
134 326.002929688 m 132
 130.1328125 326.002929688 126.833007812 327.369140625 124.100585938 330.100585938 c 132
 121.369140625 332.833007812 120.002929688 336.1328125 120.002929688 340 c 132
 120.002929688 343.8671875 121.369140625 347.166992188 124.100585938 349.899414062 c 132
 126.833007812 352.630859375 130.1328125 353.997070312 134 353.997070312 c 132
 137.8671875 353.997070312 141.166992188 352.630859375 143.899414062 349.899414062 c 132
 146.630859375 347.166992188 147.997070312 343.8671875 147.997070312 340 c 132
 147.997070312 336.1328125 146.630859375 332.833007812 143.899414062 330.100585938 c 132
 141.166992188 327.369140625 137.8671875 326.002929688 134 326.002929688 c 132
94 326.002929688 m 132
 90.1328125 326.002929688 86.8330078125 327.369140625 84.1005859375 330.100585938 c 132
 81.369140625 332.833007812 80.0029296875 336.1328125 80.0029296875 340 c 132
 80.0029296875 343.8671875 81.369140625 347.166992188 84.1005859375 349.899414062 c 132
 86.8330078125 352.630859375 90.1328125 353.997070312 94 353.997070312 c 132
 97.8671875 353.997070312 101.166992188 352.630859375 103.899414062 349.899414062 c 132
 106.630859375 347.166992188 107.997070312 343.8671875 107.997070312 340 c 132
 107.997070312 336.1328125 106.630859375 332.833007812 103.899414062 330.100585938 c 132
 101.166992188 327.369140625 97.8671875 326.002929688 94 326.002929688 c 132
54 326.002929688 m 132
 50.1328125 326.002929688 46.8330078125 327.369140625 44.1005859375 330.100585938 c 132
 41.369140625 332.833007812 40.0029296875 336.1328125 40.0029296875 340 c 132
 40.0029296875 343.8671875 41.369140625 347.166992188 44.1005859375 349.899414062 c 132
 46.8330078125 352.630859375 50.1328125 353.997070312 54 353.997070312 c 132
 57.8671875 353.997070312 61.1669921875 352.630859375 63.8994140625 349.899414062 c 132
 66.630859375 347.166992188 67.9970703125 343.8671875 67.9970703125 340 c 132
 67.9970703125 336.1328125 66.630859375 332.833007812 63.8994140625 330.100585938 c 132
 61.1669921875 327.369140625 57.8671875 326.002929688 54 326.002929688 c 132
14 326.002929688 m 132
 10.1328125 326.002929688 6.8330078125 327.369140625 4.1005859375 330.100585938 c 132
 1.369140625 332.833007812 0.0029296875 336.1328125 0.0029296875 340 c 132
 0.0029296875 343.8671875 1.369140625 347.166992188 4.1005859375 349.899414062 c 132
 6.8330078125 352.630859375 10.1328125 353.997070312 14 353.997070312 c 132
 17.8671875 353.997070312 21.1669921875 352.630859375 23.8994140625 349.899414062 c 132
 26.630859375 347.166992188 27.9970703125 343.8671875 27.9970703125 340 c 132
 27.9970703125 336.1328125 26.630859375 332.833007812 23.8994140625 330.100585938 c 132
 21.1669921875 327.369140625 17.8671875 326.002929688 14 326.002929688 c 132
EndSplineSet
Fore
SplineSet
575 -682 m 128,-1,1
 575 -674 575 -674 583 -674 c 128,-1,2
 591 -674 591 -674 591 -682 c 128,-1,3
 591 -690 591 -690 583 -690 c 128,-1,0
 575 -690 575 -690 575 -682 c 128,-1,1
550 -682 m 128,-1,5
 550 -674 550 -674 558 -674 c 128,-1,6
 566 -674 566 -674 566 -682 c 128,-1,7
 566 -690 566 -690 558 -690 c 128,-1,4
 550 -690 550 -690 550 -682 c 128,-1,5
525 -682 m 128,-1,9
 525 -674 525 -674 533 -674 c 128,-1,10
 541 -674 541 -674 541 -682 c 128,-1,11
 541 -690 541 -690 533 -690 c 128,-1,8
 525 -690 525 -690 525 -682 c 128,-1,9
500 -682 m 128,-1,13
 500 -674 500 -674 508 -674 c 128,-1,14
 516 -674 516 -674 516 -682 c 128,-1,15
 516 -690 516 -690 508 -690 c 128,-1,12
 500 -690 500 -690 500 -682 c 128,-1,13
475 -682 m 128,-1,17
 475 -674 475 -674 483 -674 c 128,-1,18
 491 -674 491 -674 491 -682 c 128,-1,19
 491 -690 491 -690 483 -690 c 128,-1,16
 475 -690 475 -690 475 -682 c 128,-1,17
450 -682 m 128,-1,21
 450 -674 450 -674 458 -674 c 128,-1,22
 466 -674 466 -674 466 -682 c 128,-1,23
 466 -690 466 -690 458 -690 c 128,-1,20
 450 -690 450 -690 450 -682 c 128,-1,21
425 -682 m 128,-1,25
 425 -674 425 -674 433 -674 c 128,-1,26
 441 -674 441 -674 441 -682 c 128,-1,27
 441 -690 441 -690 433 -690 c 128,-1,24
 425 -690 425 -690 425 -682 c 128,-1,25
400 -682 m 128,-1,29
 400 -674 400 -674 408 -674 c 128,-1,30
 416 -674 416 -674 416 -682 c 128,-1,31
 416 -690 416 -690 408 -690 c 128,-1,28
 400 -690 400 -690 400 -682 c 128,-1,29
375 -682 m 128,-1,33
 375 -674 375 -674 383 -674 c 128,-1,34
 391 -674 391 -674 391 -682 c 128,-1,35
 391 -690 391 -690 383 -690 c 128,-1,32
 375 -690 375 -690 375 -682 c 128,-1,33
350 -682 m 128,-1,37
 350 -674 350 -674 358 -674 c 128,-1,38
 366 -674 366 -674 366 -682 c 128,-1,39
 366 -690 366 -690 358 -690 c 128,-1,36
 350 -690 350 -690 350 -682 c 128,-1,37
325 -682 m 128,-1,41
 325 -674 325 -674 333 -674 c 128,-1,42
 341 -674 341 -674 341 -682 c 128,-1,43
 341 -690 341 -690 333 -690 c 128,-1,40
 325 -690 325 -690 325 -682 c 128,-1,41
300 -682 m 128,-1,45
 300 -674 300 -674 308 -674 c 128,-1,46
 316 -674 316 -674 316 -682 c 128,-1,47
 316 -690 316 -690 308 -690 c 128,-1,44
 300 -690 300 -690 300 -682 c 128,-1,45
275 -682 m 128,-1,49
 275 -674 275 -674 283 -674 c 128,-1,50
 291 -674 291 -674 291 -682 c 128,-1,51
 291 -690 291 -690 283 -690 c 128,-1,48
 275 -690 275 -690 275 -682 c 128,-1,49
250 -682 m 128,-1,53
 250 -674 250 -674 258 -674 c 128,-1,54
 266 -674 266 -674 266 -682 c 128,-1,55
 266 -690 266 -690 258 -690 c 128,-1,52
 250 -690 250 -690 250 -682 c 128,-1,53
225 -682 m 128,-1,57
 225 -674 225 -674 233 -674 c 128,-1,58
 241 -674 241 -674 241 -682 c 128,-1,59
 241 -690 241 -690 233 -690 c 128,-1,56
 225 -690 225 -690 225 -682 c 128,-1,57
200 -682 m 128,-1,61
 200 -674 200 -674 208 -674 c 128,-1,62
 216 -674 216 -674 216 -682 c 128,-1,63
 216 -690 216 -690 208 -690 c 128,-1,60
 200 -690 200 -690 200 -682 c 128,-1,61
175 -682 m 128,-1,65
 175 -674 175 -674 183 -674 c 128,-1,66
 191 -674 191 -674 191 -682 c 128,-1,67
 191 -690 191 -690 183 -690 c 128,-1,64
 175 -690 175 -690 175 -682 c 128,-1,65
150 -682 m 128,-1,69
 150 -674 150 -674 158 -674 c 128,-1,70
 166 -674 166 -674 166 -682 c 128,-1,71
 166 -690 166 -690 158 -690 c 128,-1,68
 150 -690 150 -690 150 -682 c 128,-1,69
125 -682 m 128,-1,73
 125 -674 125 -674 133 -674 c 128,-1,74
 141 -674 141 -674 141 -682 c 128,-1,75
 141 -690 141 -690 133 -690 c 128,-1,72
 125 -690 125 -690 125 -682 c 128,-1,73
100 -682 m 128,-1,77
 100 -674 100 -674 108 -674 c 128,-1,78
 116 -674 116 -674 116 -682 c 128,-1,79
 116 -690 116 -690 108 -690 c 128,-1,76
 100 -690 100 -690 100 -682 c 128,-1,77
75 -682 m 128,-1,81
 75 -674 75 -674 83 -674 c 128,-1,82
 91 -674 91 -674 91 -682 c 128,-1,83
 91 -690 91 -690 83 -690 c 128,-1,80
 75 -690 75 -690 75 -682 c 128,-1,81
50 -682 m 128,-1,85
 50 -674 50 -674 58 -674 c 128,-1,86
 66 -674 66 -674 66 -682 c 128,-1,87
 66 -690 66 -690 58 -690 c 128,-1,84
 50 -690 50 -690 50 -682 c 128,-1,85
25 -682 m 128,-1,89
 25 -674 25 -674 33 -674 c 128,-1,90
 41 -674 41 -674 41 -682 c 128,-1,91
 41 -690 41 -690 33 -690 c 128,-1,88
 25 -690 25 -690 25 -682 c 128,-1,89
0 -682 m 128,-1,93
 0 -674 0 -674 8 -674 c 128,-1,94
 16 -674 16 -674 16 -682 c 128,-1,95
 16 -690 16 -690 8 -690 c 128,-1,92
 0 -690 0 -690 0 -682 c 128,-1,93
575 1364 m 128,-1,97
 575 1372 575 1372 583 1372 c 128,-1,98
 591 1372 591 1372 591 1364 c 128,-1,99
 591 1356 591 1356 583 1356 c 128,-1,96
 575 1356 575 1356 575 1364 c 128,-1,97
550 1364 m 128,-1,101
 550 1372 550 1372 558 1372 c 128,-1,102
 566 1372 566 1372 566 1364 c 128,-1,103
 566 1356 566 1356 558 1356 c 128,-1,100
 550 1356 550 1356 550 1364 c 128,-1,101
525 1364 m 128,-1,105
 525 1372 525 1372 533 1372 c 128,-1,106
 541 1372 541 1372 541 1364 c 128,-1,107
 541 1356 541 1356 533 1356 c 128,-1,104
 525 1356 525 1356 525 1364 c 128,-1,105
500 1364 m 128,-1,109
 500 1372 500 1372 508 1372 c 128,-1,110
 516 1372 516 1372 516 1364 c 128,-1,111
 516 1356 516 1356 508 1356 c 128,-1,108
 500 1356 500 1356 500 1364 c 128,-1,109
475 1364 m 128,-1,113
 475 1372 475 1372 483 1372 c 128,-1,114
 491 1372 491 1372 491 1364 c 128,-1,115
 491 1356 491 1356 483 1356 c 128,-1,112
 475 1356 475 1356 475 1364 c 128,-1,113
450 1364 m 128,-1,117
 450 1372 450 1372 458 1372 c 128,-1,118
 466 1372 466 1372 466 1364 c 128,-1,119
 466 1356 466 1356 458 1356 c 128,-1,116
 450 1356 450 1356 450 1364 c 128,-1,117
425 1364 m 128,-1,121
 425 1372 425 1372 433 1372 c 128,-1,122
 441 1372 441 1372 441 1364 c 128,-1,123
 441 1356 441 1356 433 1356 c 128,-1,120
 425 1356 425 1356 425 1364 c 128,-1,121
400 1364 m 128,-1,125
 400 1372 400 1372 408 1372 c 128,-1,126
 416 1372 416 1372 416 1364 c 128,-1,127
 416 1356 416 1356 408 1356 c 128,-1,124
 400 1356 400 1356 400 1364 c 128,-1,125
375 1364 m 128,-1,129
 375 1372 375 1372 383 1372 c 128,-1,130
 391 1372 391 1372 391 1364 c 128,-1,131
 391 1356 391 1356 383 1356 c 128,-1,128
 375 1356 375 1356 375 1364 c 128,-1,129
350 1364 m 128,-1,133
 350 1372 350 1372 358 1372 c 128,-1,134
 366 1372 366 1372 366 1364 c 128,-1,135
 366 1356 366 1356 358 1356 c 128,-1,132
 350 1356 350 1356 350 1364 c 128,-1,133
325 1364 m 128,-1,137
 325 1372 325 1372 333 1372 c 128,-1,138
 341 1372 341 1372 341 1364 c 128,-1,139
 341 1356 341 1356 333 1356 c 128,-1,136
 325 1356 325 1356 325 1364 c 128,-1,137
300 1364 m 128,-1,141
 300 1372 300 1372 308 1372 c 128,-1,142
 316 1372 316 1372 316 1364 c 128,-1,143
 316 1356 316 1356 308 1356 c 128,-1,140
 300 1356 300 1356 300 1364 c 128,-1,141
275 1364 m 128,-1,145
 275 1372 275 1372 283 1372 c 128,-1,146
 291 1372 291 1372 291 1364 c 128,-1,147
 291 1356 291 1356 283 1356 c 128,-1,144
 275 1356 275 1356 275 1364 c 128,-1,145
250 1364 m 128,-1,149
 250 1372 250 1372 258 1372 c 128,-1,150
 266 1372 266 1372 266 1364 c 128,-1,151
 266 1356 266 1356 258 1356 c 128,-1,148
 250 1356 250 1356 250 1364 c 128,-1,149
225 1364 m 128,-1,153
 225 1372 225 1372 233 1372 c 128,-1,154
 241 1372 241 1372 241 1364 c 128,-1,155
 241 1356 241 1356 233 1356 c 128,-1,152
 225 1356 225 1356 225 1364 c 128,-1,153
200 1364 m 128,-1,157
 200 1372 200 1372 208 1372 c 128,-1,158
 216 1372 216 1372 216 1364 c 128,-1,159
 216 1356 216 1356 208 1356 c 128,-1,156
 200 1356 200 1356 200 1364 c 128,-1,157
175 1364 m 128,-1,161
 175 1372 175 1372 183 1372 c 128,-1,162
 191 1372 191 1372 191 1364 c 128,-1,163
 191 1356 191 1356 183 1356 c 128,-1,160
 175 1356 175 1356 175 1364 c 128,-1,161
150 1364 m 128,-1,165
 150 1372 150 1372 158 1372 c 128,-1,166
 166 1372 166 1372 166 1364 c 128,-1,167
 166 1356 166 1356 158 1356 c 128,-1,164
 150 1356 150 1356 150 1364 c 128,-1,165
125 1364 m 128,-1,169
 125 1372 125 1372 133 1372 c 128,-1,170
 141 1372 141 1372 141 1364 c 128,-1,171
 141 1356 141 1356 133 1356 c 128,-1,168
 125 1356 125 1356 125 1364 c 128,-1,169
100 1364 m 128,-1,173
 100 1372 100 1372 108 1372 c 128,-1,174
 116 1372 116 1372 116 1364 c 128,-1,175
 116 1356 116 1356 108 1356 c 128,-1,172
 100 1356 100 1356 100 1364 c 128,-1,173
75 1364 m 128,-1,177
 75 1372 75 1372 83 1372 c 128,-1,178
 91 1372 91 1372 91 1364 c 128,-1,179
 91 1356 91 1356 83 1356 c 128,-1,176
 75 1356 75 1356 75 1364 c 128,-1,177
50 1364 m 128,-1,181
 50 1372 50 1372 58 1372 c 128,-1,182
 66 1372 66 1372 66 1364 c 128,-1,183
 66 1356 66 1356 58 1356 c 128,-1,180
 50 1356 50 1356 50 1364 c 128,-1,181
25 1364 m 128,-1,185
 25 1372 25 1372 33 1372 c 128,-1,186
 41 1372 41 1372 41 1364 c 128,-1,187
 41 1356 41 1356 33 1356 c 128,-1,184
 25 1356 25 1356 25 1364 c 128,-1,185
0 1364 m 128,-1,189
 0 1372 0 1372 8 1372 c 128,-1,190
 16 1372 16 1372 16 1364 c 128,-1,191
 16 1356 16 1356 8 1356 c 128,-1,188
 0 1356 0 1356 0 1364 c 128,-1,189
559.686523438 341 m 1,192,-1
 571 352.313476562 l 1,193,-1
 582.313476562 341 l 1,194,-1
 571 329.686523438 l 1,195,-1
 559.686523438 341 l 1,192,-1
519.686523438 341 m 1,196,-1
 531 352.313476562 l 1,197,-1
 542.313476562 341 l 1,198,-1
 531 329.686523438 l 1,199,-1
 519.686523438 341 l 1,196,-1
479.686523438 341 m 1,200,-1
 491 352.313476562 l 1,201,-1
 502.313476562 341 l 1,202,-1
 491 329.686523438 l 1,203,-1
 479.686523438 341 l 1,200,-1
439.686523438 341 m 1,204,-1
 451 352.313476562 l 1,205,-1
 462.313476562 341 l 1,206,-1
 451 329.686523438 l 1,207,-1
 439.686523438 341 l 1,204,-1
399.686523438 341 m 1,208,-1
 411 352.313476562 l 1,209,-1
 422.313476562 341 l 1,210,-1
 411 329.686523438 l 1,211,-1
 399.686523438 341 l 1,208,-1
359.686523438 341 m 1,212,-1
 371 352.313476562 l 1,213,-1
 382.313476562 341 l 1,214,-1
 371 329.686523438 l 1,215,-1
 359.686523438 341 l 1,212,-1
319.686523438 341 m 1,216,-1
 331 352.313476562 l 1,217,-1
 342.313476562 341 l 1,218,-1
 331 329.686523438 l 1,219,-1
 319.686523438 341 l 1,216,-1
279.686523438 341 m 1,220,-1
 291 352.313476562 l 1,221,-1
 302.313476562 341 l 1,222,-1
 291 329.686523438 l 1,223,-1
 279.686523438 341 l 1,220,-1
239.686523438 341 m 1,224,-1
 251 352.313476562 l 1,225,-1
 262.313476562 341 l 1,226,-1
 251 329.686523438 l 1,227,-1
 239.686523438 341 l 1,224,-1
199.686523438 341 m 1,228,-1
 211 352.313476562 l 1,229,-1
 222.313476562 341 l 1,230,-1
 211 329.686523438 l 1,231,-1
 199.686523438 341 l 1,228,-1
159.686523438 341 m 1,232,-1
 171 352.313476562 l 1,233,-1
 182.313476562 341 l 1,234,-1
 171 329.686523438 l 1,235,-1
 159.686523438 341 l 1,232,-1
119.686523438 341 m 1,236,-1
 131 352.313476562 l 1,237,-1
 142.313476562 341 l 1,238,-1
 131 329.686523438 l 1,239,-1
 119.686523438 341 l 1,236,-1
79.6865234375 341 m 1,240,-1
 91 352.313476562 l 1,241,-1
 102.313476562 341 l 1,242,-1
 91 329.686523438 l 1,243,-1
 79.6865234375 341 l 1,240,-1
39.6865234375 341 m 1,244,-1
 51 352.313476562 l 1,245,-1
 62.3134765625 341 l 1,246,-1
 51 329.686523438 l 1,247,-1
 39.6865234375 341 l 1,244,-1
-0.3134765625 341 m 1,248,-1
 11 352.313476562 l 1,249,-1
 22.3134765625 341 l 1,250,-1
 11 329.686523438 l 1,251,-1
 -0.3134765625 341 l 1,248,-1
525 690 m 1,252,-1
 571 690 l 1,253,-1
 571 674 l 1,254,-1
 525 674 l 1,255,-1
 525 690 l 1,252,-1
450 690 m 1,256,-1
 496 690 l 1,257,-1
 496 674 l 1,258,-1
 450 674 l 1,259,-1
 450 690 l 1,256,-1
375 690 m 1,260,-1
 421 690 l 1,261,-1
 421 674 l 1,262,-1
 375 674 l 1,263,-1
 375 690 l 1,260,-1
300 690 m 1,264,-1
 346 690 l 1,265,-1
 346 674 l 1,266,-1
 300 674 l 1,267,-1
 300 690 l 1,264,-1
225 690 m 1,268,-1
 271 690 l 1,269,-1
 271 674 l 1,270,-1
 225 674 l 1,271,-1
 225 690 l 1,268,-1
150 690 m 1,272,-1
 196 690 l 1,273,-1
 196 674 l 1,274,-1
 150 674 l 1,275,-1
 150 690 l 1,272,-1
75 690 m 1,276,-1
 121 690 l 1,277,-1
 121 674 l 1,278,-1
 75 674 l 1,279,-1
 75 690 l 1,276,-1
0 690 m 1,280,-1
 46 690 l 1,281,-1
 46 674 l 1,282,-1
 0 674 l 1,283,-1
 0 690 l 1,280,-1
0 14 m 1,284,-1
 602 14 l 5,285,-1
 602 -14 l 5,286,-1
 0 -14 l 1,287,-1
 0 14 l 1,284,-1
EndSplineSet
Validated: 1
EndChar

StartChar: cces
Encoding: 57374 57374 52
Width: 0
VWidth: 1540
LayerCount: 3
Back
SplineSet
-227.947265625 487.490234375 m 0
 -315.213867188 487.490234375 -386.682617188 382.920898438 -386.682617188 255.782226562 c 0
 -386.682617188 128.643554688 -315.213867188 25.578125 -227.947265625 25.578125 c 1024
26.5693359375 103.337890625 m 0
 35.66015625 87.931640625 47.330078125 74.048828125 60.966796875 62.4736328125 c 0
 74.5771484375 50.9208984375 90.1591796875 41.6806640625 106.875 35.416015625 c 0
 124.129882812 28.9482421875 142.564453125 25.666015625 160.9921875 25.6865234375 c 0
 188.913085938 25.7158203125 216.796875 33.376953125 240.779296875 47.6728515625 c 0
 264.317382812 61.705078125 283.986328125 82.068359375 297.506835938 105.903320312 c 0
 311.6328125 130.805664062 319.079101562 159.444335938 318.975585938 188.075195312 c 0
 318.91015625 225.138671875 318.884765625 262.202148438 318.888671875 299.266601562 c 0
 318.892578125 328.942382812 318.913085938 358.618164062 318.932617188 388.293945312 c 0
 318.953125 421.359375 318.969726562 454.424804688 318.975585938 487.490234375 c 1024
  Spiro
    26.5693 103.337 {
    60.9671 62.4734 o
    106.875 35.4157 o
    160.992 25.6862 o
    240.78 47.6733 o
    297.507 105.903 o
    318.975 188.075 v
    318.889 299.266 o
    318.932 388.294 o
    318.975 487.49 o
    0 0 z
  EndSpiro
EndSplineSet
Fore
Validated: 1
EndChar

StartChar: ccgs
Encoding: 57398 57398 53
Width: 2048
LayerCount: 3
Back
SplineSet
-19.5595703125 -13.541015625 m 4
 22.650390625 37.6123046875 51.431640625 74.373046875 114.349609375 133.87890625 c 6
 488.243164062 487.490234375 l 1029
EndSplineSet
Fore
Validated: 1
EndChar

StartChar: ccvs
Encoding: 57386 57386 54
Width: 2048
LayerCount: 3
Back
SplineSet
-540.903320312 487.490234375 m 7
 -497.270507812 487.490234375 -484.481445312 451.379882812 -484.481445312 410.755859375 c 4
 -483.728515625 410.755859375 -484.481445312 128.643554688 -484.481445312 128.643554688 c 4
 -484.481445312 71.46875 -445.361328125 25.578125 -383.672851562 25.578125 c 7
 -276.846679688 25.578125 -167.762695312 163.252929688 -167.762695312 330.259765625 c 7
 -167.762695312 406.275390625 -188.075195312 464.168945312 -205.377929688 487.490234375 c 1028
EndSplineSet
Fore
Validated: 1
EndChar

StartChar: ccos
Encoding: 57362 57362 55
Width: 2048
LayerCount: 3
Back
SplineSet
-473.196289062 255.782226562 m 0
 -473.196289062 382.920898438 -401.728515625 487.490234375 -314.4609375 487.490234375 c 0
 -227.194335938 487.490234375 -155.7265625 383.672851562 -155.7265625 256.534179688 c 0
 -155.7265625 159.6484375 -197.228515625 76.306640625 -255.598632812 42.12890625 c 0
 -273.825195312 31.4560546875 -293.696289062 25.578125 -314.4609375 25.578125 c 0
 -401.728515625 25.578125 -473.196289062 128.643554688 -473.196289062 255.782226562 c 0
EndSplineSet
Fore
Validated: 1
EndChar

StartChar: css
Encoding: 57542 57542 56
Width: 2048
LayerCount: 3
Back
SplineSet
-120.44140625 25.578125 m 7
 -99.6181640625 25.578125 -76.28515625 38.09375 -63.2666015625 50.404296875 c 6
 387.360351562 487.490234375 l 1029
EndSplineSet
Fore
Validated: 1
EndChar

StartChar: ccsi
Encoding: 57404 57404 57
Width: 0
VWidth: 1540
LayerCount: 3
Back
SplineSet
-319.48828125 80.7685546875 m 5
 -285.874023438 33.1015625 -250.515625 25.6865234375 -205.377929688 25.6865234375 c 1028
EndSplineSet
Fore
Validated: 1
EndChar

StartChar: ccsn
Encoding: 57405 57405 58
Width: 2048
LayerCount: 3
Back
SplineSet
-319.48828125 80.7685546875 m 5
 -285.874023438 33.1015625 -250.515625 25.6865234375 -205.377929688 25.6865234375 c 1028
EndSplineSet
Fore
Validated: 1
EndChar

StartChar: ccsh
Encoding: 57406 57406 59
Width: 0
VWidth: 1540
LayerCount: 3
Back
SplineSet
-319.48828125 80.7685546875 m 5
 -285.874023438 33.1015625 -250.515625 25.6865234375 -205.377929688 25.6865234375 c 1028
EndSplineSet
Fore
Validated: 1
EndChar

StartChar: ccso
Encoding: 57407 57407 60
Width: 0
VWidth: 1540
LayerCount: 3
Back
SplineSet
-319.48828125 80.7685546875 m 5
 -285.874023438 33.1015625 -250.515625 25.6865234375 -205.377929688 25.6865234375 c 1028
460.068359375 442.362304688 m 1025
271.49609375 441.134765625 m 1
 298.013671875 470.201171875 330.885742188 487.490234375 366.370117188 487.490234375 c 0
 401.47265625 487.490234375 434.01953125 470.692382812 460.385742188 442.3359375 c 1025
460.385742188 442.3359375 m 1
 499.568359375 400.197265625 525.10546875 332.532226562 525.10546875 256.534179688 c 0
 525.10546875 159.6484375 483.602539062 76.306640625 425.233398438 42.12890625 c 0
 407.006835938 31.4560546875 387.135742188 25.578125 366.370117188 25.578125 c 0
 279.103515625 25.578125 207.634765625 128.643554688 207.634765625 255.782226562 c 0
 207.634765625 331.223632812 232.798828125 398.71875 271.49609375 441.134765625 c 1025
EndSplineSet
Fore
Validated: 1
EndChar

StartChar: ccsa
Encoding: 57408 57408 61
Width: 0
VWidth: 1540
LayerCount: 3
Back
SplineSet
571.748046875 25.578125 m 3
 528.114257812 25.578125 515.325195312 62.4404296875 515.325195312 103.065429688 c 0
 515.325195312 104.12890625 515.325195312 487.490234375 515.325195312 487.490234375 c 1049
515.325195312 412.260742188 m 4
 493.508789062 440.84765625 445.361328125 487.490234375 384.42578125 487.490234375 c 4
 271.881835938 487.490234375 198.532226562 381.416015625 198.532226562 255.782226562 c 4
 198.532226562 128.643554688 277.147460938 25.578125 373.140625 25.578125 c 0
 451.379882812 25.578125 515.325195312 109.8125 515.325195312 217.415039062 c 1024
-319.48828125 80.7685546875 m 1
 -285.874023438 33.1015625 -250.515625 25.6865234375 -205.377929688 25.6865234375 c 1024
EndSplineSet
Fore
Validated: 1
EndChar

StartChar: ccse
Encoding: 57409 57409 62
Width: 0
VWidth: 1540
LayerCount: 3
Back
SplineSet
-319.48828125 80.7685546875 m 5
 -285.874023438 33.1015625 -250.515625 25.6865234375 -205.377929688 25.6865234375 c 1028
EndSplineSet
Fore
Validated: 1
EndChar

StartChar: ccss
Encoding: 57410 57410 63
Width: 2048
LayerCount: 3
Back
SplineSet
-319.48828125 80.7685546875 m 5
 -285.874023438 33.1015625 -250.515625 25.6865234375 -205.377929688 25.6865234375 c 1028
EndSplineSet
Fore
Validated: 1
EndChar

StartChar: ccpi
Encoding: 57416 57416 64
Width: 2048
LayerCount: 3
Back
SplineSet
-447.618164062 487.490234375 m 4
 -447.618164062 486.426757812 -446.866210938 -488.243164062 -447.618164062 -487.490234375 c 1029
-447.618164062 25.578125 m 4
 -408.0390625 25.578125 -464.921875 25.578125 -407.747070312 25.578125 c 7
 -225.633789062 25.578125 -130.900390625 179.047851562 -130.900390625 332.516601562 c 7
 -130.900390625 431.8203125 -174.533203125 487.490234375 -231.708007812 487.490234375 c 7
 -338.53515625 487.490234375 -447.618164062 337.030273438 -447.618164062 256.534179688 c 1028
EndSplineSet
Fore
Validated: 1
EndChar

StartChar: ccpn
Encoding: 57417 57417 65
Width: 2048
LayerCount: 3
Back
SplineSet
-449.12109375 487.490234375 m 0
 -449.12109375 486.426757812 -448.368164062 -488.243164062 -449.12109375 -487.490234375 c 1025
-449.12109375 25.578125 m 4
 -409.541015625 25.578125 -466.423828125 25.578125 -409.249023438 25.578125 c 3
 -227.13671875 25.578125 -132.40234375 179.047851562 -132.40234375 332.516601562 c 3
 -132.40234375 431.8203125 -176.036132812 487.490234375 -233.2109375 487.490234375 c 3
 -340.037109375 487.490234375 -449.12109375 337.030273438 -449.12109375 256.534179688 c 1024
-447.616210938 25.578125 m 1
 -409.249023438 26.0595703125 l 1026
EndSplineSet
Fore
Validated: 1
EndChar

StartChar: ccpo
Encoding: 57419 57419 66
Width: 2048
LayerCount: 3
Back
SplineSet
497.68359375 442.362304688 m 1029
324.630859375 456.170898438 m 5
 348.014648438 476.0625 375.13671875 487.490234375 403.985351562 487.490234375 c 4
 439.00390625 487.490234375 471.477539062 470.7734375 497.811523438 442.540039062 c 1029
497.811523438 442.540039062 m 5
 537.1015625 400.415039062 562.720703125 332.654296875 562.720703125 256.534179688 c 0
 562.720703125 159.6484375 521.217773438 76.306640625 462.848632812 42.12890625 c 0
 444.622070312 31.4560546875 424.750976562 25.578125 403.985351562 25.578125 c 0
 316.71875 25.578125 245.25 128.643554688 245.25 255.782226562 c 0
 245.25 340.891601562 277.27734375 415.887695312 324.630859375 456.170898438 c 1029
EndSplineSet
Fore
Validated: 1
EndChar

StartChar: ccpa
Encoding: 57420 57420 67
Width: 2048
LayerCount: 3
Back
SplineSet
552.940429688 487.490234375 m 7
 530.510742188 487.490234375 526.043945312 487.490234375 513.068359375 487.490234375 c 7
 446.591796875 487.490234375 391.758789062 467.041015625 348.92578125 433.607421875 c 1029
348.92578125 433.607421875 m 1029
347.477539062 431.8203125 m 5
 5.93359375 145.194335938 l 6
 -106.8671875 50.53125 -228.506835938 26.8935546875 -294.987304688 26.0595703125 c 6
 -333.354492188 25.578125 l 1029
EndSplineSet
Fore
Validated: 1
EndChar

StartChar: ccpe
Encoding: 57421 57421 68
Width: 2048
LayerCount: 3
Back
SplineSet
-446.114257812 25.578125 m 5
 -446.114257812 25.578125 -407.747070312 26.330078125 -407.747070312 26.0595703125 c 6
 -337.047851562 26.9462890625 -204.625976562 48.1474609375 -115.854492188 108.331054688 c 1028
291.139648438 487.490234375 m 4
 340.040039062 487.490234375 391.948242188 457.404296875 391.948242188 406.2421875 c 7
 391.948242188 369.37890625 387.259765625 343.358398438 352.076171875 323.489257812 c 6
 -118.111328125 62.4404296875 l 6
 -164.75390625 36.1103515625 -234.717773438 25.578125 -315.966796875 25.578125 c 1028
EndSplineSet
Fore
Validated: 1
EndChar

StartChar: ccps
Encoding: 57422 57422 69
Width: 2048
LayerCount: 3
Back
SplineSet
-447.618164062 487.490234375 m 4
 -447.618164062 486.426757812 -446.866210938 -488.243164062 -447.618164062 -487.490234375 c 1029
-447.618164062 25.578125 m 4
 -408.0390625 25.578125 -464.921875 25.578125 -407.747070312 25.578125 c 7
 -225.633789062 25.578125 -130.900390625 179.047851562 -130.900390625 332.516601562 c 7
 -130.900390625 431.8203125 -174.533203125 487.490234375 -231.708007812 487.490234375 c 7
 -338.53515625 487.490234375 -447.618164062 337.030273438 -447.618164062 256.534179688 c 1028
EndSplineSet
Fore
Validated: 1
EndChar

StartChar: q
Encoding: 113 113 70
Width: 600
Flags: W
LayerCount: 3
Back
SplineSet
403.735351562 25.5361328125 m 4
 534.826171875 25.580078125 590.555664062 -203.80859375 590.555664062 -312.95703125 c 7
 590.555664062 -369.384765625 603.344726562 -486.73828125 508.5546875 -486.73828125 c 7
 430.315429688 -486.73828125 402.48046875 -410.00390625 402.48046875 -317.470703125 c 6
 402.48046875 485.985351562 l 1029
402.48046875 487.490234375 m 1029
402.48046875 487.490234375 m 4
 362.901367188 487.490234375 419.783203125 487.490234375 362.608398438 487.490234375 c 7
 180.49609375 487.490234375 85.76171875 334.021484375 85.76171875 180.551757812 c 7
 85.76171875 81.248046875 129.395507812 25.578125 186.5703125 25.578125 c 7
 293.397460938 25.578125 402.48046875 176.038085938 402.48046875 256.534179688 c 1028
EndSplineSet
Fore
SplineSet
575 341 m 128,-1,1
 575 349 575 349 583 349 c 128,-1,2
 591 349 591 349 591 341 c 128,-1,3
 591 333 591 333 583 333 c 128,-1,0
 575 333 575 333 575 341 c 128,-1,1
550 341 m 128,-1,5
 550 349 550 349 558 349 c 128,-1,6
 566 349 566 349 566 341 c 128,-1,7
 566 333 566 333 558 333 c 128,-1,4
 550 333 550 333 550 341 c 128,-1,5
525 341 m 128,-1,9
 525 349 525 349 533 349 c 128,-1,10
 541 349 541 349 541 341 c 128,-1,11
 541 333 541 333 533 333 c 128,-1,8
 525 333 525 333 525 341 c 128,-1,9
500 341 m 128,-1,13
 500 349 500 349 508 349 c 128,-1,14
 516 349 516 349 516 341 c 128,-1,15
 516 333 516 333 508 333 c 128,-1,12
 500 333 500 333 500 341 c 128,-1,13
475 341 m 128,-1,17
 475 349 475 349 483 349 c 128,-1,18
 491 349 491 349 491 341 c 128,-1,19
 491 333 491 333 483 333 c 128,-1,16
 475 333 475 333 475 341 c 128,-1,17
450 341 m 128,-1,21
 450 349 450 349 458 349 c 128,-1,22
 466 349 466 349 466 341 c 128,-1,23
 466 333 466 333 458 333 c 128,-1,20
 450 333 450 333 450 341 c 128,-1,21
425 341 m 128,-1,25
 425 349 425 349 433 349 c 128,-1,26
 441 349 441 349 441 341 c 128,-1,27
 441 333 441 333 433 333 c 128,-1,24
 425 333 425 333 425 341 c 128,-1,25
400 341 m 128,-1,29
 400 349 400 349 408 349 c 128,-1,30
 416 349 416 349 416 341 c 128,-1,31
 416 333 416 333 408 333 c 128,-1,28
 400 333 400 333 400 341 c 128,-1,29
375 341 m 128,-1,33
 375 349 375 349 383 349 c 128,-1,34
 391 349 391 349 391 341 c 128,-1,35
 391 333 391 333 383 333 c 128,-1,32
 375 333 375 333 375 341 c 128,-1,33
350 341 m 128,-1,37
 350 349 350 349 358 349 c 128,-1,38
 366 349 366 349 366 341 c 128,-1,39
 366 333 366 333 358 333 c 128,-1,36
 350 333 350 333 350 341 c 128,-1,37
325 341 m 128,-1,41
 325 349 325 349 333 349 c 128,-1,42
 341 349 341 349 341 341 c 128,-1,43
 341 333 341 333 333 333 c 128,-1,40
 325 333 325 333 325 341 c 128,-1,41
300 341 m 128,-1,45
 300 349 300 349 308 349 c 128,-1,46
 316 349 316 349 316 341 c 128,-1,47
 316 333 316 333 308 333 c 128,-1,44
 300 333 300 333 300 341 c 128,-1,45
275 341 m 128,-1,49
 275 349 275 349 283 349 c 128,-1,50
 291 349 291 349 291 341 c 128,-1,51
 291 333 291 333 283 333 c 128,-1,48
 275 333 275 333 275 341 c 128,-1,49
250 341 m 128,-1,53
 250 349 250 349 258 349 c 128,-1,54
 266 349 266 349 266 341 c 128,-1,55
 266 333 266 333 258 333 c 128,-1,52
 250 333 250 333 250 341 c 128,-1,53
225 341 m 128,-1,57
 225 349 225 349 233 349 c 128,-1,58
 241 349 241 349 241 341 c 128,-1,59
 241 333 241 333 233 333 c 128,-1,56
 225 333 225 333 225 341 c 128,-1,57
200 341 m 128,-1,61
 200 349 200 349 208 349 c 128,-1,62
 216 349 216 349 216 341 c 128,-1,63
 216 333 216 333 208 333 c 128,-1,60
 200 333 200 333 200 341 c 128,-1,61
175 341 m 128,-1,65
 175 349 175 349 183 349 c 128,-1,66
 191 349 191 349 191 341 c 128,-1,67
 191 333 191 333 183 333 c 128,-1,64
 175 333 175 333 175 341 c 128,-1,65
150 341 m 128,-1,69
 150 349 150 349 158 349 c 128,-1,70
 166 349 166 349 166 341 c 128,-1,71
 166 333 166 333 158 333 c 128,-1,68
 150 333 150 333 150 341 c 128,-1,69
125 341 m 128,-1,73
 125 349 125 349 133 349 c 128,-1,74
 141 349 141 349 141 341 c 128,-1,75
 141 333 141 333 133 333 c 128,-1,72
 125 333 125 333 125 341 c 128,-1,73
100 341 m 128,-1,77
 100 349 100 349 108 349 c 128,-1,78
 116 349 116 349 116 341 c 128,-1,79
 116 333 116 333 108 333 c 128,-1,76
 100 333 100 333 100 341 c 128,-1,77
75 341 m 128,-1,81
 75 349 75 349 83 349 c 128,-1,82
 91 349 91 349 91 341 c 128,-1,83
 91 333 91 333 83 333 c 128,-1,80
 75 333 75 333 75 341 c 128,-1,81
50 341 m 128,-1,85
 50 349 50 349 58 349 c 128,-1,86
 66 349 66 349 66 341 c 128,-1,87
 66 333 66 333 58 333 c 128,-1,84
 50 333 50 333 50 341 c 128,-1,85
25 341 m 128,-1,89
 25 349 25 349 33 349 c 128,-1,90
 41 349 41 349 41 341 c 128,-1,91
 41 333 41 333 33 333 c 128,-1,88
 25 333 25 333 25 341 c 128,-1,89
0 341 m 128,-1,93
 0 349 0 349 8 349 c 128,-1,94
 16 349 16 349 16 341 c 128,-1,95
 16 333 16 333 8 333 c 128,-1,92
 0 333 0 333 0 341 c 128,-1,93
525 690 m 1,96,-1
 571 690 l 1,97,-1
 571 674 l 1,98,-1
 525 674 l 1,99,-1
 525 690 l 1,96,-1
450 690 m 1,100,-1
 496 690 l 1,101,-1
 496 674 l 1,102,-1
 450 674 l 1,103,-1
 450 690 l 1,100,-1
375 690 m 1,104,-1
 421 690 l 1,105,-1
 421 674 l 1,106,-1
 375 674 l 1,107,-1
 375 690 l 1,104,-1
300 690 m 1,108,-1
 346 690 l 1,109,-1
 346 674 l 1,110,-1
 300 674 l 1,111,-1
 300 690 l 1,108,-1
225 690 m 1,112,-1
 271 690 l 1,113,-1
 271 674 l 1,114,-1
 225 674 l 1,115,-1
 225 690 l 1,112,-1
150 690 m 1,116,-1
 196 690 l 1,117,-1
 196 674 l 1,118,-1
 150 674 l 1,119,-1
 150 690 l 1,116,-1
75 690 m 1,120,-1
 121 690 l 1,121,-1
 121 674 l 1,122,-1
 75 674 l 1,123,-1
 75 690 l 1,120,-1
0 -674 m 1,124,-1
 602 -674 l 1,125,-1
 602 -690 l 1,126,-1
 0 -690 l 1,127,-1
 0 -674 l 1,124,-1
0 690 m 1,128,-1
 46 690 l 1,129,-1
 46 674 l 1,130,-1
 0 674 l 1,131,-1
 0 690 l 1,128,-1
0 1372 m 1,132,-1
 602 1372 l 5,133,-1
 602 1356 l 5,134,-1
 0 1356 l 1,135,-1
 0 1372 l 1,132,-1
0 14 m 1,136,-1
 602 14 l 1,137,-1
 602 -14 l 1,138,-1
 0 -14 l 1,139,-1
 0 14 l 1,136,-1
EndSplineSet
Validated: 1
EndChar

StartChar: f
Encoding: 102 102 71
Width: 600
Flags: W
LayerCount: 3
Fore
SplineSet
0 1372 m 5,0,-1
 602 1372 l 7,1,2
 606 1372 606 1372 606 1364 c 135,-1,3
 606 1356 606 1356 602 1356 c 5,4,-1
 0 1356 l 5,5,-1
 0 1372 l 5,0,-1
EndSplineSet
Validated: 1
EndChar

StartChar: cczi
Encoding: 57428 57428 72
Width: 0
VWidth: 1540
LayerCount: 3
Back
SplineSet
-132.405273438 25.578125 m 7
 -100.80859375 25.578125 -84.794921875 54.935546875 -73.7255859375 77.4873046875 c 14
 127.890625 488.243164062 l 1029
-187.572265625 25.5361328125 m 7
 -90.2763671875 25.5361328125 -9.7802734375 -177.030273438 -9.7802734375 -317.470703125 c 23
 -9.7802734375 -410.00390625 -40.6240234375 -486.73828125 -99.3037109375 -486.73828125 c 7
 -157.983398438 -486.73828125 -188.827148438 -410.00390625 -188.827148438 -317.470703125 c 6
 -188.827148438 485.985351562 l 1029
-188.827148438 487.490234375 m 1029
-188.827148438 487.490234375 m 4
 -228.407226562 487.490234375 -171.524414062 487.490234375 -228.69921875 487.490234375 c 7
 -410.811523438 487.490234375 -505.545898438 334.021484375 -505.545898438 180.551757812 c 7
 -505.545898438 81.248046875 -461.912109375 25.578125 -404.737304688 25.578125 c 7
 -297.911132812 25.578125 -188.827148438 176.038085938 -188.827148438 256.534179688 c 1028
EndSplineSet
Fore
Validated: 1
EndChar

StartChar: cczn
Encoding: 57429 57429 73
Width: 2048
LayerCount: 3
Back
SplineSet
180.5546875 410.755859375 m 4
 180.5546875 451.379882812 167.764648438 487.490234375 124.131835938 487.490234375 c 7
 92.53515625 487.490234375 76.564453125 458.987304688 65.4521484375 436.333984375 c 6
 -110.5859375 77.4873046875 l 5
 -121.704101562 54.8359375 -137.668945312 26.330078125 -169.265625 26.330078125 c 1028
-187.572265625 25.5361328125 m 3
 -90.2763671875 25.5361328125 -9.7802734375 -177.030273438 -9.7802734375 -317.470703125 c 19
 -9.7802734375 -410.00390625 -40.6240234375 -486.73828125 -99.3037109375 -486.73828125 c 3
 -157.983398438 -486.73828125 -188.827148438 -410.00390625 -188.827148438 -317.470703125 c 2
 -188.827148438 485.985351562 l 1025
-188.827148438 487.490234375 m 1025
-188.827148438 487.490234375 m 0
 -228.407226562 487.490234375 -171.524414062 487.490234375 -228.69921875 487.490234375 c 3
 -410.811523438 487.490234375 -505.545898438 334.021484375 -505.545898438 180.551757812 c 3
 -505.545898438 81.248046875 -461.912109375 25.578125 -404.737304688 25.578125 c 3
 -297.911132812 25.578125 -188.827148438 176.038085938 -188.827148438 256.534179688 c 1024
EndSplineSet
Fore
Validated: 1
EndChar

StartChar: cczh
Encoding: 57430 57430 74
Width: 2048
LayerCount: 3
Back
SplineSet
-71.46875 25.578125 m 0
 -99.7646484375 25.578125 -130.221679688 46.798828125 -150.168945312 59.431640625 c 0
 -172.73828125 73.7255859375 -203.4296875 76.734375 -230.665039062 76.734375 c 0
 -293.106445312 76.734375 -358.556640625 57.9267578125 -389.400390625 25.578125 c 1
 -73.4345703125 487.490234375 l 17
 -88.0185546875 466.42578125 -151.211914062 436.333984375 -231.708007812 436.333984375 c 0
 -258.943359375 436.333984375 -289.634765625 439.342773438 -312.204101562 453.63671875 c 0
 -332.150390625 466.26953125 -355.0859375 487.490234375 -388.9375 487.490234375 c 1024
EndSplineSet
Fore
Validated: 1
EndChar

StartChar: cczo
Encoding: 57431 57431 75
Width: 0
VWidth: 1540
LayerCount: 3
Back
SplineSet
460.068359375 442.362304688 m 1029
207.634765625 255.782226562 m 4
 207.634765625 382.920898438 279.103515625 487.490234375 366.370117188 487.490234375 c 4
 453.63671875 487.490234375 525.10546875 383.672851562 525.10546875 256.534179688 c 4
 525.10546875 159.6484375 483.602539062 76.306640625 425.233398438 42.12890625 c 4
 407.006835938 31.4560546875 387.135742188 25.578125 366.370117188 25.578125 c 4
 279.103515625 25.578125 207.634765625 128.643554688 207.634765625 255.782226562 c 4
-81.2490234375 55.669921875 m 2
 136.166015625 410.755859375 l 1025
-185.818359375 25.578125 m 3
 -151.96484375 25.578125 -113.055664062 43.5615234375 -66.955078125 128.643554688 c 1034
EndSplineSet
Fore
Validated: 1
EndChar

StartChar: ccza
Encoding: 57432 57432 76
Width: 0
VWidth: 1540
LayerCount: 3
Back
SplineSet
515.325195312 412.260742188 m 4
 493.508789062 440.84765625 445.361328125 487.490234375 384.42578125 487.490234375 c 4
 271.881835938 487.490234375 198.532226562 381.416015625 198.532226562 255.782226562 c 1028
EndSplineSet
Fore
Validated: 1
EndChar

StartChar: cczs
Encoding: 57434 57434 77
Width: 2048
LayerCount: 3
Back
SplineSet
-132.405273438 25.578125 m 7
 -111.581054688 25.578125 -88.248046875 38.09375 -75.23046875 50.404296875 c 6
 375.397460938 487.490234375 l 1029
EndSplineSet
Fore
Validated: 1
EndChar

StartChar: x
Encoding: 120 120 79
Width: 682
VWidth: 1540
Flags: W
LayerCount: 3
Back
SplineSet
5 682 m 31
 264 682 416 682 675 682 c 1052
0 0 m 5
 682 0 l 5
 682 454.666666667 682 909.333333333 682 1364 c 5
 0 1364 l 5
 0 0 l 5
EndSplineSet
Fore
SplineSet
674.001568716 1356.00156872 m 1,0,-1
 7.99843128432 1356.00156872 l 1,1,-1
 7.99843128432 689.998431284 l 1,2,-1
 674.001568716 689.998431284 l 1,3,-1
 674.001568716 1356.00156872 l 1,0,-1
-7.99843128432 -7.99843128432 m 1,4,-1
 -7.99843128432 1371.99843128 l 1,5,-1
 689.998431284 1371.99843128 l 1,6,-1
 689.998431284 -7.99843128432 l 1,7,-1
 -7.99843128432 -7.99843128432 l 1,4,-1
7.99843128432 674.001568716 m 1,8,-1
 7.99843128432 7.99843128432 l 1,9,-1
 674.001568716 7.99843128432 l 1,10,-1
 674.001568716 674.001568716 l 1,11,-1
 7.99843128432 674.001568716 l 1,8,-1
EndSplineSet
Validated: 1
EndChar

StartChar: z
Encoding: 122 122 80
Width: 682
VWidth: 1540
Flags: W
LayerCount: 3
Back
SplineSet
0 682 m 5
 684 682 l 5
 684 0 l 5
 0 0 l 5
 0 682 l 5
EndSplineSet
Fore
Validated: 1
EndChar

StartChar: csz
Encoding: 57546 57546 81
Width: 2048
LayerCount: 3
Back
SplineSet
322.24609375 461.516601562 m 5
 200.357421875 281.810546875 24 25.578125 24 25.578125 c 1028
EndSplineSet
Fore
Validated: 1
Comment: "Starting stroke towards z, parallel with internal stroke of this letter."
EndChar

StartChar: uniE069
Encoding: 57449 57449 82
Width: 2048
LayerCount: 3
Back
SplineSet
456 648 m 29
 456 648 198 272 35 34 c 1053
489.640625 648 m 7
 447.640625 648 427 610 411.640625 580 c 1028
EndSplineSet
Fore
Validated: 1
Comment: "Starting stroke towards x, parallel with internal stroke of this letter."
EndChar

StartChar: r
Encoding: 114 114 83
Width: 600
Flags: W
LayerCount: 3
Back
SplineSet
0 -674 m 5
 601 -674 l 5
 601 -690 l 5
 0 -690 l 5
 0 -674 l 5
0 1372 m 5
 601 1372 l 5
 601 1356 l 5
 0 1356 l 5
 0 1372 l 5
0 14 m 5
 601 14 l 5
 601 -14 l 5
 0 -14 l 5
 0 14 l 5
EndSplineSet
Fore
SplineSet
575 341 m 132,-1,1
 575 349 575 349 583 349 c 132,-1,2
 591 349 591 349 591 341 c 132,-1,3
 591 333 591 333 583 333 c 132,-1,0
 575 333 575 333 575 341 c 132,-1,1
550 341 m 132,-1,5
 550 349 550 349 558 349 c 132,-1,6
 566 349 566 349 566 341 c 132,-1,7
 566 333 566 333 558 333 c 132,-1,4
 550 333 550 333 550 341 c 132,-1,5
525 341 m 132,-1,9
 525 349 525 349 533 349 c 132,-1,10
 541 349 541 349 541 341 c 132,-1,11
 541 333 541 333 533 333 c 132,-1,8
 525 333 525 333 525 341 c 132,-1,9
500 341 m 132,-1,13
 500 349 500 349 508 349 c 132,-1,14
 516 349 516 349 516 341 c 132,-1,15
 516 333 516 333 508 333 c 132,-1,12
 500 333 500 333 500 341 c 132,-1,13
475 341 m 132,-1,17
 475 349 475 349 483 349 c 132,-1,18
 491 349 491 349 491 341 c 132,-1,19
 491 333 491 333 483 333 c 132,-1,16
 475 333 475 333 475 341 c 132,-1,17
450 341 m 132,-1,21
 450 349 450 349 458 349 c 132,-1,22
 466 349 466 349 466 341 c 132,-1,23
 466 333 466 333 458 333 c 132,-1,20
 450 333 450 333 450 341 c 132,-1,21
425 341 m 132,-1,25
 425 349 425 349 433 349 c 132,-1,26
 441 349 441 349 441 341 c 132,-1,27
 441 333 441 333 433 333 c 132,-1,24
 425 333 425 333 425 341 c 132,-1,25
400 341 m 132,-1,29
 400 349 400 349 408 349 c 132,-1,30
 416 349 416 349 416 341 c 132,-1,31
 416 333 416 333 408 333 c 132,-1,28
 400 333 400 333 400 341 c 132,-1,29
375 341 m 132,-1,33
 375 349 375 349 383 349 c 132,-1,34
 391 349 391 349 391 341 c 132,-1,35
 391 333 391 333 383 333 c 132,-1,32
 375 333 375 333 375 341 c 132,-1,33
350 341 m 132,-1,37
 350 349 350 349 358 349 c 132,-1,38
 366 349 366 349 366 341 c 132,-1,39
 366 333 366 333 358 333 c 132,-1,36
 350 333 350 333 350 341 c 132,-1,37
325 341 m 132,-1,41
 325 349 325 349 333 349 c 132,-1,42
 341 349 341 349 341 341 c 132,-1,43
 341 333 341 333 333 333 c 132,-1,40
 325 333 325 333 325 341 c 132,-1,41
300 341 m 132,-1,45
 300 349 300 349 308 349 c 132,-1,46
 316 349 316 349 316 341 c 132,-1,47
 316 333 316 333 308 333 c 132,-1,44
 300 333 300 333 300 341 c 132,-1,45
275 341 m 132,-1,49
 275 349 275 349 283 349 c 132,-1,50
 291 349 291 349 291 341 c 132,-1,51
 291 333 291 333 283 333 c 132,-1,48
 275 333 275 333 275 341 c 132,-1,49
250 341 m 132,-1,53
 250 349 250 349 258 349 c 132,-1,54
 266 349 266 349 266 341 c 132,-1,55
 266 333 266 333 258 333 c 132,-1,52
 250 333 250 333 250 341 c 132,-1,53
225 341 m 132,-1,57
 225 349 225 349 233 349 c 132,-1,58
 241 349 241 349 241 341 c 132,-1,59
 241 333 241 333 233 333 c 132,-1,56
 225 333 225 333 225 341 c 132,-1,57
200 341 m 132,-1,61
 200 349 200 349 208 349 c 132,-1,62
 216 349 216 349 216 341 c 132,-1,63
 216 333 216 333 208 333 c 132,-1,60
 200 333 200 333 200 341 c 132,-1,61
175 341 m 132,-1,65
 175 349 175 349 183 349 c 132,-1,66
 191 349 191 349 191 341 c 132,-1,67
 191 333 191 333 183 333 c 132,-1,64
 175 333 175 333 175 341 c 132,-1,65
150 341 m 132,-1,69
 150 349 150 349 158 349 c 132,-1,70
 166 349 166 349 166 341 c 132,-1,71
 166 333 166 333 158 333 c 132,-1,68
 150 333 150 333 150 341 c 132,-1,69
125 341 m 132,-1,73
 125 349 125 349 133 349 c 132,-1,74
 141 349 141 349 141 341 c 132,-1,75
 141 333 141 333 133 333 c 132,-1,72
 125 333 125 333 125 341 c 132,-1,73
100 341 m 132,-1,77
 100 349 100 349 108 349 c 132,-1,78
 116 349 116 349 116 341 c 132,-1,79
 116 333 116 333 108 333 c 132,-1,76
 100 333 100 333 100 341 c 132,-1,77
75 341 m 132,-1,81
 75 349 75 349 83 349 c 132,-1,82
 91 349 91 349 91 341 c 132,-1,83
 91 333 91 333 83 333 c 132,-1,80
 75 333 75 333 75 341 c 132,-1,81
50 341 m 132,-1,85
 50 349 50 349 58 349 c 132,-1,86
 66 349 66 349 66 341 c 132,-1,87
 66 333 66 333 58 333 c 132,-1,84
 50 333 50 333 50 341 c 132,-1,85
25 341 m 132,-1,89
 25 349 25 349 33 349 c 132,-1,90
 41 349 41 349 41 341 c 132,-1,91
 41 333 41 333 33 333 c 132,-1,88
 25 333 25 333 25 341 c 132,-1,89
0 341 m 132,-1,93
 0 349 0 349 8 349 c 132,-1,94
 16 349 16 349 16 341 c 132,-1,95
 16 333 16 333 8 333 c 132,-1,92
 0 333 0 333 0 341 c 132,-1,93
EndSplineSet
Validated: 1
EndChar

StartChar: t
Encoding: 116 116 84
Width: 600
Flags: W
LayerCount: 3
Back
SplineSet
575 341 m 128
 575 346.333333333 577.666666667 349 583 349 c 128
 588.333333333 349 591 346.333333333 591 341 c 128
 591 335.666666667 588.333333333 333 583 333 c 128
 577.666666667 333 575 335.666666667 575 341 c 128
  Spiro
    575 341 o
    577 347 o
    583 349 o
    589 347 o
    591 341 o
    589 335 o
    583 333 o
    577 335 o
    0 0 z
  EndSpiro
550 341 m 128
 550 346.333333333 552.666666667 349 558 349 c 128
 563.333333333 349 566 346.333333333 566 341 c 128
 566 335.666666667 563.333333333 333 558 333 c 128
 552.666666667 333 550 335.666666667 550 341 c 128
  Spiro
    550 341 o
    552 347 o
    558 349 o
    564 347 o
    566 341 o
    564 335 o
    558 333 o
    552 335 o
    0 0 z
  EndSpiro
525 341 m 128
 525 346.333333333 527.666666667 349 533 349 c 128
 538.333333333 349 541 346.333333333 541 341 c 128
 541 335.666666667 538.333333333 333 533 333 c 128
 527.666666667 333 525 335.666666667 525 341 c 128
  Spiro
    525 341 o
    527 347 o
    533 349 o
    539 347 o
    541 341 o
    539 335 o
    533 333 o
    527 335 o
    0 0 z
  EndSpiro
500 341 m 128
 500 346.333333333 502.666666667 349 508 349 c 128
 513.333333333 349 516 346.333333333 516 341 c 128
 516 335.666666667 513.333333333 333 508 333 c 128
 502.666666667 333 500 335.666666667 500 341 c 128
  Spiro
    500 341 o
    502 347 o
    508 349 o
    514 347 o
    516 341 o
    514 335 o
    508 333 o
    502 335 o
    0 0 z
  EndSpiro
475 341 m 128
 475 346.333333333 477.666666667 349 483 349 c 128
 488.333333333 349 491 346.333333333 491 341 c 128
 491 335.666666667 488.333333333 333 483 333 c 128
 477.666666667 333 475 335.666666667 475 341 c 128
  Spiro
    475 341 o
    477 347 o
    483 349 o
    489 347 o
    491 341 o
    489 335 o
    483 333 o
    477 335 o
    0 0 z
  EndSpiro
450 341 m 128
 450 346.333333333 452.666666667 349 458 349 c 128
 463.333333333 349 466 346.333333333 466 341 c 128
 466 335.666666667 463.333333333 333 458 333 c 128
 452.666666667 333 450 335.666666667 450 341 c 128
  Spiro
    450 341 o
    452 347 o
    458 349 o
    464 347 o
    466 341 o
    464 335 o
    458 333 o
    452 335 o
    0 0 z
  EndSpiro
425 341 m 128
 425 346.333333333 427.666666667 349 433 349 c 128
 438.333333333 349 441 346.333333333 441 341 c 128
 441 335.666666667 438.333333333 333 433 333 c 128
 427.666666667 333 425 335.666666667 425 341 c 128
  Spiro
    425 341 o
    427 347 o
    433 349 o
    439 347 o
    441 341 o
    439 335 o
    433 333 o
    427 335 o
    0 0 z
  EndSpiro
400 341 m 128
 400 346.333333333 402.666666667 349 408 349 c 128
 413.333333333 349 416 346.333333333 416 341 c 128
 416 335.666666667 413.333333333 333 408 333 c 128
 402.666666667 333 400 335.666666667 400 341 c 128
  Spiro
    400 341 o
    402 347 o
    408 349 o
    414 347 o
    416 341 o
    414 335 o
    408 333 o
    402 335 o
    0 0 z
  EndSpiro
375 341 m 128
 375 346.333333333 377.666666667 349 383 349 c 128
 388.333333333 349 391 346.333333333 391 341 c 128
 391 335.666666667 388.333333333 333 383 333 c 128
 377.666666667 333 375 335.666666667 375 341 c 128
  Spiro
    375 341 o
    377 347 o
    383 349 o
    389 347 o
    391 341 o
    389 335 o
    383 333 o
    377 335 o
    0 0 z
  EndSpiro
350 341 m 128
 350 346.333333333 352.666666667 349 358 349 c 128
 363.333333333 349 366 346.333333333 366 341 c 128
 366 335.666666667 363.333333333 333 358 333 c 128
 352.666666667 333 350 335.666666667 350 341 c 128
  Spiro
    350 341 o
    352 347 o
    358 349 o
    364 347 o
    366 341 o
    364 335 o
    358 333 o
    352 335 o
    0 0 z
  EndSpiro
325 341 m 128
 325 346.333333333 327.666666667 349 333 349 c 128
 338.333333333 349 341 346.333333333 341 341 c 128
 341 335.666666667 338.333333333 333 333 333 c 128
 327.666666667 333 325 335.666666667 325 341 c 128
  Spiro
    325 341 o
    327 347 o
    333 349 o
    339 347 o
    341 341 o
    339 335 o
    333 333 o
    327 335 o
    0 0 z
  EndSpiro
300 341 m 128
 300 346.333007812 302.666992188 349 308 349 c 128
 313.333007812 349 316 346.333007812 316 341 c 128
 316 335.666992188 313.333007812 333 308 333 c 128
 302.666992188 333 300 335.666992188 300 341 c 128
  Spiro
    300 341 o
    302 347 o
    308 349 o
    314 347 o
    316 341 o
    314 335 o
    308 333 o
    302 335 o
    0 0 z
  EndSpiro
275 341 m 128
 275 346.333333333 277.666666667 349 283 349 c 128
 288.333333333 349 291 346.333333333 291 341 c 128
 291 335.666666667 288.333333333 333 283 333 c 128
 277.666666667 333 275 335.666666667 275 341 c 128
  Spiro
    275 341 o
    277 347 o
    283 349 o
    289 347 o
    291 341 o
    289 335 o
    283 333 o
    277 335 o
    0 0 z
  EndSpiro
250 341 m 128
 250 346.333333333 252.666666667 349 258 349 c 128
 263.333333333 349 266 346.333333333 266 341 c 128
 266 335.666666667 263.333333333 333 258 333 c 128
 252.666666667 333 250 335.666666667 250 341 c 128
  Spiro
    250 341 o
    252 347 o
    258 349 o
    264 347 o
    266 341 o
    264 335 o
    258 333 o
    252 335 o
    0 0 z
  EndSpiro
225 341 m 128
 225 346.333333333 227.666666667 349 233 349 c 128
 238.333333333 349 241 346.333333333 241 341 c 128
 241 335.666666667 238.333333333 333 233 333 c 128
 227.666666667 333 225 335.666666667 225 341 c 128
  Spiro
    225 341 o
    227 347 o
    233 349 o
    239 347 o
    241 341 o
    239 335 o
    233 333 o
    227 335 o
    0 0 z
  EndSpiro
200 341 m 128
 200 346.333333333 202.666666667 349 208 349 c 128
 213.333333333 349 216 346.333333333 216 341 c 128
 216 335.666666667 213.333333333 333 208 333 c 128
 202.666666667 333 200 335.666666667 200 341 c 128
  Spiro
    200 341 o
    202 347 o
    208 349 o
    214 347 o
    216 341 o
    214 335 o
    208 333 o
    202 335 o
    0 0 z
  EndSpiro
175 341 m 128
 175 346.333333333 177.666666667 349 183 349 c 128
 188.333333333 349 191 346.333333333 191 341 c 128
 191 335.666666667 188.333333333 333 183 333 c 128
 177.666666667 333 175 335.666666667 175 341 c 128
  Spiro
    175 341 o
    177 347 o
    183 349 o
    189 347 o
    191 341 o
    189 335 o
    183 333 o
    177 335 o
    0 0 z
  EndSpiro
150 341 m 128
 150 346.333333333 152.666666667 349 158 349 c 128
 163.333333333 349 166 346.333333333 166 341 c 128
 166 335.666666667 163.333333333 333 158 333 c 128
 152.666666667 333 150 335.666666667 150 341 c 128
  Spiro
    150 341 o
    152 347 o
    158 349 o
    164 347 o
    166 341 o
    164 335 o
    158 333 o
    152 335 o
    0 0 z
  EndSpiro
125 341 m 128
 125 346.333333333 127.666666667 349 133 349 c 128
 138.333333333 349 141 346.333333333 141 341 c 128
 141 335.666666667 138.333333333 333 133 333 c 128
 127.666666667 333 125 335.666666667 125 341 c 128
  Spiro
    125 341 o
    127 347 o
    133 349 o
    139 347 o
    141 341 o
    139 335 o
    133 333 o
    127 335 o
    0 0 z
  EndSpiro
100 341 m 128
 100 346.333333333 102.666666667 349 108 349 c 128
 113.333333333 349 116 346.333333333 116 341 c 128
 116 335.666666667 113.333333333 333 108 333 c 128
 102.666666667 333 100 335.666666667 100 341 c 128
  Spiro
    100 341 o
    102 347 o
    108 349 o
    114 347 o
    116 341 o
    114 335 o
    108 333 o
    102 335 o
    0 0 z
  EndSpiro
75 341 m 128
 75 346.333333333 77.6666666667 349 83 349 c 128
 88.3333333333 349 91 346.333333333 91 341 c 128
 91 335.666666667 88.3333333333 333 83 333 c 128
 77.6666666667 333 75 335.666666667 75 341 c 128
  Spiro
    75 341 o
    77 347 o
    83 349 o
    89 347 o
    91 341 o
    89 335 o
    83 333 o
    77 335 o
    0 0 z
  EndSpiro
50 341 m 128
 50 346.333333333 52.6666666667 349 58 349 c 128
 63.3333333333 349 66 346.333333333 66 341 c 128
 66 335.666666667 63.3333333333 333 58 333 c 128
 52.6666666667 333 50 335.666666667 50 341 c 128
  Spiro
    50 341 o
    52 347 o
    58 349 o
    64 347 o
    66 341 o
    64 335 o
    58 333 o
    52 335 o
    0 0 z
  EndSpiro
25 341 m 128
 25 346.333333333 27.6666666667 349 33 349 c 128
 38.3333333333 349 41 346.333333333 41 341 c 128
 41 335.666666667 38.3333333333 333 33 333 c 128
 27.6666666667 333 25 335.666666667 25 341 c 128
  Spiro
    25 341 o
    27 347 o
    33 349 o
    39 347 o
    41 341 o
    39 335 o
    33 333 o
    27 335 o
    0 0 z
  EndSpiro
0 341 m 128
 0 346.333333333 2.66666666667 349 8 349 c 128
 13.3333333333 349 16 346.333333333 16 341 c 128
 16 335.666666667 13.3333333333 333 8 333 c 128
 2.66666666667 333 0 335.666666667 0 341 c 128
  Spiro
    0 341 o
    2 347 o
    8 349 o
    14 347 o
    16 341 o
    14 335 o
    8 333 o
    2 335 o
    0 0 z
  EndSpiro
525 690 m 1
 571 690 l 1
 571 674 l 1
 525 674 l 1
 525 690 l 1
  Spiro
    525 690 v
    571 690 v
    571 674 v
    525 674 v
    0 0 z
  EndSpiro
450 690 m 1
 496 690 l 1
 496 674 l 1
 450 674 l 1
 450 690 l 1
  Spiro
    450 690 v
    496 690 v
    496 674 v
    450 674 v
    0 0 z
  EndSpiro
375 690 m 1
 421 690 l 1
 421 674 l 1
 375 674 l 1
 375 690 l 1
  Spiro
    375 690 v
    421 690 v
    421 674 v
    375 674 v
    0 0 z
  EndSpiro
300 690 m 1
 346 690 l 1
 346 674 l 1
 300 674 l 1
 300 690 l 1
  Spiro
    300 690 v
    346 690 v
    346 674 v
    300 674 v
    0 0 z
  EndSpiro
225 690 m 1
 271 690 l 1
 271 674 l 1
 225 674 l 1
 225 690 l 1
  Spiro
    225 690 v
    271 690 v
    271 674 v
    225 674 v
    0 0 z
  EndSpiro
150 690 m 1
 196 690 l 1
 196 674 l 1
 150 674 l 1
 150 690 l 1
  Spiro
    150 690 v
    196 690 v
    196 674 v
    150 674 v
    0 0 z
  EndSpiro
75 690 m 1
 121 690 l 1
 121 674 l 1
 75 674 l 1
 75 690 l 1
  Spiro
    75 690 v
    121 690 v
    121 674 v
    75 674 v
    0 0 z
  EndSpiro
0 -674 m 1
 601 -674 l 1
 601 -690 l 1
 0 -690 l 1
 0 -674 l 1
  Spiro
    0 -674 v
    601 -674 v
    601 -690 v
    0 -690 v
    0 0 z
  EndSpiro
0 690 m 1
 46 690 l 1
 46 674 l 1
 0 674 l 1
 0 690 l 1
  Spiro
    0 690 v
    46 690 v
    46 674 v
    0 674 v
    0 0 z
  EndSpiro
0 1372 m 1
 601 1372 l 1
 601 1356 l 1
 0 1356 l 1
 0 1372 l 1
  Spiro
    0 1372 v
    601 1372 v
    601 1356 v
    0 1356 v
    0 0 z
  EndSpiro
0 14 m 1
 601 14 l 1
 601 -14 l 1
 0 -14 l 1
 0 14 l 1
  Spiro
    0 14 v
    601 14 v
    601 -14 v
    0 -14 v
    0 0 z
  EndSpiro
EndSplineSet
Fore
SplineSet
559.686523438 341 m 5,0,-1
 571 352.313476562 l 5,1,-1
 582.313476562 341 l 5,2,-1
 571 329.686523438 l 5,3,-1
 559.686523438 341 l 5,0,-1
519.686523438 341 m 5,4,-1
 531 352.313476562 l 5,5,-1
 542.313476562 341 l 5,6,-1
 531 329.686523438 l 5,7,-1
 519.686523438 341 l 5,4,-1
479.686523438 341 m 5,8,-1
 491 352.313476562 l 5,9,-1
 502.313476562 341 l 5,10,-1
 491 329.686523438 l 5,11,-1
 479.686523438 341 l 5,8,-1
439.686523438 341 m 5,12,-1
 451 352.313476562 l 5,13,-1
 462.313476562 341 l 5,14,-1
 451 329.686523438 l 5,15,-1
 439.686523438 341 l 5,12,-1
399.686523438 341 m 5,16,-1
 411 352.313476562 l 5,17,-1
 422.313476562 341 l 5,18,-1
 411 329.686523438 l 5,19,-1
 399.686523438 341 l 5,16,-1
359.686523438 341 m 5,20,-1
 371 352.313476562 l 5,21,-1
 382.313476562 341 l 5,22,-1
 371 329.686523438 l 5,23,-1
 359.686523438 341 l 5,20,-1
319.686523438 341 m 5,24,-1
 331 352.313476562 l 5,25,-1
 342.313476562 341 l 5,26,-1
 331 329.686523438 l 5,27,-1
 319.686523438 341 l 5,24,-1
279.686523438 341 m 5,28,-1
 291 352.313476562 l 5,29,-1
 302.313476562 341 l 5,30,-1
 291 329.686523438 l 5,31,-1
 279.686523438 341 l 5,28,-1
239.686523438 341 m 5,32,-1
 251 352.313476562 l 5,33,-1
 262.313476562 341 l 5,34,-1
 251 329.686523438 l 5,35,-1
 239.686523438 341 l 5,32,-1
199.686523438 341 m 5,36,-1
 211 352.313476562 l 5,37,-1
 222.313476562 341 l 5,38,-1
 211 329.686523438 l 5,39,-1
 199.686523438 341 l 5,36,-1
159.686523438 341 m 5,40,-1
 171 352.313476562 l 5,41,-1
 182.313476562 341 l 5,42,-1
 171 329.686523438 l 5,43,-1
 159.686523438 341 l 5,40,-1
119.686523438 341 m 5,44,-1
 131 352.313476562 l 5,45,-1
 142.313476562 341 l 5,46,-1
 131 329.686523438 l 5,47,-1
 119.686523438 341 l 5,44,-1
79.6865234375 341 m 5,48,-1
 91 352.313476562 l 5,49,-1
 102.313476562 341 l 5,50,-1
 91 329.686523438 l 5,51,-1
 79.6865234375 341 l 5,48,-1
39.6865234375 341 m 5,52,-1
 51 352.313476562 l 5,53,-1
 62.3134765625 341 l 5,54,-1
 51 329.686523438 l 5,55,-1
 39.6865234375 341 l 5,52,-1
-0.3134765625 341 m 5,56,-1
 11 352.313476562 l 5,57,-1
 22.3134765625 341 l 5,58,-1
 11 329.686523438 l 5,59,-1
 -0.3134765625 341 l 5,56,-1
EndSplineSet
Validated: 1
EndChar

StartChar: ceo
Encoding: 57367 57367 85
Width: 2048
LayerCount: 3
Back
SplineSet
127.890625 488.243164062 m 4
 91.0283203125 424.296875 30.091796875 384.42578125 -48.1474609375 384.42578125 c 7
 -121.120117188 384.42578125 -189.580078125 416.774414062 -220.763671875 443.114257812 c 1028
EndSplineSet
Fore
Validated: 1
EndChar

StartChar: ceg
Encoding: 57403 57403 86
Width: 2048
LayerCount: 3
Back
SplineSet
-180.551757812 -743.272460938 m 7
 -285.60546875 -743.272460938 -301.403320312 -621.4765625 -301.403320312 -539.471679688 c 7
 -301.403320312 -492.26171875 -293.138671875 -440.348632812 -240.688476562 -325.818359375 c 4
 -161.754882812 -153.456054688 -36.8623046875 70.7158203125 70.330078125 237.7265625 c 1028
EndSplineSet
Fore
Validated: 1
EndChar

StartChar: ccnt
Encoding: 57351 57351 88
Width: 0
VWidth: 1540
LayerCount: 3
Back
SplineSet
403.232421875 644.720703125 m 29
 353.581054688 644.720703125 241.48828125 644.720703125 241.48828125 644.720703125 c 29
 191.836914062 644.720703125 107.579101562 644.720703125 107.579101562 644.720703125 c 1053
353.95703125 25.578125 m 7
 266.690429688 25.578125 241.112304688 99.3037109375 241.112304688 180.551757812 c 4
 241.112304688 181.826171875 241.216796875 742.469726562 241.163085938 1000.55859375 c 1029
-19.5595703125 25.578125 m 7
 68.458984375 25.578125 240.736328125 315.4375 240.736328125 488.243164062 c 1052
EndSplineSet
Fore
Validated: 1
EndChar

StartChar: ccot
Encoding: 57363 57363 89
Width: 0
VWidth: 1540
LayerCount: 3
Back
SplineSet
240.736328125 488.243164062 m 4
 240.736328125 421.288085938 142.936523438 384.42578125 64.6982421875 384.42578125 c 7
 -8.275390625 384.42578125 -76.734375 416.774414062 -107.91796875 443.114257812 c 1028
EndSplineSet
Fore
Validated: 1
EndChar

StartChar: ccet
Encoding: 57375 57375 90
Width: 2048
LayerCount: 3
Back
SplineSet
-113.59765625 25.578125 m 3
 72.220703125 25.578125 278.350585938 293.360351562 278.350585938 488.243164062 c 1024
EndSplineSet
Fore
Validated: 1
EndChar

StartChar: ccvt
Encoding: 57387 57387 91
Width: 0
VWidth: 1540
LayerCount: 3
Back
SplineSet
240.736328125 488.243164062 m 0
 203.873046875 424.296875 156.478515625 394.205078125 78.2392578125 394.205078125 c 3
 5.265625 394.205078125 -60.18359375 433.325195312 -92.533203125 487.490234375 c 1024
403.232421875 644.720703125 m 25
 353.581054688 644.720703125 241.48828125 644.720703125 241.48828125 644.720703125 c 25
 191.836914062 644.720703125 107.579101562 644.720703125 107.579101562 644.720703125 c 1049
353.95703125 25.578125 m 3
 266.690429688 25.578125 241.112304688 99.3037109375 241.112304688 180.551757812 c 0
 241.112304688 181.826171875 241.216796875 742.469726562 241.163085938 1000.55859375 c 1025
EndSplineSet
Fore
Validated: 1
EndChar

StartChar: ccgt
Encoding: 57399 57399 92
Width: 2048
LayerCount: 3
Back
SplineSet
449.123046875 644.720703125 m 29
 399.471679688 644.720703125 287.37890625 644.720703125 287.37890625 644.720703125 c 29
 237.7265625 644.720703125 153.46875 644.720703125 153.46875 644.720703125 c 1053
399.84765625 25.578125 m 7
 312.581054688 25.578125 287.002929688 99.3037109375 287.002929688 180.551757812 c 4
 287.002929688 181.826171875 287.106445312 742.469726562 287.052734375 1000.55859375 c 1029
-56.4228515625 487.490234375 m 25
 -56.4228515625 487.490234375 -56.4228515625 109.39453125 -56.4228515625 108.331054688 c 0
 -56.4248046875 -33.8701171875 -56.4228515625 -229.00390625 -56.4228515625 -489.37109375 c 0
 -56.4228515625 -628.170898438 -72.220703125 -743.272460938 -181.680664062 -743.272460938 c 1024
-56.4228515625 412.260742188 m 0
 -78.2392578125 440.84765625 -126.38671875 487.490234375 -187.322265625 487.490234375 c 0
 -299.866210938 487.490234375 -373.215820312 381.416015625 -373.215820312 255.782226562 c 0
 -373.215820312 128.643554688 -294.600585938 25.578125 -198.607421875 25.578125 c 0
 -120.368164062 25.578125 -56.4228515625 109.8125 -56.4228515625 217.415039062 c 1024
EndSplineSet
Fore
Validated: 1
EndChar

StartChar: ccst
Encoding: 57411 57411 93
Width: 0
VWidth: 1540
LayerCount: 3
Back
SplineSet
-19.5595703125 25.578125 m 7
 82.763671875 25.578125 240.736328125 435.052734375 240.736328125 607.858398438 c 1052
-319.48828125 80.7685546875 m 1
 -285.874023438 33.1015625 -250.515625 25.6865234375 -205.377929688 25.6865234375 c 1024
EndSplineSet
Fore
Validated: 1
EndChar

StartChar: ccpt
Encoding: 57423 57423 94
Width: 2048
LayerCount: 3
Back
SplineSet
-332.516601562 25.578125 m 7
 -247.409179688 25.578125 -174.37109375 31.478515625 -99.3037109375 77.4873046875 c 4
 87.2666015625 191.836914062 279.103515625 306.1796875 279.103515625 488.243164062 c 1028
EndSplineSet
Fore
Validated: 1
EndChar

StartChar: cczt
Encoding: 57435 57435 95
Width: 0
VWidth: 1540
LayerCount: 3
Back
SplineSet
-19.5595703125 25.578125 m 7
 82.763671875 25.578125 240.736328125 435.052734375 240.736328125 607.858398438 c 1052
-72.97265625 25.578125 m 3
 39.119140625 25.578125 240.736328125 315.4375 240.736328125 488.243164062 c 1048
EndSplineSet
Fore
Validated: 1
EndChar

StartChar: C
Encoding: 67 67 97
Width: 600
Flags: W
LayerCount: 3
Back
SplineSet
451.475585938 25.033203125 m 0
 219.073242188 25.033203125 28.744140625 298.559570312 28.744140625 637.14453125 c 0
 28.744140625 975.73046875 219.073242188 1254.2109375 451.475585938 1254.2109375 c 3
 537.802734375 1254.2109375 571.954101562 1177.41894531 571.954101562 1103.36914062 c 3
 571.954101562 950.633789062 293.057617188 808.338867188 47.349609375 808.338867188 c 3
 -29.513671875 808.338867188 -99.69140625 838.696289062 -143.328125 883.283203125 c 1024
EndSplineSet
Fore
SplineSet
575 1364 m 128,-1,1
 575 1372 575 1372 583 1372 c 128,-1,2
 591 1372 591 1372 591 1364 c 128,-1,3
 591 1356 591 1356 583 1356 c 128,-1,0
 575 1356 575 1356 575 1364 c 128,-1,1
550 1364 m 128,-1,5
 550 1372 550 1372 558 1372 c 128,-1,6
 566 1372 566 1372 566 1364 c 128,-1,7
 566 1356 566 1356 558 1356 c 128,-1,4
 550 1356 550 1356 550 1364 c 128,-1,5
525 1364 m 128,-1,9
 525 1372 525 1372 533 1372 c 128,-1,10
 541 1372 541 1372 541 1364 c 128,-1,11
 541 1356 541 1356 533 1356 c 128,-1,8
 525 1356 525 1356 525 1364 c 128,-1,9
500 1364 m 128,-1,13
 500 1372 500 1372 508 1372 c 128,-1,14
 516 1372 516 1372 516 1364 c 128,-1,15
 516 1356 516 1356 508 1356 c 128,-1,12
 500 1356 500 1356 500 1364 c 128,-1,13
475 1364 m 128,-1,17
 475 1372 475 1372 483 1372 c 128,-1,18
 491 1372 491 1372 491 1364 c 128,-1,19
 491 1356 491 1356 483 1356 c 128,-1,16
 475 1356 475 1356 475 1364 c 128,-1,17
450 1364 m 128,-1,21
 450 1372 450 1372 458 1372 c 128,-1,22
 466 1372 466 1372 466 1364 c 128,-1,23
 466 1356 466 1356 458 1356 c 128,-1,20
 450 1356 450 1356 450 1364 c 128,-1,21
425 1364 m 128,-1,25
 425 1372 425 1372 433 1372 c 128,-1,26
 441 1372 441 1372 441 1364 c 128,-1,27
 441 1356 441 1356 433 1356 c 128,-1,24
 425 1356 425 1356 425 1364 c 128,-1,25
400 1364 m 128,-1,29
 400 1372 400 1372 408 1372 c 128,-1,30
 416 1372 416 1372 416 1364 c 128,-1,31
 416 1356 416 1356 408 1356 c 128,-1,28
 400 1356 400 1356 400 1364 c 128,-1,29
375 1364 m 128,-1,33
 375 1372 375 1372 383 1372 c 128,-1,34
 391 1372 391 1372 391 1364 c 128,-1,35
 391 1356 391 1356 383 1356 c 128,-1,32
 375 1356 375 1356 375 1364 c 128,-1,33
350 1364 m 128,-1,37
 350 1372 350 1372 358 1372 c 128,-1,38
 366 1372 366 1372 366 1364 c 128,-1,39
 366 1356 366 1356 358 1356 c 128,-1,36
 350 1356 350 1356 350 1364 c 128,-1,37
325 1364 m 128,-1,41
 325 1372 325 1372 333 1372 c 128,-1,42
 341 1372 341 1372 341 1364 c 128,-1,43
 341 1356 341 1356 333 1356 c 128,-1,40
 325 1356 325 1356 325 1364 c 128,-1,41
300 1364 m 128,-1,45
 300 1372 300 1372 308 1372 c 128,-1,46
 316 1372 316 1372 316 1364 c 128,-1,47
 316 1356 316 1356 308 1356 c 128,-1,44
 300 1356 300 1356 300 1364 c 128,-1,45
275 1364 m 128,-1,49
 275 1372 275 1372 283 1372 c 128,-1,50
 291 1372 291 1372 291 1364 c 128,-1,51
 291 1356 291 1356 283 1356 c 128,-1,48
 275 1356 275 1356 275 1364 c 128,-1,49
250 1364 m 128,-1,53
 250 1372 250 1372 258 1372 c 128,-1,54
 266 1372 266 1372 266 1364 c 128,-1,55
 266 1356 266 1356 258 1356 c 128,-1,52
 250 1356 250 1356 250 1364 c 128,-1,53
225 1364 m 128,-1,57
 225 1372 225 1372 233 1372 c 128,-1,58
 241 1372 241 1372 241 1364 c 128,-1,59
 241 1356 241 1356 233 1356 c 128,-1,56
 225 1356 225 1356 225 1364 c 128,-1,57
200 1364 m 128,-1,61
 200 1372 200 1372 208 1372 c 128,-1,62
 216 1372 216 1372 216 1364 c 128,-1,63
 216 1356 216 1356 208 1356 c 128,-1,60
 200 1356 200 1356 200 1364 c 128,-1,61
175 1364 m 128,-1,65
 175 1372 175 1372 183 1372 c 128,-1,66
 191 1372 191 1372 191 1364 c 128,-1,67
 191 1356 191 1356 183 1356 c 128,-1,64
 175 1356 175 1356 175 1364 c 128,-1,65
150 1364 m 128,-1,69
 150 1372 150 1372 158 1372 c 128,-1,70
 166 1372 166 1372 166 1364 c 128,-1,71
 166 1356 166 1356 158 1356 c 128,-1,68
 150 1356 150 1356 150 1364 c 128,-1,69
125 1364 m 128,-1,73
 125 1372 125 1372 133 1372 c 128,-1,74
 141 1372 141 1372 141 1364 c 128,-1,75
 141 1356 141 1356 133 1356 c 128,-1,72
 125 1356 125 1356 125 1364 c 128,-1,73
100 1364 m 128,-1,77
 100 1372 100 1372 108 1372 c 128,-1,78
 116 1372 116 1372 116 1364 c 128,-1,79
 116 1356 116 1356 108 1356 c 128,-1,76
 100 1356 100 1356 100 1364 c 128,-1,77
75 1364 m 128,-1,81
 75 1372 75 1372 83 1372 c 128,-1,82
 91 1372 91 1372 91 1364 c 128,-1,83
 91 1356 91 1356 83 1356 c 128,-1,80
 75 1356 75 1356 75 1364 c 128,-1,81
50 1364 m 128,-1,85
 50 1372 50 1372 58 1372 c 128,-1,86
 66 1372 66 1372 66 1364 c 128,-1,87
 66 1356 66 1356 58 1356 c 128,-1,84
 50 1356 50 1356 50 1364 c 128,-1,85
25 1364 m 128,-1,89
 25 1372 25 1372 33 1372 c 128,-1,90
 41 1372 41 1372 41 1364 c 128,-1,91
 41 1356 41 1356 33 1356 c 128,-1,88
 25 1356 25 1356 25 1364 c 128,-1,89
0 1364 m 128,-1,93
 0 1372 0 1372 8 1372 c 128,-1,94
 16 1372 16 1372 16 1364 c 128,-1,95
 16 1356 16 1356 8 1356 c 128,-1,92
 0 1356 0 1356 0 1364 c 128,-1,93
525 690 m 1,96,-1
 571 690 l 1,97,-1
 571 674 l 1,98,-1
 525 674 l 1,99,-1
 525 690 l 1,96,-1
450 690 m 1,100,-1
 496 690 l 1,101,-1
 496 674 l 1,102,-1
 450 674 l 1,103,-1
 450 690 l 1,100,-1
375 690 m 1,104,-1
 421 690 l 1,105,-1
 421 674 l 1,106,-1
 375 674 l 1,107,-1
 375 690 l 1,104,-1
300 690 m 1,108,-1
 346 690 l 1,109,-1
 346 674 l 1,110,-1
 300 674 l 1,111,-1
 300 690 l 1,108,-1
225 690 m 1,112,-1
 271 690 l 1,113,-1
 271 674 l 1,114,-1
 225 674 l 1,115,-1
 225 690 l 1,112,-1
150 690 m 1,116,-1
 196 690 l 1,117,-1
 196 674 l 1,118,-1
 150 674 l 1,119,-1
 150 690 l 1,116,-1
75 690 m 1,120,-1
 121 690 l 1,121,-1
 121 674 l 1,122,-1
 75 674 l 1,123,-1
 75 690 l 1,120,-1
0 690 m 1,124,-1
 46 690 l 1,125,-1
 46 674 l 1,126,-1
 0 674 l 1,127,-1
 0 690 l 1,124,-1
0 14 m 1,128,-1
 602 14 l 5,129,-1
 602 -14 l 5,130,-1
 0 -14 l 1,131,-1
 0 14 l 1,128,-1
EndSplineSet
Validated: 1
EndChar

StartChar: G
Encoding: 71 71 98
Width: 600
Flags: W
LayerCount: 3
Back
SplineSet
525 690 m 5
 571 690 l 5
 571 674 l 5
 525 674 l 5
 525 690 l 5
450 690 m 5
 496 690 l 5
 496 674 l 5
 450 674 l 5
 450 690 l 5
375 690 m 5
 421 690 l 5
 421 674 l 5
 375 674 l 5
 375 690 l 5
300 690 m 5
 346 690 l 5
 346 674 l 5
 300 674 l 5
 300 690 l 5
225 690 m 5
 271 690 l 5
 271 674 l 5
 225 674 l 5
 225 690 l 5
150 690 m 5
 196 690 l 5
 196 674 l 5
 150 674 l 5
 150 690 l 5
75 690 m 5
 121 690 l 5
 121 674 l 5
 75 674 l 5
 75 690 l 5
0 -674 m 5
 601 -674 l 5
 601 -690 l 5
 0 -690 l 5
 0 -674 l 5
0 690 m 5
 46 690 l 5
 46 674 l 5
 0 674 l 5
 0 690 l 5
0 1372 m 5
 601 1372 l 5
 601 1356 l 5
 0 1356 l 5
 0 1372 l 5
0 14 m 5
 601 14 l 5
 601 -14 l 5
 0 -14 l 5
 0 14 l 5
EndSplineSet
Fore
SplineSet
575 -682 m 132,-1,1
 575 -674 575 -674 583 -674 c 132,-1,2
 591 -674 591 -674 591 -682 c 132,-1,3
 591 -690 591 -690 583 -690 c 132,-1,0
 575 -690 575 -690 575 -682 c 132,-1,1
550 -682 m 132,-1,5
 550 -674 550 -674 558 -674 c 132,-1,6
 566 -674 566 -674 566 -682 c 132,-1,7
 566 -690 566 -690 558 -690 c 132,-1,4
 550 -690 550 -690 550 -682 c 132,-1,5
525 -682 m 132,-1,9
 525 -674 525 -674 533 -674 c 132,-1,10
 541 -674 541 -674 541 -682 c 132,-1,11
 541 -690 541 -690 533 -690 c 132,-1,8
 525 -690 525 -690 525 -682 c 132,-1,9
500 -682 m 132,-1,13
 500 -674 500 -674 508 -674 c 132,-1,14
 516 -674 516 -674 516 -682 c 132,-1,15
 516 -690 516 -690 508 -690 c 132,-1,12
 500 -690 500 -690 500 -682 c 132,-1,13
475 -682 m 132,-1,17
 475 -674 475 -674 483 -674 c 132,-1,18
 491 -674 491 -674 491 -682 c 132,-1,19
 491 -690 491 -690 483 -690 c 132,-1,16
 475 -690 475 -690 475 -682 c 132,-1,17
450 -682 m 132,-1,21
 450 -674 450 -674 458 -674 c 132,-1,22
 466 -674 466 -674 466 -682 c 132,-1,23
 466 -690 466 -690 458 -690 c 132,-1,20
 450 -690 450 -690 450 -682 c 132,-1,21
425 -682 m 132,-1,25
 425 -674 425 -674 433 -674 c 132,-1,26
 441 -674 441 -674 441 -682 c 132,-1,27
 441 -690 441 -690 433 -690 c 132,-1,24
 425 -690 425 -690 425 -682 c 132,-1,25
400 -682 m 132,-1,29
 400 -674 400 -674 408 -674 c 132,-1,30
 416 -674 416 -674 416 -682 c 132,-1,31
 416 -690 416 -690 408 -690 c 132,-1,28
 400 -690 400 -690 400 -682 c 132,-1,29
375 -682 m 132,-1,33
 375 -674 375 -674 383 -674 c 132,-1,34
 391 -674 391 -674 391 -682 c 132,-1,35
 391 -690 391 -690 383 -690 c 132,-1,32
 375 -690 375 -690 375 -682 c 132,-1,33
350 -682 m 132,-1,37
 350 -674 350 -674 358 -674 c 132,-1,38
 366 -674 366 -674 366 -682 c 132,-1,39
 366 -690 366 -690 358 -690 c 132,-1,36
 350 -690 350 -690 350 -682 c 132,-1,37
325 -682 m 132,-1,41
 325 -674 325 -674 333 -674 c 132,-1,42
 341 -674 341 -674 341 -682 c 132,-1,43
 341 -690 341 -690 333 -690 c 132,-1,40
 325 -690 325 -690 325 -682 c 132,-1,41
300 -682 m 132,-1,45
 300 -674 300 -674 308 -674 c 132,-1,46
 316 -674 316 -674 316 -682 c 132,-1,47
 316 -690 316 -690 308 -690 c 132,-1,44
 300 -690 300 -690 300 -682 c 132,-1,45
275 -682 m 132,-1,49
 275 -674 275 -674 283 -674 c 132,-1,50
 291 -674 291 -674 291 -682 c 132,-1,51
 291 -690 291 -690 283 -690 c 132,-1,48
 275 -690 275 -690 275 -682 c 132,-1,49
250 -682 m 132,-1,53
 250 -674 250 -674 258 -674 c 132,-1,54
 266 -674 266 -674 266 -682 c 132,-1,55
 266 -690 266 -690 258 -690 c 132,-1,52
 250 -690 250 -690 250 -682 c 132,-1,53
225 -682 m 132,-1,57
 225 -674 225 -674 233 -674 c 132,-1,58
 241 -674 241 -674 241 -682 c 132,-1,59
 241 -690 241 -690 233 -690 c 132,-1,56
 225 -690 225 -690 225 -682 c 132,-1,57
200 -682 m 132,-1,61
 200 -674 200 -674 208 -674 c 132,-1,62
 216 -674 216 -674 216 -682 c 132,-1,63
 216 -690 216 -690 208 -690 c 132,-1,60
 200 -690 200 -690 200 -682 c 132,-1,61
175 -682 m 132,-1,65
 175 -674 175 -674 183 -674 c 132,-1,66
 191 -674 191 -674 191 -682 c 132,-1,67
 191 -690 191 -690 183 -690 c 132,-1,64
 175 -690 175 -690 175 -682 c 132,-1,65
150 -682 m 132,-1,69
 150 -674 150 -674 158 -674 c 132,-1,70
 166 -674 166 -674 166 -682 c 132,-1,71
 166 -690 166 -690 158 -690 c 132,-1,68
 150 -690 150 -690 150 -682 c 132,-1,69
125 -682 m 132,-1,73
 125 -674 125 -674 133 -674 c 132,-1,74
 141 -674 141 -674 141 -682 c 132,-1,75
 141 -690 141 -690 133 -690 c 132,-1,72
 125 -690 125 -690 125 -682 c 132,-1,73
100 -682 m 132,-1,77
 100 -674 100 -674 108 -674 c 132,-1,78
 116 -674 116 -674 116 -682 c 132,-1,79
 116 -690 116 -690 108 -690 c 132,-1,76
 100 -690 100 -690 100 -682 c 132,-1,77
75 -682 m 132,-1,81
 75 -674 75 -674 83 -674 c 132,-1,82
 91 -674 91 -674 91 -682 c 132,-1,83
 91 -690 91 -690 83 -690 c 132,-1,80
 75 -690 75 -690 75 -682 c 132,-1,81
50 -682 m 132,-1,85
 50 -674 50 -674 58 -674 c 132,-1,86
 66 -674 66 -674 66 -682 c 132,-1,87
 66 -690 66 -690 58 -690 c 132,-1,84
 50 -690 50 -690 50 -682 c 132,-1,85
25 -682 m 132,-1,89
 25 -674 25 -674 33 -674 c 132,-1,90
 41 -674 41 -674 41 -682 c 132,-1,91
 41 -690 41 -690 33 -690 c 132,-1,88
 25 -690 25 -690 25 -682 c 132,-1,89
0 -682 m 132,-1,93
 0 -674 0 -674 8 -674 c 132,-1,94
 16 -674 16 -674 16 -682 c 132,-1,95
 16 -690 16 -690 8 -690 c 132,-1,92
 0 -690 0 -690 0 -682 c 132,-1,93
EndSplineSet
Validated: 1
EndChar

StartChar: N
Encoding: 78 78 99
Width: 975
VWidth: 2431
Flags: W
AnchorPoint: "topright" 776.253 1255.84 basechar 0
AnchorPoint: "topleft" 455.049 1255.84 basechar 0
AnchorPoint: "topmid" 615.65 1255.84 basechar 0
LayerCount: 3
Back
SplineSet
956.826171875 27.080078125 m 0
 901.8046875 27.080078125 885.677734375 73.5634765625 886.203125 124.591796875 c 8
 887.23046875 531.76171875 887 1256.09375 887 1256.09375 c 1024
886.275390625 318.315429688 m 0
 886.275390625 216.810546875 732.59375 27.080078125 496.5625 27.080078125 c 3
 332.428710938 27.080078125 228.341796875 149.180664062 228.341796875 301.305664062 c 0
 228.341796875 301.305664062 228.341796875 1254.72753906 228.341796875 1256.73046875 c 1024
EndSplineSet
Fore
Validated: 1
EndChar

StartChar: A
Encoding: 65 65 100
Width: 600
Flags: W
LayerCount: 3
Fore
SplineSet
525 690 m 1,0,-1
 571 690 l 1,1,-1
 571 674 l 1,2,-1
 525 674 l 1,3,-1
 525 690 l 1,0,-1
450 690 m 1,4,-1
 496 690 l 1,5,-1
 496 674 l 1,6,-1
 450 674 l 1,7,-1
 450 690 l 1,4,-1
375 690 m 1,8,-1
 421 690 l 1,9,-1
 421 674 l 1,10,-1
 375 674 l 1,11,-1
 375 690 l 1,8,-1
300 690 m 1,12,-1
 346 690 l 1,13,-1
 346 674 l 1,14,-1
 300 674 l 1,15,-1
 300 690 l 1,12,-1
225 690 m 1,16,-1
 271 690 l 1,17,-1
 271 674 l 1,18,-1
 225 674 l 1,19,-1
 225 690 l 1,16,-1
150 690 m 1,20,-1
 196 690 l 1,21,-1
 196 674 l 1,22,-1
 150 674 l 1,23,-1
 150 690 l 1,20,-1
75 690 m 1,24,-1
 121 690 l 1,25,-1
 121 674 l 1,26,-1
 75 674 l 1,27,-1
 75 690 l 1,24,-1
0 690 m 1,28,-1
 46 690 l 1,29,-1
 46 674 l 1,30,-1
 0 674 l 1,31,-1
 0 690 l 1,28,-1
0 1372 m 1,32,-1
 602 1372 l 5,33,-1
 602 1356 l 5,34,-1
 0 1356 l 1,35,-1
 0 1372 l 1,32,-1
0 14 m 1,36,-1
 602 14 l 5,37,-1
 602 -14 l 5,38,-1
 0 -14 l 1,39,-1
 0 14 l 1,36,-1
EndSplineSet
Validated: 1
EndChar

StartChar: M
Encoding: 77 77 101
Width: 1371
VWidth: 2431
Flags: W
AnchorPoint: "topmid" 1192.76 1204.34 basechar 0
AnchorPoint: "topleft" 1083.55 1204.34 basechar 0
AnchorPoint: "topright" 1301.97 1204.34 basechar 0
LayerCount: 3
Back
SplineSet
1537.21972656 1256.32617188 m 0
 1518.24707031 1223.12402344 1494.53027344 1207.04882812 1460.37890625 1189.19238281 c 0
 1430.44628906 1173.54199219 1401.66113281 1171 1375 1171 c 3
 1348.33984375 1171 1318.60644531 1173.54199219 1288.67382812 1189.19238281 c 0
 1254.52148438 1207.04882812 1232.703125 1223.12402344 1213.73046875 1256.32617188 c 0
 1251.22070312 1189.27929688 1291 1019.09082031 1291 813 c 3
 1291 574.888671875 1248.41992188 344.708984375 1191.57226562 230.68359375 c 0
 1114.0078125 75.1044921875 1007.55273438 24.671875 933.9375 24.671875 c 3
 804.38671875 24.671875 755.28125 121.9609375 755.28125 303.1484375 c 8
 754.665039062 674.267578125 755.736328125 922.56640625 755.736328125 1254.40429688 c 1024
755.392578125 373.989257812 m 0
 755.392578125 272.484375 639.978515625 24.75390625 443.623046875 24.75390625 c 3
 312.314453125 24.75390625 229.045898438 146.854492188 229.045898438 298.979492188 c 0
 229.045898438 298.979492188 229.045898438 1156.40136719 229.045898438 1158.40429688 c 0
 229.208007812 1204.4609375 213.081054688 1256.20410156 158.059570312 1256.20410156 c 3
 118.215820312 1256.20410156 98.6357421875 1218.15625 84.0654296875 1189.69628906 c 0
 25.8583984375 1071.11523438 l 1025
EndSplineSet
Fore
Validated: 1
EndChar

StartChar: E
Encoding: 69 69 102
Width: 600
Flags: W
LayerCount: 3
Back
SplineSet
311.512695312 24.7236328125 m 0
 153.736328125 24.7236328125 25.869140625 149.541015625 25.869140625 304.326171875 c 3
 25.869140625 414.932617188 93.677734375 514.560546875 188.153320312 557.794921875 c 0
 235.646484375 579.528320312 332.702148438 574.756835938 332.702148438 574.756835938 c 2
 332.702148438 574.756835938 248.303710938 574.176757812 212.254882812 591.508789062 c 0
 142.427734375 625.080078125 92.626953125 700.938476562 92.626953125 783.754882812 c 3
 92.626953125 903.3671875 191.438476562 1000.44238281 314.57421875 1000.91796875 c 0
 375.94921875 1000.91796875 431.46875 975.625 471.474609375 936.626953125 c 1025
EndSplineSet
Fore
SplineSet
0 1372 m 1,0,-1
 602 1372 l 5,1,-1
 602 1356 l 5,2,-1
 0 1356 l 1,3,-1
 0 1372 l 1,0,-1
0 14 m 1,4,-1
 602 14 l 5,5,-1
 602 -14 l 5,6,-1
 0 -14 l 1,7,-1
 0 14 l 1,4,-1
EndSplineSet
Validated: 1
EndChar

StartChar: B
Encoding: 66 66 104
Width: 600
Flags: W
LayerCount: 3
Back
SplineSet
24.197265625 1205.82324219 m 5
 127.600585938 1243.77050781 183.682617188 1256.65722656 261.078125 1256.65722656 c 4
 416.352539062 1256.65722656 533.364257812 1131.64648438 533.364257812 980.814453125 c 7
 533.364257812 825.41015625 428.323242188 771.342773438 375.872070312 745.032226562 c 4
 306.133789062 710.051757812 144.676757812 717.268554688 144.676757812 717.268554688 c 6
 144.676757812 717.268554688 316.926757812 723.4921875 407.212890625 696.827148438 c 4
 472.909179688 677.424804688 621.33984375 580.677734375 621.33984375 393.33203125 c 7
 621.33984375 186.9296875 470.0625 25.708984375 264.938476562 24.6259765625 c 4
 204.442382812 24.306640625 95.10546875 24.578125 34 24.578125 c 1028
144.659179688 1240.92285156 m 22
 144.659179688 1240.92285156 144.247070312 119.647460938 144.247070312 24.27734375 c 1031
EndSplineSet
Fore
SplineSet
575 1364 m 128,-1,1
 575 1372 575 1372 583 1372 c 128,-1,2
 591 1372 591 1372 591 1364 c 128,-1,3
 591 1356 591 1356 583 1356 c 128,-1,0
 575 1356 575 1356 575 1364 c 128,-1,1
550 1364 m 128,-1,5
 550 1372 550 1372 558 1372 c 128,-1,6
 566 1372 566 1372 566 1364 c 128,-1,7
 566 1356 566 1356 558 1356 c 128,-1,4
 550 1356 550 1356 550 1364 c 128,-1,5
525 1364 m 128,-1,9
 525 1372 525 1372 533 1372 c 128,-1,10
 541 1372 541 1372 541 1364 c 128,-1,11
 541 1356 541 1356 533 1356 c 128,-1,8
 525 1356 525 1356 525 1364 c 128,-1,9
500 1364 m 128,-1,13
 500 1372 500 1372 508 1372 c 128,-1,14
 516 1372 516 1372 516 1364 c 128,-1,15
 516 1356 516 1356 508 1356 c 128,-1,12
 500 1356 500 1356 500 1364 c 128,-1,13
475 1364 m 128,-1,17
 475 1372 475 1372 483 1372 c 128,-1,18
 491 1372 491 1372 491 1364 c 128,-1,19
 491 1356 491 1356 483 1356 c 128,-1,16
 475 1356 475 1356 475 1364 c 128,-1,17
450 1364 m 128,-1,21
 450 1372 450 1372 458 1372 c 128,-1,22
 466 1372 466 1372 466 1364 c 128,-1,23
 466 1356 466 1356 458 1356 c 128,-1,20
 450 1356 450 1356 450 1364 c 128,-1,21
425 1364 m 128,-1,25
 425 1372 425 1372 433 1372 c 128,-1,26
 441 1372 441 1372 441 1364 c 128,-1,27
 441 1356 441 1356 433 1356 c 128,-1,24
 425 1356 425 1356 425 1364 c 128,-1,25
400 1364 m 128,-1,29
 400 1372 400 1372 408 1372 c 128,-1,30
 416 1372 416 1372 416 1364 c 128,-1,31
 416 1356 416 1356 408 1356 c 128,-1,28
 400 1356 400 1356 400 1364 c 128,-1,29
375 1364 m 128,-1,33
 375 1372 375 1372 383 1372 c 128,-1,34
 391 1372 391 1372 391 1364 c 128,-1,35
 391 1356 391 1356 383 1356 c 128,-1,32
 375 1356 375 1356 375 1364 c 128,-1,33
350 1364 m 128,-1,37
 350 1372 350 1372 358 1372 c 128,-1,38
 366 1372 366 1372 366 1364 c 128,-1,39
 366 1356 366 1356 358 1356 c 128,-1,36
 350 1356 350 1356 350 1364 c 128,-1,37
325 1364 m 128,-1,41
 325 1372 325 1372 333 1372 c 128,-1,42
 341 1372 341 1372 341 1364 c 128,-1,43
 341 1356 341 1356 333 1356 c 128,-1,40
 325 1356 325 1356 325 1364 c 128,-1,41
300 1364 m 128,-1,45
 300 1372 300 1372 308 1372 c 128,-1,46
 316 1372 316 1372 316 1364 c 128,-1,47
 316 1356 316 1356 308 1356 c 128,-1,44
 300 1356 300 1356 300 1364 c 128,-1,45
275 1364 m 128,-1,49
 275 1372 275 1372 283 1372 c 128,-1,50
 291 1372 291 1372 291 1364 c 128,-1,51
 291 1356 291 1356 283 1356 c 128,-1,48
 275 1356 275 1356 275 1364 c 128,-1,49
250 1364 m 128,-1,53
 250 1372 250 1372 258 1372 c 128,-1,54
 266 1372 266 1372 266 1364 c 128,-1,55
 266 1356 266 1356 258 1356 c 128,-1,52
 250 1356 250 1356 250 1364 c 128,-1,53
225 1364 m 128,-1,57
 225 1372 225 1372 233 1372 c 128,-1,58
 241 1372 241 1372 241 1364 c 128,-1,59
 241 1356 241 1356 233 1356 c 128,-1,56
 225 1356 225 1356 225 1364 c 128,-1,57
200 1364 m 128,-1,61
 200 1372 200 1372 208 1372 c 128,-1,62
 216 1372 216 1372 216 1364 c 128,-1,63
 216 1356 216 1356 208 1356 c 128,-1,60
 200 1356 200 1356 200 1364 c 128,-1,61
175 1364 m 128,-1,65
 175 1372 175 1372 183 1372 c 128,-1,66
 191 1372 191 1372 191 1364 c 128,-1,67
 191 1356 191 1356 183 1356 c 128,-1,64
 175 1356 175 1356 175 1364 c 128,-1,65
150 1364 m 128,-1,69
 150 1372 150 1372 158 1372 c 128,-1,70
 166 1372 166 1372 166 1364 c 128,-1,71
 166 1356 166 1356 158 1356 c 128,-1,68
 150 1356 150 1356 150 1364 c 128,-1,69
125 1364 m 128,-1,73
 125 1372 125 1372 133 1372 c 128,-1,74
 141 1372 141 1372 141 1364 c 128,-1,75
 141 1356 141 1356 133 1356 c 128,-1,72
 125 1356 125 1356 125 1364 c 128,-1,73
100 1364 m 128,-1,77
 100 1372 100 1372 108 1372 c 128,-1,78
 116 1372 116 1372 116 1364 c 128,-1,79
 116 1356 116 1356 108 1356 c 128,-1,76
 100 1356 100 1356 100 1364 c 128,-1,77
75 1364 m 128,-1,81
 75 1372 75 1372 83 1372 c 128,-1,82
 91 1372 91 1372 91 1364 c 128,-1,83
 91 1356 91 1356 83 1356 c 128,-1,80
 75 1356 75 1356 75 1364 c 128,-1,81
50 1364 m 128,-1,85
 50 1372 50 1372 58 1372 c 128,-1,86
 66 1372 66 1372 66 1364 c 128,-1,87
 66 1356 66 1356 58 1356 c 128,-1,84
 50 1356 50 1356 50 1364 c 128,-1,85
25 1364 m 128,-1,89
 25 1372 25 1372 33 1372 c 128,-1,90
 41 1372 41 1372 41 1364 c 128,-1,91
 41 1356 41 1356 33 1356 c 128,-1,88
 25 1356 25 1356 25 1364 c 128,-1,89
0 1364 m 128,-1,93
 0 1372 0 1372 8 1372 c 128,-1,94
 16 1372 16 1372 16 1364 c 128,-1,95
 16 1356 16 1356 8 1356 c 128,-1,92
 0 1356 0 1356 0 1364 c 128,-1,93
575 -682 m 128,-1,97
 575 -674 575 -674 583 -674 c 128,-1,98
 591 -674 591 -674 591 -682 c 128,-1,99
 591 -690 591 -690 583 -690 c 128,-1,96
 575 -690 575 -690 575 -682 c 128,-1,97
550 -682 m 128,-1,101
 550 -674 550 -674 558 -674 c 128,-1,102
 566 -674 566 -674 566 -682 c 128,-1,103
 566 -690 566 -690 558 -690 c 128,-1,100
 550 -690 550 -690 550 -682 c 128,-1,101
525 -682 m 128,-1,105
 525 -674 525 -674 533 -674 c 128,-1,106
 541 -674 541 -674 541 -682 c 128,-1,107
 541 -690 541 -690 533 -690 c 128,-1,104
 525 -690 525 -690 525 -682 c 128,-1,105
500 -682 m 128,-1,109
 500 -674 500 -674 508 -674 c 128,-1,110
 516 -674 516 -674 516 -682 c 128,-1,111
 516 -690 516 -690 508 -690 c 128,-1,108
 500 -690 500 -690 500 -682 c 128,-1,109
475 -682 m 128,-1,113
 475 -674 475 -674 483 -674 c 128,-1,114
 491 -674 491 -674 491 -682 c 128,-1,115
 491 -690 491 -690 483 -690 c 128,-1,112
 475 -690 475 -690 475 -682 c 128,-1,113
450 -682 m 128,-1,117
 450 -674 450 -674 458 -674 c 128,-1,118
 466 -674 466 -674 466 -682 c 128,-1,119
 466 -690 466 -690 458 -690 c 128,-1,116
 450 -690 450 -690 450 -682 c 128,-1,117
425 -682 m 128,-1,121
 425 -674 425 -674 433 -674 c 128,-1,122
 441 -674 441 -674 441 -682 c 128,-1,123
 441 -690 441 -690 433 -690 c 128,-1,120
 425 -690 425 -690 425 -682 c 128,-1,121
400 -682 m 128,-1,125
 400 -674 400 -674 408 -674 c 128,-1,126
 416 -674 416 -674 416 -682 c 128,-1,127
 416 -690 416 -690 408 -690 c 128,-1,124
 400 -690 400 -690 400 -682 c 128,-1,125
375 -682 m 128,-1,129
 375 -674 375 -674 383 -674 c 128,-1,130
 391 -674 391 -674 391 -682 c 128,-1,131
 391 -690 391 -690 383 -690 c 128,-1,128
 375 -690 375 -690 375 -682 c 128,-1,129
350 -682 m 128,-1,133
 350 -674 350 -674 358 -674 c 128,-1,134
 366 -674 366 -674 366 -682 c 128,-1,135
 366 -690 366 -690 358 -690 c 128,-1,132
 350 -690 350 -690 350 -682 c 128,-1,133
325 -682 m 128,-1,137
 325 -674 325 -674 333 -674 c 128,-1,138
 341 -674 341 -674 341 -682 c 128,-1,139
 341 -690 341 -690 333 -690 c 128,-1,136
 325 -690 325 -690 325 -682 c 128,-1,137
300 -682 m 128,-1,141
 300 -674 300 -674 308 -674 c 128,-1,142
 316 -674 316 -674 316 -682 c 128,-1,143
 316 -690 316 -690 308 -690 c 128,-1,140
 300 -690 300 -690 300 -682 c 128,-1,141
275 -682 m 128,-1,145
 275 -674 275 -674 283 -674 c 128,-1,146
 291 -674 291 -674 291 -682 c 128,-1,147
 291 -690 291 -690 283 -690 c 128,-1,144
 275 -690 275 -690 275 -682 c 128,-1,145
250 -682 m 128,-1,149
 250 -674 250 -674 258 -674 c 128,-1,150
 266 -674 266 -674 266 -682 c 128,-1,151
 266 -690 266 -690 258 -690 c 128,-1,148
 250 -690 250 -690 250 -682 c 128,-1,149
225 -682 m 128,-1,153
 225 -674 225 -674 233 -674 c 128,-1,154
 241 -674 241 -674 241 -682 c 128,-1,155
 241 -690 241 -690 233 -690 c 128,-1,152
 225 -690 225 -690 225 -682 c 128,-1,153
200 -682 m 128,-1,157
 200 -674 200 -674 208 -674 c 128,-1,158
 216 -674 216 -674 216 -682 c 128,-1,159
 216 -690 216 -690 208 -690 c 128,-1,156
 200 -690 200 -690 200 -682 c 128,-1,157
175 -682 m 128,-1,161
 175 -674 175 -674 183 -674 c 128,-1,162
 191 -674 191 -674 191 -682 c 128,-1,163
 191 -690 191 -690 183 -690 c 128,-1,160
 175 -690 175 -690 175 -682 c 128,-1,161
150 -682 m 128,-1,165
 150 -674 150 -674 158 -674 c 128,-1,166
 166 -674 166 -674 166 -682 c 128,-1,167
 166 -690 166 -690 158 -690 c 128,-1,164
 150 -690 150 -690 150 -682 c 128,-1,165
125 -682 m 128,-1,169
 125 -674 125 -674 133 -674 c 128,-1,170
 141 -674 141 -674 141 -682 c 128,-1,171
 141 -690 141 -690 133 -690 c 128,-1,168
 125 -690 125 -690 125 -682 c 128,-1,169
100 -682 m 128,-1,173
 100 -674 100 -674 108 -674 c 128,-1,174
 116 -674 116 -674 116 -682 c 128,-1,175
 116 -690 116 -690 108 -690 c 128,-1,172
 100 -690 100 -690 100 -682 c 128,-1,173
75 -682 m 128,-1,177
 75 -674 75 -674 83 -674 c 128,-1,178
 91 -674 91 -674 91 -682 c 128,-1,179
 91 -690 91 -690 83 -690 c 128,-1,176
 75 -690 75 -690 75 -682 c 128,-1,177
50 -682 m 128,-1,181
 50 -674 50 -674 58 -674 c 128,-1,182
 66 -674 66 -674 66 -682 c 128,-1,183
 66 -690 66 -690 58 -690 c 128,-1,180
 50 -690 50 -690 50 -682 c 128,-1,181
25 -682 m 128,-1,185
 25 -674 25 -674 33 -674 c 128,-1,186
 41 -674 41 -674 41 -682 c 128,-1,187
 41 -690 41 -690 33 -690 c 128,-1,184
 25 -690 25 -690 25 -682 c 128,-1,185
0 -682 m 128,-1,189
 0 -674 0 -674 8 -674 c 128,-1,190
 16 -674 16 -674 16 -682 c 128,-1,191
 16 -690 16 -690 8 -690 c 128,-1,188
 0 -690 0 -690 0 -682 c 128,-1,189
525 690 m 1,192,-1
 571 690 l 1,193,-1
 571 674 l 1,194,-1
 525 674 l 1,195,-1
 525 690 l 1,192,-1
450 690 m 1,196,-1
 496 690 l 1,197,-1
 496 674 l 1,198,-1
 450 674 l 1,199,-1
 450 690 l 1,196,-1
375 690 m 1,200,-1
 421 690 l 1,201,-1
 421 674 l 1,202,-1
 375 674 l 1,203,-1
 375 690 l 1,200,-1
300 690 m 1,204,-1
 346 690 l 1,205,-1
 346 674 l 1,206,-1
 300 674 l 1,207,-1
 300 690 l 1,204,-1
225 690 m 1,208,-1
 271 690 l 1,209,-1
 271 674 l 1,210,-1
 225 674 l 1,211,-1
 225 690 l 1,208,-1
150 690 m 1,212,-1
 196 690 l 1,213,-1
 196 674 l 1,214,-1
 150 674 l 1,215,-1
 150 690 l 1,212,-1
75 690 m 1,216,-1
 121 690 l 1,217,-1
 121 674 l 1,218,-1
 75 674 l 1,219,-1
 75 690 l 1,216,-1
0 690 m 1,220,-1
 46 690 l 1,221,-1
 46 674 l 1,222,-1
 0 674 l 1,223,-1
 0 690 l 1,220,-1
0 14 m 1,224,-1
 602 14 l 5,225,-1
 602 -14 l 5,226,-1
 0 -14 l 1,227,-1
 0 14 l 1,224,-1
EndSplineSet
Validated: 1
EndChar

StartChar: D
Encoding: 68 68 105
Width: 600
Flags: W
LayerCount: 3
Back
SplineSet
26.197265625 1205.82324219 m 5
 129.600585938 1243.77050781 185.682617188 1256.65722656 263.078125 1256.65722656 c 7
 564.000976562 1256.65722656 852 876.0234375 852 532 c 7
 852 325.59765625 742.16796875 24.6259765625 266.938476562 24.6259765625 c 7
 206.44140625 24.6259765625 97.10546875 24.578125 36 24.578125 c 1028
146.659179688 1240.92285156 m 22
 146.659179688 1240.92285156 146.247070312 119.647460938 146.247070312 24.27734375 c 1031
EndSplineSet
Fore
Validated: 1
EndChar

StartChar: H
Encoding: 72 72 106
Width: 1200
VWidth: 1540
Flags: W
LayerCount: 3
Fore
SplineSet
996.481809644 695.997254748 m 1,0,-1
 600.010742188 1323.77683936 l 1,1,-1
 203.539674731 695.997254748 l 1,2,-1
 996.481809644 695.997254748 l 1,0,-1
958.253721814 668.002745252 m 1,3,-1
 241.76776256 668.002745252 l 1,4,-1
 241.76776256 14 l 1,5,-1
 958.253721814 14 l 1,6,-1
 958.253721814 668.002745252 l 1,3,-1
0 690 m 1,7,-1
 46 690 l 1,8,-1
 46 674 l 1,9,-1
 0 674 l 1,10,-1
 0 690 l 1,7,-1
75 690 m 1,11,-1
 121 690 l 1,12,-1
 121 674 l 1,13,-1
 75 674 l 1,14,-1
 75 690 l 1,11,-1
1050 690 m 1,15,-1
 1096 690 l 1,16,-1
 1096 674 l 1,17,-1
 1050 674 l 1,18,-1
 1050 690 l 1,15,-1
1125 690 m 1,19,-1
 1171 690 l 1,20,-1
 1171 674 l 1,21,-1
 1125 674 l 1,22,-1
 1125 690 l 1,19,-1
958.25390625 -681 m 17,23,-1
 958.253721814 -525.148621936 l 1,24,-1
 772.133604627 -525.148621936 l 1,25,-1
 772.133604627 -354.940614123 l 1,26,-1
 586.01348744 -354.940614123 l 1,27,-1
 586.01348744 -183.84588756 l 1,28,-1
 399.893370252 -183.84588756 l 1,29,-1
 399.893370252 -14 l 1,30,-1
 0 -14 l 1,31,-1
 0 14 l 1,32,-1
 213.773253064 14 l 1,33,-1
 213.773253064 668.002745252 l 1,34,-1
 152.737669019 668.002745252 l 1,35,-1
 156.525205361 674 l 1,36,-1
 150 674 l 1,37,-1
 150 690 l 1,38,-1
 166.629925608 690 l 1,39,-1
 587.23890589 1356 l 1,40,-1
 0 1356 l 1,41,-1
 0 1372 l 1,42,-1
 1202 1372 l 5,43,-1
 1202 1356 l 5,44,-1
 612.782578486 1356 l 1,45,-1
 1047.28381536 668.002745252 l 1,46,-1
 986.24823131 668.002745252 l 1,47,-1
 986.24823131 14 l 1,48,-1
 1202 14 l 5,49,-1
 1202 -14 l 5,50,-1
 427.887879748 -14 l 1,51,-1
 427.887879748 -155.851378064 l 1,52,-1
 614.007996936 -155.851378064 l 1,53,-1
 614.007996936 -326.946104627 l 1,54,-1
 800.128114123 -326.946104627 l 1,55,-1
 800.128114123 -497.15411244 l 1,56,-1
 986.24823131 -497.15411244 l 1,57,-1
 986.248046875 -681 l 9,58,-1
 958.25390625 -681 l 17,23,-1
EndSplineSet
Validated: 1
EndChar

StartChar: J
Encoding: 74 74 108
Width: 409
VWidth: 2431
Flags: W
LayerCount: 3
Back
SplineSet
25.1162109375 952.412109375 m 5
 33.3916015625 980.999023438 67.2451171875 1000.55859375 88.6123046875 1000.55859375 c 4
 126.676757812 1000.55859375 157.673828125 953.1640625 199.651367188 953.1640625 c 4
 241.931640625 953.1640625 280.145507812 1000.55859375 280.145507812 1000.55859375 c 1029
EndSplineSet
Fore
Validated: 1
EndChar

StartChar: Q
Encoding: 81 81 111
Width: 600
Flags: W
LayerCount: 3
Fore
SplineSet
575 341 m 128,-1,1
 575 349 575 349 583 349 c 128,-1,2
 591 349 591 349 591 341 c 128,-1,3
 591 333 591 333 583 333 c 128,-1,0
 575 333 575 333 575 341 c 128,-1,1
550 341 m 128,-1,5
 550 349 550 349 558 349 c 128,-1,6
 566 349 566 349 566 341 c 128,-1,7
 566 333 566 333 558 333 c 128,-1,4
 550 333 550 333 550 341 c 128,-1,5
525 341 m 128,-1,9
 525 349 525 349 533 349 c 128,-1,10
 541 349 541 349 541 341 c 128,-1,11
 541 333 541 333 533 333 c 128,-1,8
 525 333 525 333 525 341 c 128,-1,9
500 341 m 128,-1,13
 500 349 500 349 508 349 c 128,-1,14
 516 349 516 349 516 341 c 128,-1,15
 516 333 516 333 508 333 c 128,-1,12
 500 333 500 333 500 341 c 128,-1,13
475 341 m 128,-1,17
 475 349 475 349 483 349 c 128,-1,18
 491 349 491 349 491 341 c 128,-1,19
 491 333 491 333 483 333 c 128,-1,16
 475 333 475 333 475 341 c 128,-1,17
450 341 m 128,-1,21
 450 349 450 349 458 349 c 128,-1,22
 466 349 466 349 466 341 c 128,-1,23
 466 333 466 333 458 333 c 128,-1,20
 450 333 450 333 450 341 c 128,-1,21
425 341 m 128,-1,25
 425 349 425 349 433 349 c 128,-1,26
 441 349 441 349 441 341 c 128,-1,27
 441 333 441 333 433 333 c 128,-1,24
 425 333 425 333 425 341 c 128,-1,25
400 341 m 128,-1,29
 400 349 400 349 408 349 c 128,-1,30
 416 349 416 349 416 341 c 128,-1,31
 416 333 416 333 408 333 c 128,-1,28
 400 333 400 333 400 341 c 128,-1,29
375 341 m 128,-1,33
 375 349 375 349 383 349 c 128,-1,34
 391 349 391 349 391 341 c 128,-1,35
 391 333 391 333 383 333 c 128,-1,32
 375 333 375 333 375 341 c 128,-1,33
350 341 m 128,-1,37
 350 349 350 349 358 349 c 128,-1,38
 366 349 366 349 366 341 c 128,-1,39
 366 333 366 333 358 333 c 128,-1,36
 350 333 350 333 350 341 c 128,-1,37
325 341 m 128,-1,41
 325 349 325 349 333 349 c 128,-1,42
 341 349 341 349 341 341 c 128,-1,43
 341 333 341 333 333 333 c 128,-1,40
 325 333 325 333 325 341 c 128,-1,41
300 341 m 128,-1,45
 300 349 300 349 308 349 c 128,-1,46
 316 349 316 349 316 341 c 128,-1,47
 316 333 316 333 308 333 c 128,-1,44
 300 333 300 333 300 341 c 128,-1,45
275 341 m 128,-1,49
 275 349 275 349 283 349 c 128,-1,50
 291 349 291 349 291 341 c 128,-1,51
 291 333 291 333 283 333 c 128,-1,48
 275 333 275 333 275 341 c 128,-1,49
250 341 m 128,-1,53
 250 349 250 349 258 349 c 128,-1,54
 266 349 266 349 266 341 c 128,-1,55
 266 333 266 333 258 333 c 128,-1,52
 250 333 250 333 250 341 c 128,-1,53
225 341 m 128,-1,57
 225 349 225 349 233 349 c 128,-1,58
 241 349 241 349 241 341 c 128,-1,59
 241 333 241 333 233 333 c 128,-1,56
 225 333 225 333 225 341 c 128,-1,57
200 341 m 128,-1,61
 200 349 200 349 208 349 c 128,-1,62
 216 349 216 349 216 341 c 128,-1,63
 216 333 216 333 208 333 c 128,-1,60
 200 333 200 333 200 341 c 128,-1,61
175 341 m 128,-1,65
 175 349 175 349 183 349 c 128,-1,66
 191 349 191 349 191 341 c 128,-1,67
 191 333 191 333 183 333 c 128,-1,64
 175 333 175 333 175 341 c 128,-1,65
150 341 m 128,-1,69
 150 349 150 349 158 349 c 128,-1,70
 166 349 166 349 166 341 c 128,-1,71
 166 333 166 333 158 333 c 128,-1,68
 150 333 150 333 150 341 c 128,-1,69
125 341 m 128,-1,73
 125 349 125 349 133 349 c 128,-1,74
 141 349 141 349 141 341 c 128,-1,75
 141 333 141 333 133 333 c 128,-1,72
 125 333 125 333 125 341 c 128,-1,73
100 341 m 128,-1,77
 100 349 100 349 108 349 c 128,-1,78
 116 349 116 349 116 341 c 128,-1,79
 116 333 116 333 108 333 c 128,-1,76
 100 333 100 333 100 341 c 128,-1,77
75 341 m 128,-1,81
 75 349 75 349 83 349 c 128,-1,82
 91 349 91 349 91 341 c 128,-1,83
 91 333 91 333 83 333 c 128,-1,80
 75 333 75 333 75 341 c 128,-1,81
50 341 m 128,-1,85
 50 349 50 349 58 349 c 128,-1,86
 66 349 66 349 66 341 c 128,-1,87
 66 333 66 333 58 333 c 128,-1,84
 50 333 50 333 50 341 c 128,-1,85
25 341 m 128,-1,89
 25 349 25 349 33 349 c 128,-1,90
 41 349 41 349 41 341 c 128,-1,91
 41 333 41 333 33 333 c 128,-1,88
 25 333 25 333 25 341 c 128,-1,89
0 341 m 128,-1,93
 0 349 0 349 8 349 c 128,-1,94
 16 349 16 349 16 341 c 128,-1,95
 16 333 16 333 8 333 c 128,-1,92
 0 333 0 333 0 341 c 128,-1,93
525 690 m 1,96,-1
 571 690 l 1,97,-1
 571 674 l 1,98,-1
 525 674 l 1,99,-1
 525 690 l 1,96,-1
450 690 m 1,100,-1
 496 690 l 1,101,-1
 496 674 l 1,102,-1
 450 674 l 1,103,-1
 450 690 l 1,100,-1
375 690 m 1,104,-1
 421 690 l 1,105,-1
 421 674 l 1,106,-1
 375 674 l 1,107,-1
 375 690 l 1,104,-1
300 690 m 1,108,-1
 346 690 l 1,109,-1
 346 674 l 1,110,-1
 300 674 l 1,111,-1
 300 690 l 1,108,-1
225 690 m 1,112,-1
 271 690 l 1,113,-1
 271 674 l 1,114,-1
 225 674 l 1,115,-1
 225 690 l 1,112,-1
150 690 m 1,116,-1
 196 690 l 1,117,-1
 196 674 l 1,118,-1
 150 674 l 1,119,-1
 150 690 l 1,116,-1
75 690 m 1,120,-1
 121 690 l 1,121,-1
 121 674 l 1,122,-1
 75 674 l 1,123,-1
 75 690 l 1,120,-1
0 690 m 1,124,-1
 46 690 l 1,125,-1
 46 674 l 1,126,-1
 0 674 l 1,127,-1
 0 690 l 1,124,-1
0 1372 m 1,128,-1
 602 1372 l 5,129,-1
 602 1356 l 5,130,-1
 0 1356 l 1,131,-1
 0 1372 l 1,128,-1
0 14 m 1,132,-1
 602 14 l 5,133,-1
 602 -14 l 5,134,-1
 0 -14 l 1,135,-1
 0 14 l 1,132,-1
EndSplineSet
Validated: 1
EndChar

StartChar: R
Encoding: 82 82 112
Width: 774
VWidth: 2431
Flags: W
LayerCount: 3
Back
SplineSet
598.831054688 25.578125 m 4
 570.313476562 25.578125 551.874023438 36.966796875 539.40625 54.302734375 c 5
 487.110351562 126.311523438 356.702148438 306.392578125 246.001953125 458.903320312 c 5
 220.423828125 496.517578125 196.350585938 513.068359375 172.276367188 513.068359375 c 1029
EndSplineSet
Fore
Validated: 1
EndChar

StartChar: S
Encoding: 83 83 113
Width: 600
Flags: W
LayerCount: 3
Back
SplineSet
101.1484375 147.377929688 m 5
 150.751953125 79.7998046875 229.877929688 25.0791015625 336.1328125 25.0791015625 c 4
 528.801757812 25.0791015625 632.2734375 201.092773438 632.2734375 324.787109375 c 7
 632.2734375 463.076171875 563.780273438 563.89453125 336.385742188 715.262695312 c 4
 158.408203125 833.225585938 105.629882812 913.369140625 105.629882812 1021.50585938 c 7
 105.629882812 1118.22949219 186.540039062 1255.86523438 337.200195312 1255.86523438 c 4
 420.287109375 1255.86523438 482.16015625 1213.07519531 520.948242188 1160.23242188 c 1029
EndSplineSet
Fore
SplineSet
575 1364 m 128,-1,1
 575 1372 575 1372 583 1372 c 128,-1,2
 591 1372 591 1372 591 1364 c 128,-1,3
 591 1356 591 1356 583 1356 c 128,-1,0
 575 1356 575 1356 575 1364 c 128,-1,1
550 1364 m 128,-1,5
 550 1372 550 1372 558 1372 c 128,-1,6
 566 1372 566 1372 566 1364 c 128,-1,7
 566 1356 566 1356 558 1356 c 128,-1,4
 550 1356 550 1356 550 1364 c 128,-1,5
525 1364 m 128,-1,9
 525 1372 525 1372 533 1372 c 128,-1,10
 541 1372 541 1372 541 1364 c 128,-1,11
 541 1356 541 1356 533 1356 c 128,-1,8
 525 1356 525 1356 525 1364 c 128,-1,9
500 1364 m 128,-1,13
 500 1372 500 1372 508 1372 c 128,-1,14
 516 1372 516 1372 516 1364 c 128,-1,15
 516 1356 516 1356 508 1356 c 128,-1,12
 500 1356 500 1356 500 1364 c 128,-1,13
475 1364 m 128,-1,17
 475 1372 475 1372 483 1372 c 128,-1,18
 491 1372 491 1372 491 1364 c 128,-1,19
 491 1356 491 1356 483 1356 c 128,-1,16
 475 1356 475 1356 475 1364 c 128,-1,17
450 1364 m 128,-1,21
 450 1372 450 1372 458 1372 c 128,-1,22
 466 1372 466 1372 466 1364 c 128,-1,23
 466 1356 466 1356 458 1356 c 128,-1,20
 450 1356 450 1356 450 1364 c 128,-1,21
425 1364 m 128,-1,25
 425 1372 425 1372 433 1372 c 128,-1,26
 441 1372 441 1372 441 1364 c 128,-1,27
 441 1356 441 1356 433 1356 c 128,-1,24
 425 1356 425 1356 425 1364 c 128,-1,25
400 1364 m 128,-1,29
 400 1372 400 1372 408 1372 c 128,-1,30
 416 1372 416 1372 416 1364 c 128,-1,31
 416 1356 416 1356 408 1356 c 128,-1,28
 400 1356 400 1356 400 1364 c 128,-1,29
375 1364 m 128,-1,33
 375 1372 375 1372 383 1372 c 128,-1,34
 391 1372 391 1372 391 1364 c 128,-1,35
 391 1356 391 1356 383 1356 c 128,-1,32
 375 1356 375 1356 375 1364 c 128,-1,33
350 1364 m 128,-1,37
 350 1372 350 1372 358 1372 c 128,-1,38
 366 1372 366 1372 366 1364 c 128,-1,39
 366 1356 366 1356 358 1356 c 128,-1,36
 350 1356 350 1356 350 1364 c 128,-1,37
325 1364 m 128,-1,41
 325 1372 325 1372 333 1372 c 128,-1,42
 341 1372 341 1372 341 1364 c 128,-1,43
 341 1356 341 1356 333 1356 c 128,-1,40
 325 1356 325 1356 325 1364 c 128,-1,41
300 1364 m 128,-1,45
 300 1372 300 1372 308 1372 c 128,-1,46
 316 1372 316 1372 316 1364 c 128,-1,47
 316 1356 316 1356 308 1356 c 128,-1,44
 300 1356 300 1356 300 1364 c 128,-1,45
275 1364 m 128,-1,49
 275 1372 275 1372 283 1372 c 128,-1,50
 291 1372 291 1372 291 1364 c 128,-1,51
 291 1356 291 1356 283 1356 c 128,-1,48
 275 1356 275 1356 275 1364 c 128,-1,49
250 1364 m 128,-1,53
 250 1372 250 1372 258 1372 c 128,-1,54
 266 1372 266 1372 266 1364 c 128,-1,55
 266 1356 266 1356 258 1356 c 128,-1,52
 250 1356 250 1356 250 1364 c 128,-1,53
225 1364 m 128,-1,57
 225 1372 225 1372 233 1372 c 128,-1,58
 241 1372 241 1372 241 1364 c 128,-1,59
 241 1356 241 1356 233 1356 c 128,-1,56
 225 1356 225 1356 225 1364 c 128,-1,57
200 1364 m 128,-1,61
 200 1372 200 1372 208 1372 c 128,-1,62
 216 1372 216 1372 216 1364 c 128,-1,63
 216 1356 216 1356 208 1356 c 128,-1,60
 200 1356 200 1356 200 1364 c 128,-1,61
175 1364 m 128,-1,65
 175 1372 175 1372 183 1372 c 128,-1,66
 191 1372 191 1372 191 1364 c 128,-1,67
 191 1356 191 1356 183 1356 c 128,-1,64
 175 1356 175 1356 175 1364 c 128,-1,65
150 1364 m 128,-1,69
 150 1372 150 1372 158 1372 c 128,-1,70
 166 1372 166 1372 166 1364 c 128,-1,71
 166 1356 166 1356 158 1356 c 128,-1,68
 150 1356 150 1356 150 1364 c 128,-1,69
125 1364 m 128,-1,73
 125 1372 125 1372 133 1372 c 128,-1,74
 141 1372 141 1372 141 1364 c 128,-1,75
 141 1356 141 1356 133 1356 c 128,-1,72
 125 1356 125 1356 125 1364 c 128,-1,73
100 1364 m 128,-1,77
 100 1372 100 1372 108 1372 c 128,-1,78
 116 1372 116 1372 116 1364 c 128,-1,79
 116 1356 116 1356 108 1356 c 128,-1,76
 100 1356 100 1356 100 1364 c 128,-1,77
75 1364 m 128,-1,81
 75 1372 75 1372 83 1372 c 128,-1,82
 91 1372 91 1372 91 1364 c 128,-1,83
 91 1356 91 1356 83 1356 c 128,-1,80
 75 1356 75 1356 75 1364 c 128,-1,81
50 1364 m 128,-1,85
 50 1372 50 1372 58 1372 c 128,-1,86
 66 1372 66 1372 66 1364 c 128,-1,87
 66 1356 66 1356 58 1356 c 128,-1,84
 50 1356 50 1356 50 1364 c 128,-1,85
25 1364 m 128,-1,89
 25 1372 25 1372 33 1372 c 128,-1,90
 41 1372 41 1372 41 1364 c 128,-1,91
 41 1356 41 1356 33 1356 c 128,-1,88
 25 1356 25 1356 25 1364 c 128,-1,89
0 1364 m 128,-1,93
 0 1372 0 1372 8 1372 c 128,-1,94
 16 1372 16 1372 16 1364 c 128,-1,95
 16 1356 16 1356 8 1356 c 128,-1,92
 0 1356 0 1356 0 1364 c 128,-1,93
559.686523438 341 m 1,96,-1
 571 352.313476562 l 1,97,-1
 582.313476562 341 l 1,98,-1
 571 329.686523438 l 1,99,-1
 559.686523438 341 l 1,96,-1
519.686523438 341 m 1,100,-1
 531 352.313476562 l 1,101,-1
 542.313476562 341 l 1,102,-1
 531 329.686523438 l 1,103,-1
 519.686523438 341 l 1,100,-1
479.686523438 341 m 1,104,-1
 491 352.313476562 l 1,105,-1
 502.313476562 341 l 1,106,-1
 491 329.686523438 l 1,107,-1
 479.686523438 341 l 1,104,-1
439.686523438 341 m 1,108,-1
 451 352.313476562 l 1,109,-1
 462.313476562 341 l 1,110,-1
 451 329.686523438 l 1,111,-1
 439.686523438 341 l 1,108,-1
399.686523438 341 m 1,112,-1
 411 352.313476562 l 1,113,-1
 422.313476562 341 l 1,114,-1
 411 329.686523438 l 1,115,-1
 399.686523438 341 l 1,112,-1
359.686523438 341 m 1,116,-1
 371 352.313476562 l 1,117,-1
 382.313476562 341 l 1,118,-1
 371 329.686523438 l 1,119,-1
 359.686523438 341 l 1,116,-1
319.686523438 341 m 1,120,-1
 331 352.313476562 l 1,121,-1
 342.313476562 341 l 1,122,-1
 331 329.686523438 l 1,123,-1
 319.686523438 341 l 1,120,-1
279.686523438 341 m 1,124,-1
 291 352.313476562 l 1,125,-1
 302.313476562 341 l 1,126,-1
 291 329.686523438 l 1,127,-1
 279.686523438 341 l 1,124,-1
239.686523438 341 m 1,128,-1
 251 352.313476562 l 1,129,-1
 262.313476562 341 l 1,130,-1
 251 329.686523438 l 1,131,-1
 239.686523438 341 l 1,128,-1
199.686523438 341 m 1,132,-1
 211 352.313476562 l 1,133,-1
 222.313476562 341 l 1,134,-1
 211 329.686523438 l 1,135,-1
 199.686523438 341 l 1,132,-1
159.686523438 341 m 1,136,-1
 171 352.313476562 l 1,137,-1
 182.313476562 341 l 1,138,-1
 171 329.686523438 l 1,139,-1
 159.686523438 341 l 1,136,-1
119.686523438 341 m 1,140,-1
 131 352.313476562 l 1,141,-1
 142.313476562 341 l 1,142,-1
 131 329.686523438 l 1,143,-1
 119.686523438 341 l 1,140,-1
79.6865234375 341 m 1,144,-1
 91 352.313476562 l 1,145,-1
 102.313476562 341 l 1,146,-1
 91 329.686523438 l 1,147,-1
 79.6865234375 341 l 1,144,-1
39.6865234375 341 m 1,148,-1
 51 352.313476562 l 1,149,-1
 62.3134765625 341 l 1,150,-1
 51 329.686523438 l 1,151,-1
 39.6865234375 341 l 1,148,-1
-0.3134765625 341 m 1,152,-1
 11 352.313476562 l 1,153,-1
 22.3134765625 341 l 1,154,-1
 11 329.686523438 l 1,155,-1
 -0.3134765625 341 l 1,152,-1
525 690 m 1,156,-1
 571 690 l 1,157,-1
 571 674 l 1,158,-1
 525 674 l 1,159,-1
 525 690 l 1,156,-1
450 690 m 1,160,-1
 496 690 l 1,161,-1
 496 674 l 1,162,-1
 450 674 l 1,163,-1
 450 690 l 1,160,-1
375 690 m 1,164,-1
 421 690 l 1,165,-1
 421 674 l 1,166,-1
 375 674 l 1,167,-1
 375 690 l 1,164,-1
300 690 m 1,168,-1
 346 690 l 1,169,-1
 346 674 l 1,170,-1
 300 674 l 1,171,-1
 300 690 l 1,168,-1
225 690 m 1,172,-1
 271 690 l 1,173,-1
 271 674 l 1,174,-1
 225 674 l 1,175,-1
 225 690 l 1,172,-1
150 690 m 1,176,-1
 196 690 l 1,177,-1
 196 674 l 1,178,-1
 150 674 l 1,179,-1
 150 690 l 1,176,-1
75 690 m 1,180,-1
 121 690 l 1,181,-1
 121 674 l 1,182,-1
 75 674 l 1,183,-1
 75 690 l 1,180,-1
0 690 m 1,184,-1
 46 690 l 1,185,-1
 46 674 l 1,186,-1
 0 674 l 1,187,-1
 0 690 l 1,184,-1
0 14 m 1,188,-1
 602 14 l 5,189,-1
 602 -14 l 5,190,-1
 0 -14 l 1,191,-1
 0 14 l 1,188,-1
EndSplineSet
Validated: 1
EndChar

StartChar: T
Encoding: 84 84 114
Width: 538
VWidth: 2431
Flags: W
LayerCount: 3
Back
SplineSet
617.280273438 1000.55859375 m 4
 603.045898438 987.823242188 583.216796875 975.087890625 560.857421875 965.509765625 c 4
 538.309570312 955.850585938 513.188476562 949.40234375 488.63671875 949.40234375 c 7
 464.5234375 949.40234375 427.133789062 953.43359375 389.333007812 958.474609375 c 4
 346.939453125 964.127929688 304.029296875 971.05078125 278.745117188 974.98046875 c 4
 254.212890625 978.159179688 211.302734375 985.833984375 168.909179688 991.487304688 c 4
 131.108398438 996.528320312 93.7197265625 1000.55859375 69.60546875 1000.55859375 c 7
 45.0537109375 1000.55859375 19.9326171875 994.110351562 -2.615234375 984.452148438 c 4
 -24.974609375 974.874023438 -44.8037109375 962.137695312 -59.0380859375 949.40234375 c 1028
EndSplineSet
Fore
Validated: 1
EndChar

StartChar: U
Encoding: 85 85 115
Width: 779
VWidth: 2431
Flags: W
AnchorPoint: "topright" 507.377 1255.84 basechar 0
AnchorPoint: "topleft" 186.173 1255.84 basechar 0
AnchorPoint: "topmid" 346.775 1255.84 basechar 0
LayerCount: 3
Back
SplineSet
930.727539062 1256.96777344 m 4
 911.754882812 1223.765625 888.038085938 1207.69042969 853.88671875 1189.83398438 c 4
 823.954101562 1174.18359375 795.168945312 1171.64160156 768.5078125 1171.64160156 c 7
 741.84765625 1171.64160156 712.114257812 1174.18359375 682.181640625 1189.83398438 c 4
 648.029296875 1207.69042969 626.2109375 1223.765625 607.23828125 1256.96777344 c 4
 651.776367188 1190.27929688 704 1020.09082031 704 814 c 7
 704 575.888671875 650.775390625 345.708984375 579.71484375 231.68359375 c 4
 482.759765625 76.1044921875 349.69140625 25.671875 257.671875 25.671875 c 7
 95.7333984375 25.671875 31.8515625 133.9609375 31.8515625 315.1484375 c 4
 31.8515625 315.1484375 31.94140625 826.72265625 31.94140625 1158.55957031 c 7
 31.94140625 1205.37890625 15.814453125 1257.12207031 -39.20703125 1257.12207031 c 7
 -79.05078125 1257.12207031 -98.630859375 1219.07421875 -113.201171875 1190.61425781 c 4
 -171.408203125 1072.03320312 l 1029
EndSplineSet
Fore
Validated: 1
EndChar

StartChar: V
Encoding: 86 86 116
Width: 682
VWidth: 1540
Flags: W
LayerCount: 3
Back
SplineSet
0 0 m 5
 682 0 l 5
 682 454.666666667 682 772.333007812 682 1227 c 5
 0 1227 l 5
 0 0 l 5
EndSplineSet
Fore
SplineSet
674.001568716 1219.00156872 m 5,0,-1
 7.99843128432 1219.00156872 l 5,1,-1
 7.99843128432 7.99843128432 l 5,2,-1
 674.001568716 7.99843128432 l 5,3,-1
 674.001568716 1219.00156872 l 5,0,-1
-7.99843128432 -7.99843128432 m 5,4,-1
 -7.99843128432 1234.99843128 l 5,5,-1
 689.998431284 1234.99843128 l 5,6,-1
 689.998431284 -7.99843128432 l 5,7,-1
 -7.99843128432 -7.99843128432 l 5,4,-1
EndSplineSet
Validated: 1
EndChar

StartChar: W
Encoding: 87 87 117
Width: 682
VWidth: 1540
Flags: W
LayerCount: 3
Fore
SplineSet
642 690 m 1,0,-1
 688 690 l 1,1,-1
 688 674 l 1,2,-1
 642 674 l 1,3,-1
 642 690 l 1,0,-1
561 690 m 1,4,-1
 607 690 l 1,5,-1
 607 674 l 1,6,-1
 561 674 l 1,7,-1
 561 690 l 1,4,-1
480 690 m 1,8,-1
 526 690 l 1,9,-1
 526 674 l 1,10,-1
 480 674 l 1,11,-1
 480 690 l 1,8,-1
399 690 m 1,12,-1
 445 690 l 1,13,-1
 445 674 l 1,14,-1
 399 674 l 1,15,-1
 399 690 l 1,12,-1
318 690 m 1,16,-1
 364 690 l 1,17,-1
 364 674 l 1,18,-1
 318 674 l 1,19,-1
 318 690 l 1,16,-1
237 690 m 1,20,-1
 283 690 l 1,21,-1
 283 674 l 1,22,-1
 237 674 l 1,23,-1
 237 690 l 1,20,-1
156 690 m 1,24,-1
 202 690 l 1,25,-1
 202 674 l 1,26,-1
 156 674 l 1,27,-1
 156 690 l 1,24,-1
75 690 m 1,28,-1
 121 690 l 1,29,-1
 121 674 l 1,30,-1
 75 674 l 1,31,-1
 75 690 l 1,28,-1
-6 690 m 1,32,-1
 40 690 l 1,33,-1
 40 674 l 1,34,-1
 -6 674 l 1,35,-1
 -6 690 l 1,32,-1
674.001568716 1219.00156872 m 1,36,-1
 7.99843128432 1219.00156872 l 1,37,-1
 7.99843128432 7.99843128432 l 1,38,-1
 674.001568716 7.99843128432 l 1,39,-1
 674.001568716 1219.00156872 l 1,36,-1
-7.99843128432 -7.99843128432 m 1,40,-1
 -7.99843128432 1234.99843128 l 1,41,-1
 689.998431284 1234.99843128 l 1,42,-1
 689.998431284 -7.99843128432 l 1,43,-1
 -7.99843128432 -7.99843128432 l 1,40,-1
EndSplineSet
Validated: 5
EndChar

StartChar: X
Encoding: 88 88 118
Width: 682
VWidth: 1540
Flags: W
LayerCount: 3
Back
SplineSet
10 682 m 31
 269 682 416 682 675 682 c 1052
0 0 m 5
 682 0 l 5
 682 454.666666667 682 772.333007812 682 1227 c 5
 0 1227 l 5
 0 0 l 5
EndSplineSet
Fore
SplineSet
674.001568716 1219.00156872 m 1,0,-1
 7.99843128432 1219.00156872 l 1,1,-1
 7.99843128432 7.99843128432 l 1,2,-1
 674.001568716 7.99843128432 l 1,3,-1
 674.001568716 674.001568716 l 1,4,-1
 10 674.001568716 l 1,5,-1
 10 689.998431284 l 1,6,-1
 674.001568716 689.998431284 l 1,7,-1
 674.001568716 1219.00156872 l 1,0,-1
-7.99843128432 -7.99843128432 m 1,8,-1
 -7.99843128432 1234.99843128 l 1,9,-1
 689.998431284 1234.99843128 l 1,10,-1
 689.998431284 -7.99843128432 l 1,11,-1
 -7.99843128432 -7.99843128432 l 1,8,-1
EndSplineSet
Validated: 1
EndChar

StartChar: Y
Encoding: 89 89 119
Width: 754
VWidth: 2431
Flags: W
AnchorPoint: "topleft" 208.222 1255.84 basechar 0
AnchorPoint: "topright" 529.427 1255.84 basechar 0
AnchorPoint: "topmid" 368.824 1255.84 basechar 0
LayerCount: 3
Back
SplineSet
406.979492188 -487.490234375 m 7
 490.228515625 -487.490234375 513.053710938 -410.755859375 513.053710938 -318.22265625 c 4
 513.047851562 513.071289062 513.047851562 487.4921875 513.05078125 487.490234375 c 1028
EndSplineSet
Fore
Validated: 1
EndChar

StartChar: Z
Encoding: 90 90 120
Width: 793
VWidth: 2431
Flags: W
AnchorPoint: "topmid" 558.161 1283.09 basechar 0
AnchorPoint: "topleft" 397.561 1283.09 basechar 0
AnchorPoint: "topright" 718.765 1283.09 basechar 0
LayerCount: 3
Back
SplineSet
33.9580078125 1124.24023438 m 21
 92.08984375 1231.52832031 141.155273438 1254.20410156 183.844726562 1254.20410156 c 4
 287.565429688 1253.92285156 321.920898438 1123.86621094 541.233398438 1123.86621094 c 7
 682.1015625 1123.86621094 829.7578125 1168.18457031 899.342773438 1254.20410156 c 13
 58.3486328125 24.3798828125 l 5
 127.93359375 110.399414062 275.58984375 154.719726562 416.458007812 154.719726562 c 7
 635.76953125 154.719726562 670.125 24.6630859375 773.846679688 24.3798828125 c 1028
EndSplineSet
Fore
Validated: 1
EndChar

StartChar: ccta1
Encoding: 57448 57448 121
Width: 2048
LayerCount: 3
Back
SplineSet
-18.431640625 25.578125 m 3
 -105.698242188 25.578125 -131.276367188 99.3037109375 -131.276367188 180.551757812 c 1024
EndSplineSet
Fore
Validated: 1
EndChar

StartChar: ccti
Encoding: 57440 57440 122
Width: 2048
LayerCount: 3
Back
SplineSet
-18.431640625 25.578125 m 7
 -105.698242188 25.578125 -131.276367188 99.3037109375 -131.276367188 180.551757812 c 1028
EndSplineSet
Fore
Validated: 1
EndChar

StartChar: cctn
Encoding: 57441 57441 123
Width: 2048
LayerCount: 3
Back
SplineSet
-18.431640625 25.578125 m 7
 -105.698242188 25.578125 -131.276367188 99.3037109375 -131.276367188 180.551757812 c 1028
EndSplineSet
Fore
Validated: 1
EndChar

StartChar: ccth
Encoding: 57442 57442 124
Width: 2048
LayerCount: 3
Back
SplineSet
-18.431640625 25.578125 m 7
 -105.698242188 25.578125 -131.276367188 99.3037109375 -131.276367188 180.551757812 c 1028
EndSplineSet
Fore
Validated: 1
EndChar

StartChar: ccto
Encoding: 57443 57443 125
Width: 2048
LayerCount: 3
Back
SplineSet
-18.431640625 25.578125 m 3
 -105.698242188 25.578125 -131.276367188 99.3037109375 -131.276367188 180.551757812 c 1024
EndSplineSet
Fore
Validated: 1
EndChar

StartChar: ccta
Encoding: 57444 57444 126
Width: 2048
LayerCount: 3
Back
SplineSet
-18.431640625 25.578125 m 7
 -105.698242188 25.578125 -131.276367188 99.3037109375 -131.276367188 180.551757812 c 1028
EndSplineSet
Fore
Validated: 1
EndChar

StartChar: ccte
Encoding: 57445 57445 127
Width: 0
VWidth: 1540
LayerCount: 3
Back
SplineSet
-18.431640625 25.578125 m 7
 -105.698242188 25.578125 -131.276367188 99.3037109375 -131.276367188 180.551757812 c 1028
EndSplineSet
Fore
Validated: 1
EndChar

StartChar: ccts
Encoding: 57446 57446 128
Width: 2048
LayerCount: 3
Back
SplineSet
-18.431640625 25.578125 m 7
 -105.698242188 25.578125 -131.276367188 99.3037109375 -131.276367188 180.551757812 c 1028
EndSplineSet
Fore
Validated: 1
EndChar

StartChar: cctt
Encoding: 57447 57447 129
Width: 2048
LayerCount: 3
Back
SplineSet
-19.5595703125 25.578125 m 7
 20.65234375 25.578125 47.7666015625 41.232421875 65.314453125 66.064453125 c 5
 146.849609375 175.036132812 281.360351562 430.510742188 281.360351562 606.353515625 c 1028
-18.431640625 25.578125 m 3
 -105.698242188 25.578125 -131.276367188 99.3037109375 -131.276367188 180.551757812 c 1024
EndSplineSet
Fore
Validated: 1
EndChar

StartChar: cet
Encoding: 57451 57451 130
Width: 2048
LayerCount: 3
Back
SplineSet
-18.431640625 25.578125 m 7
 -105.698242188 25.578125 -131.276367188 99.3037109375 -131.276367188 180.551757812 c 1028
EndSplineSet
Fore
Validated: 1
EndChar

StartChar: ccga1
Encoding: 57400 57400 131
Width: 0
VWidth: 1540
LayerCount: 3
Back
SplineSet
571.748046875 24.078125 m 1027
515.325195312 487.990234375 m 1029
515.325195312 487.990234375 m 4
 475.74609375 487.990234375 516.140625 487.990234375 475.453125 487.990234375 c 7
 376.760140652 487.990234375 303.729752273 442.770650009 257.532519821 376.916970796 c 1029
257.532519821 376.916970796 m 1029
299.415039062 24.078125 m 1027
EndSplineSet
Fore
Validated: 1
EndChar

StartChar: ccva1
Encoding: 57388 57388 132
Width: 0
VWidth: 1540
LayerCount: 3
Back
SplineSet
421.288085938 855.365234375 m 6
 240.736328125 488.243164062 l 4
 203.873046875 424.296875 156.478515625 394.205078125 78.2392578125 394.205078125 c 7
 5.265625 394.205078125 -60.18359375 433.325195312 -92.533203125 487.490234375 c 1028
EndSplineSet
Fore
Validated: 1
EndChar

StartChar: ccza1
Encoding: 57436 57436 133
Width: 0
VWidth: 1540
LayerCount: 3
Back
SplineSet
421.288085938 853.860351562 m 6
 39.119140625 77.4873046875 l 6
 27.9755859375 54.8486328125 12.037109375 25.578125 -19.5595703125 25.578125 c 1028
EndSplineSet
Fore
Validated: 1
EndChar

StartChar: csa1
Encoding: 57544 57544 134
Width: 2048
LayerCount: 3
Back
SplineSet
429.27734375 853.860351562 m 6
 47.109375 77.4873046875 l 6
 35.9658203125 54.8486328125 20.0263671875 25.578125 -11.5703125 25.578125 c 1028
EndSplineSet
Fore
Validated: 1
EndChar

StartChar: ccOi
Encoding: 57452 57452 135
Width: 0
VWidth: 1540
LayerCount: 3
Back
SplineSet
-179.047851562 113.59765625 m 6
 240.736328125 488.243164062 l 1029
115.219726562 1256.32617188 m 0
 96.2470703125 1223.12402344 72.5302734375 1207.04882812 38.37890625 1189.19238281 c 0
 8.4462890625 1173.54199219 -20.3388671875 1171 -47 1171 c 3
 -73.66015625 1171 -103.393554688 1173.54199219 -133.326171875 1189.19238281 c 0
 -167.478515625 1207.04882812 -189.296875 1223.12402344 -208.26953125 1256.32617188 c 0
 -170.779296875 1189.27929688 -131 1019.09082031 -131 813 c 3
 -131 574.888671875 -173.580078125 344.708984375 -230.427734375 230.68359375 c 0
 -307.9921875 75.1044921875 -414.447265625 24.671875 -488.0625 24.671875 c 3
 -617.61328125 24.671875 -666.71875 121.9609375 -666.71875 303.1484375 c 8
 -667.334960938 674.267578125 -666.263671875 922.56640625 -666.263671875 1254.40429688 c 1024
-666.607421875 373.989257812 m 0
 -666.607421875 272.484375 -782.021484375 24.75390625 -978.376953125 24.75390625 c 3
 -1109.68554688 24.75390625 -1192.95410156 146.854492188 -1192.95410156 298.979492188 c 0
 -1192.95410156 298.979492188 -1192.95410156 1156.40136719 -1192.95410156 1158.40429688 c 0
 -1192.79199219 1204.4609375 -1208.91894531 1256.20410156 -1263.94042969 1256.20410156 c 3
 -1303.78417969 1256.20410156 -1323.36425781 1218.15625 -1337.93457031 1189.69628906 c 0
 -1396.14160156 1071.11523438 l 1025
185.994140625 1256.04980469 m 0
 167.021484375 1222.84765625 143.3046875 1206.77246094 109.153320312 1188.91601562 c 0
 79.220703125 1173.265625 50.435546875 1170.72363281 23.7744140625 1170.72363281 c 3
 -2.8857421875 1170.72363281 -32.619140625 1173.265625 -62.5517578125 1188.91601562 c 0
 -96.7041015625 1206.77246094 -118.522460938 1222.84765625 -137.495117188 1256.04980469 c 0
 -92.95703125 1189.36132812 -40.7333984375 1019.17285156 -40.7333984375 813.08203125 c 3
 -40.7333984375 574.970703125 -93.9580078125 344.791015625 -165.018554688 230.765625 c 0
 -261.973632812 75.1865234375 -395.041992188 24.75390625 -487.061523438 24.75390625 c 3
 -649 24.75390625 -712.881835938 133.04296875 -712.881835938 314.23046875 c 0
 -712.881835938 314.23046875 -712.791992188 825.8046875 -712.791992188 1157.64160156 c 3
 -712.791992188 1204.4609375 -728.918945312 1256.20410156 -783.940429688 1256.20410156 c 3
 -823.784179688 1256.20410156 -843.364257812 1218.15625 -857.934570312 1189.69628906 c 0
 -916.141601562 1071.11523438 l 1025
-61.9169921875 643.147460938 m 3
 -61.9169921875 984.818359375 -194.133789062 1256.29492188 -485.294921875 1256.29492188 c 3
 -777.978515625 1256.29492188 -908.026367188 984.811523438 -907.37890625 645.150390625 c 0
 -907.37890625 306.564453125 -777.331054688 24.0810546875 -484.647460938 24.0810546875 c 3
 -193.486328125 24.0810546875 -61.9169921875 302.55859375 -61.9169921875 643.147460938 c 3
EndSplineSet
Fore
Validated: 1
EndChar

StartChar: ccOn
Encoding: 57453 57453 136
Width: 2048
LayerCount: 3
Back
SplineSet
115.219726562 1256.32617188 m 4
 96.2470703125 1223.12402344 72.5302734375 1207.04882812 38.37890625 1189.19238281 c 4
 8.4462890625 1173.54199219 -20.3388671875 1171 -47 1171 c 7
 -73.66015625 1171 -103.393554688 1173.54199219 -133.326171875 1189.19238281 c 4
 -167.478515625 1207.04882812 -189.296875 1223.12402344 -208.26953125 1256.32617188 c 4
 -170.779296875 1189.27929688 -131 1019.09082031 -131 813 c 7
 -131 574.888671875 -173.580078125 344.708984375 -230.427734375 230.68359375 c 4
 -307.9921875 75.1044921875 -414.447265625 24.671875 -488.0625 24.671875 c 7
 -617.61328125 24.671875 -666.71875 121.9609375 -666.71875 303.1484375 c 12
 -667.334960938 674.267578125 -666.263671875 922.56640625 -666.263671875 1254.40429688 c 1028
-666.607421875 373.989257812 m 4
 -666.607421875 272.484375 -782.021484375 24.75390625 -978.376953125 24.75390625 c 7
 -1109.68554688 24.75390625 -1192.95410156 146.854492188 -1192.95410156 298.979492188 c 4
 -1192.95410156 298.979492188 -1192.95410156 1156.40136719 -1192.95410156 1158.40429688 c 4
 -1192.79199219 1204.4609375 -1208.91894531 1256.20410156 -1263.94042969 1256.20410156 c 7
 -1303.78417969 1256.20410156 -1323.36425781 1218.15625 -1337.93457031 1189.69628906 c 4
 -1396.14160156 1071.11523438 l 1029
185.994140625 1256.04980469 m 4
 167.021484375 1222.84765625 143.3046875 1206.77246094 109.153320312 1188.91601562 c 4
 79.220703125 1173.265625 50.435546875 1170.72363281 23.7744140625 1170.72363281 c 7
 -2.8857421875 1170.72363281 -32.619140625 1173.265625 -62.5517578125 1188.91601562 c 4
 -96.7041015625 1206.77246094 -118.522460938 1222.84765625 -137.495117188 1256.04980469 c 4
 -92.95703125 1189.36132812 -40.7333984375 1019.17285156 -40.7333984375 813.08203125 c 7
 -40.7333984375 574.970703125 -93.9580078125 344.791015625 -165.018554688 230.765625 c 4
 -261.973632812 75.1865234375 -395.041992188 24.75390625 -487.061523438 24.75390625 c 7
 -649 24.75390625 -712.881835938 133.04296875 -712.881835938 314.23046875 c 4
 -712.881835938 314.23046875 -712.791992188 825.8046875 -712.791992188 1157.64160156 c 7
 -712.791992188 1204.4609375 -728.918945312 1256.20410156 -783.940429688 1256.20410156 c 7
 -823.784179688 1256.20410156 -843.364257812 1218.15625 -857.934570312 1189.69628906 c 4
 -916.141601562 1071.11523438 l 1029
184.594726562 487.990234375 m 7
 152.998046875 487.990234375 137.02734375 458.987304688 125.915039062 436.333984375 c 1030
-61.9169921875 643.147460938 m 7
 -61.9169921875 984.818359375 -194.133789062 1256.29492188 -485.294921875 1256.29492188 c 7
 -777.978515625 1256.29492188 -908.026367188 984.811523438 -907.37890625 645.150390625 c 4
 -907.37890625 306.564453125 -777.331054688 24.0810546875 -484.647460938 24.0810546875 c 7
 -193.486328125 24.0810546875 -61.9169921875 302.55859375 -61.9169921875 643.147460938 c 7
EndSplineSet
Fore
Validated: 1
EndChar

StartChar: ccOh
Encoding: 57454 57454 137
Width: 0
VWidth: 1540
LayerCount: 3
Back
SplineSet
30 240 m 6
 -46.0682476743 84.5226467196 -275 24.578125 -484 24 c 1028
115.219726562 1256.32617188 m 4
 96.2470703125 1223.12402344 72.5302734375 1207.04882812 38.37890625 1189.19238281 c 4
 8.4462890625 1173.54199219 -20.3388671875 1171 -47 1171 c 7
 -73.66015625 1171 -103.393554688 1173.54199219 -133.326171875 1189.19238281 c 4
 -167.478515625 1207.04882812 -189.296875 1223.12402344 -208.26953125 1256.32617188 c 4
 -170.779296875 1189.27929688 -131 1019.09082031 -131 813 c 7
 -131 574.888671875 -173.580078125 344.708984375 -230.427734375 230.68359375 c 4
 -307.9921875 75.1044921875 -414.447265625 24.671875 -488.0625 24.671875 c 7
 -617.61328125 24.671875 -666.71875 121.9609375 -666.71875 303.1484375 c 12
 -667.334960938 674.267578125 -666.263671875 922.56640625 -666.263671875 1254.40429688 c 1028
-666.607421875 373.989257812 m 4
 -666.607421875 272.484375 -782.021484375 24.75390625 -978.376953125 24.75390625 c 7
 -1109.68554688 24.75390625 -1192.95410156 146.854492188 -1192.95410156 298.979492188 c 4
 -1192.95410156 298.979492188 -1192.95410156 1156.40136719 -1192.95410156 1158.40429688 c 4
 -1192.79199219 1204.4609375 -1208.91894531 1256.20410156 -1263.94042969 1256.20410156 c 7
 -1303.78417969 1256.20410156 -1323.36425781 1218.15625 -1337.93457031 1189.69628906 c 4
 -1396.14160156 1071.11523438 l 1029
185.994140625 1256.04980469 m 4
 167.021484375 1222.84765625 143.3046875 1206.77246094 109.153320312 1188.91601562 c 4
 79.220703125 1173.265625 50.435546875 1170.72363281 23.7744140625 1170.72363281 c 7
 -2.8857421875 1170.72363281 -32.619140625 1173.265625 -62.5517578125 1188.91601562 c 4
 -96.7041015625 1206.77246094 -118.522460938 1222.84765625 -137.495117188 1256.04980469 c 4
 -92.95703125 1189.36132812 -40.7333984375 1019.17285156 -40.7333984375 813.08203125 c 7
 -40.7333984375 574.970703125 -93.9580078125 344.791015625 -165.018554688 230.765625 c 4
 -261.973632812 75.1865234375 -395.041992188 24.75390625 -487.061523438 24.75390625 c 7
 -649 24.75390625 -712.881835938 133.04296875 -712.881835938 314.23046875 c 4
 -712.881835938 314.23046875 -712.791992188 825.8046875 -712.791992188 1157.64160156 c 7
 -712.791992188 1204.4609375 -728.918945312 1256.20410156 -783.940429688 1256.20410156 c 7
 -823.784179688 1256.20410156 -843.364257812 1218.15625 -857.934570312 1189.69628906 c 4
 -916.141601562 1071.11523438 l 1029
-61.9169921875 643.147460938 m 7
 -61.9169921875 984.818359375 -194.133789062 1256.29492188 -485.294921875 1256.29492188 c 7
 -777.978515625 1256.29492188 -908.026367188 984.811523438 -907.37890625 645.150390625 c 4
 -907.37890625 306.564453125 -777.331054688 24.0810546875 -484.647460938 24.0810546875 c 7
 -193.486328125 24.0810546875 -61.9169921875 302.55859375 -61.9169921875 643.147460938 c 7
EndSplineSet
Fore
Validated: 1
EndChar

StartChar: ccOo
Encoding: 57455 57455 138
Width: 0
VWidth: 1540
LayerCount: 3
Back
SplineSet
460.068359375 442.362304688 m 5
 434.111328125 469.892578125 401.522460938 487.990234375 366.370117188 487.990234375 c 4
 319.751953125 487.990234375 277.641601562 457.6484375 248.52734375 410.466796875 c 5
 249.010742188 410.755859375 32 56 31.595703125 55.669921875 c 6
 17.662109375 32.8818359375 1.2626953125 24.078125 -19.560546875 24.078125 c 1028
30 240 m 6
 -46.0682476743 84.5226467196 -275 24.578125 -484 24 c 1028
115.219726562 1256.32617188 m 4
 96.2470703125 1223.12402344 72.5302734375 1207.04882812 38.37890625 1189.19238281 c 4
 8.4462890625 1173.54199219 -20.3388671875 1171 -47 1171 c 7
 -73.66015625 1171 -103.393554688 1173.54199219 -133.326171875 1189.19238281 c 4
 -167.478515625 1207.04882812 -189.296875 1223.12402344 -208.26953125 1256.32617188 c 4
 -170.779296875 1189.27929688 -131 1019.09082031 -131 813 c 7
 -131 574.888671875 -173.580078125 344.708984375 -230.427734375 230.68359375 c 4
 -307.9921875 75.1044921875 -414.447265625 24.671875 -488.0625 24.671875 c 7
 -617.61328125 24.671875 -666.71875 121.9609375 -666.71875 303.1484375 c 12
 -667.334960938 674.267578125 -666.263671875 922.56640625 -666.263671875 1254.40429688 c 1028
-666.607421875 373.989257812 m 4
 -666.607421875 272.484375 -782.021484375 24.75390625 -978.376953125 24.75390625 c 7
 -1109.68554688 24.75390625 -1192.95410156 146.854492188 -1192.95410156 298.979492188 c 4
 -1192.95410156 298.979492188 -1192.95410156 1156.40136719 -1192.95410156 1158.40429688 c 4
 -1192.79199219 1204.4609375 -1208.91894531 1256.20410156 -1263.94042969 1256.20410156 c 7
 -1303.78417969 1256.20410156 -1323.36425781 1218.15625 -1337.93457031 1189.69628906 c 4
 -1396.14160156 1071.11523438 l 1029
185.994140625 1256.04980469 m 4
 167.021484375 1222.84765625 143.3046875 1206.77246094 109.153320312 1188.91601562 c 4
 79.220703125 1173.265625 50.435546875 1170.72363281 23.7744140625 1170.72363281 c 7
 -2.8857421875 1170.72363281 -32.619140625 1173.265625 -62.5517578125 1188.91601562 c 4
 -96.7041015625 1206.77246094 -118.522460938 1222.84765625 -137.495117188 1256.04980469 c 4
 -92.95703125 1189.36132812 -40.7333984375 1019.17285156 -40.7333984375 813.08203125 c 7
 -40.7333984375 574.970703125 -93.9580078125 344.791015625 -165.018554688 230.765625 c 4
 -261.973632812 75.1865234375 -395.041992188 24.75390625 -487.061523438 24.75390625 c 7
 -649 24.75390625 -712.881835938 133.04296875 -712.881835938 314.23046875 c 4
 -712.881835938 314.23046875 -712.791992188 825.8046875 -712.791992188 1157.64160156 c 7
 -712.791992188 1204.4609375 -728.918945312 1256.20410156 -783.940429688 1256.20410156 c 7
 -823.784179688 1256.20410156 -843.364257812 1218.15625 -857.934570312 1189.69628906 c 4
 -916.141601562 1071.11523438 l 1029
-61.9169921875 643.147460938 m 7
 -61.9169921875 984.818359375 -194.133789062 1256.29492188 -485.294921875 1256.29492188 c 7
 -777.978515625 1256.29492188 -908.026367188 984.811523438 -907.37890625 645.150390625 c 4
 -907.37890625 306.564453125 -777.331054688 24.0810546875 -484.647460938 24.0810546875 c 7
 -193.486328125 24.0810546875 -61.9169921875 302.55859375 -61.9169921875 643.147460938 c 7
EndSplineSet
Fore
Validated: 1
EndChar

StartChar: ccOa
Encoding: 57456 57456 139
Width: 0
VWidth: 1540
LayerCount: 3
Back
SplineSet
515.325195312 412.260742188 m 4
 493.508789062 440.84765625 445.361328125 487.990234375 384.42578125 487.990234375 c 4
 319.453125 487.990234375 267.543945312 452.137695312 235.268554688 398.078125 c 5
 235.268554688 398.078125 32 56 31.5966796875 55.669921875 c 6
 21.81640625 39.8720703125 1.263671875 24.078125 -19.5595703125 24.078125 c 1028
235.077148438 398.185546875 m 1029
30 240 m 2
 -46.0682476743 84.5226467196 -275 24.578125 -484 24 c 1024
115.219726562 1256.32617188 m 0
 96.2470703125 1223.12402344 72.5302734375 1207.04882812 38.37890625 1189.19238281 c 0
 8.4462890625 1173.54199219 -20.3388671875 1171 -47 1171 c 3
 -73.66015625 1171 -103.393554688 1173.54199219 -133.326171875 1189.19238281 c 0
 -167.478515625 1207.04882812 -189.296875 1223.12402344 -208.26953125 1256.32617188 c 0
 -170.779296875 1189.27929688 -131 1019.09082031 -131 813 c 3
 -131 574.888671875 -173.580078125 344.708984375 -230.427734375 230.68359375 c 0
 -307.9921875 75.1044921875 -414.447265625 24.671875 -488.0625 24.671875 c 3
 -617.61328125 24.671875 -666.71875 121.9609375 -666.71875 303.1484375 c 8
 -667.334960938 674.267578125 -666.263671875 922.56640625 -666.263671875 1254.40429688 c 1024
-666.607421875 373.989257812 m 0
 -666.607421875 272.484375 -782.021484375 24.75390625 -978.376953125 24.75390625 c 3
 -1109.68554688 24.75390625 -1192.95410156 146.854492188 -1192.95410156 298.979492188 c 0
 -1192.95410156 298.979492188 -1192.95410156 1156.40136719 -1192.95410156 1158.40429688 c 0
 -1192.79199219 1204.4609375 -1208.91894531 1256.20410156 -1263.94042969 1256.20410156 c 3
 -1303.78417969 1256.20410156 -1323.36425781 1218.15625 -1337.93457031 1189.69628906 c 0
 -1396.14160156 1071.11523438 l 1025
185.994140625 1256.04980469 m 0
 167.021484375 1222.84765625 143.3046875 1206.77246094 109.153320312 1188.91601562 c 0
 79.220703125 1173.265625 50.435546875 1170.72363281 23.7744140625 1170.72363281 c 3
 -2.8857421875 1170.72363281 -32.619140625 1173.265625 -62.5517578125 1188.91601562 c 0
 -96.7041015625 1206.77246094 -118.522460938 1222.84765625 -137.495117188 1256.04980469 c 0
 -92.95703125 1189.36132812 -40.7333984375 1019.17285156 -40.7333984375 813.08203125 c 3
 -40.7333984375 574.970703125 -93.9580078125 344.791015625 -165.018554688 230.765625 c 0
 -261.973632812 75.1865234375 -395.041992188 24.75390625 -487.061523438 24.75390625 c 3
 -649 24.75390625 -712.881835938 133.04296875 -712.881835938 314.23046875 c 0
 -712.881835938 314.23046875 -712.791992188 825.8046875 -712.791992188 1157.64160156 c 3
 -712.791992188 1204.4609375 -728.918945312 1256.20410156 -783.940429688 1256.20410156 c 3
 -823.784179688 1256.20410156 -843.364257812 1218.15625 -857.934570312 1189.69628906 c 0
 -916.141601562 1071.11523438 l 1025
-61.9169921875 643.147460938 m 3
 -61.9169921875 984.818359375 -194.133789062 1256.29492188 -485.294921875 1256.29492188 c 3
 -777.978515625 1256.29492188 -908.026367188 984.811523438 -907.37890625 645.150390625 c 0
 -907.37890625 306.564453125 -777.331054688 24.0810546875 -484.647460938 24.0810546875 c 3
 -193.486328125 24.0810546875 -61.9169921875 302.55859375 -61.9169921875 643.147460938 c 3
EndSplineSet
Fore
Validated: 1
EndChar

StartChar: ccOe
Encoding: 57457 57457 140
Width: 0
VWidth: 1540
LayerCount: 3
Back
SplineSet
366.370117188 487.990234375 m 4
 415.26953125 487.990234375 467.178710938 457.904296875 467.178710938 406.7421875 c 7
 467.178710938 369.87890625 454.201171875 343.061523438 427.306640625 323.989257812 c 6
 52.6611328125 49.3994140625 l 6
 33.2705078125 35.6484375 12.037109375 24.078125 -19.5595703125 24.078125 c 1028
102 282 m 2
 -2.69706043033 128.721925422 -213.999381059 24 -484 24 c 1024
115.219726562 1256.32617188 m 0
 96.2470703125 1223.12402344 72.5302734375 1207.04882812 38.37890625 1189.19238281 c 0
 8.4462890625 1173.54199219 -20.3388671875 1171 -47 1171 c 3
 -73.66015625 1171 -103.393554688 1173.54199219 -133.326171875 1189.19238281 c 0
 -167.478515625 1207.04882812 -189.296875 1223.12402344 -208.26953125 1256.32617188 c 0
 -170.779296875 1189.27929688 -131 1019.09082031 -131 813 c 3
 -131 574.888671875 -173.580078125 344.708984375 -230.427734375 230.68359375 c 0
 -307.9921875 75.1044921875 -414.447265625 24.671875 -488.0625 24.671875 c 3
 -617.61328125 24.671875 -666.71875 121.9609375 -666.71875 303.1484375 c 8
 -667.334960938 674.267578125 -666.263671875 922.56640625 -666.263671875 1254.40429688 c 1024
-666.607421875 373.989257812 m 0
 -666.607421875 272.484375 -782.021484375 24.75390625 -978.376953125 24.75390625 c 3
 -1109.68554688 24.75390625 -1192.95410156 146.854492188 -1192.95410156 298.979492188 c 0
 -1192.95410156 298.979492188 -1192.95410156 1156.40136719 -1192.95410156 1158.40429688 c 0
 -1192.79199219 1204.4609375 -1208.91894531 1256.20410156 -1263.94042969 1256.20410156 c 3
 -1303.78417969 1256.20410156 -1323.36425781 1218.15625 -1337.93457031 1189.69628906 c 0
 -1396.14160156 1071.11523438 l 1025
185.994140625 1256.04980469 m 0
 167.021484375 1222.84765625 143.3046875 1206.77246094 109.153320312 1188.91601562 c 0
 79.220703125 1173.265625 50.435546875 1170.72363281 23.7744140625 1170.72363281 c 3
 -2.8857421875 1170.72363281 -32.619140625 1173.265625 -62.5517578125 1188.91601562 c 0
 -96.7041015625 1206.77246094 -118.522460938 1222.84765625 -137.495117188 1256.04980469 c 0
 -92.95703125 1189.36132812 -40.7333984375 1019.17285156 -40.7333984375 813.08203125 c 3
 -40.7333984375 574.970703125 -93.9580078125 344.791015625 -165.018554688 230.765625 c 0
 -261.973632812 75.1865234375 -395.041992188 24.75390625 -487.061523438 24.75390625 c 3
 -649 24.75390625 -712.881835938 133.04296875 -712.881835938 314.23046875 c 0
 -712.881835938 314.23046875 -712.791992188 825.8046875 -712.791992188 1157.64160156 c 3
 -712.791992188 1204.4609375 -728.918945312 1256.20410156 -783.940429688 1256.20410156 c 3
 -823.784179688 1256.20410156 -843.364257812 1218.15625 -857.934570312 1189.69628906 c 0
 -916.141601562 1071.11523438 l 1025
-61.9169921875 643.147460938 m 3
 -61.9169921875 984.818359375 -194.133789062 1256.29492188 -485.294921875 1256.29492188 c 3
 -777.978515625 1256.29492188 -908.026367188 984.811523438 -907.37890625 645.150390625 c 0
 -907.37890625 306.564453125 -777.331054688 24.0810546875 -484.647460938 24.0810546875 c 3
 -193.486328125 24.0810546875 -61.9169921875 302.55859375 -61.9169921875 643.147460938 c 3
EndSplineSet
Fore
Validated: 1
EndChar

StartChar: ccOs
Encoding: 57458 57458 141
Width: 0
VWidth: 1540
LayerCount: 3
Back
SplineSet
30 240 m 6
 -46.0682476743 84.5226467196 -275 24.578125 -484 24 c 1028
115.219726562 1256.32617188 m 4
 96.2470703125 1223.12402344 72.5302734375 1207.04882812 38.37890625 1189.19238281 c 4
 8.4462890625 1173.54199219 -20.3388671875 1171 -47 1171 c 7
 -73.66015625 1171 -103.393554688 1173.54199219 -133.326171875 1189.19238281 c 4
 -167.478515625 1207.04882812 -189.296875 1223.12402344 -208.26953125 1256.32617188 c 4
 -170.779296875 1189.27929688 -131 1019.09082031 -131 813 c 7
 -131 574.888671875 -173.580078125 344.708984375 -230.427734375 230.68359375 c 4
 -307.9921875 75.1044921875 -414.447265625 24.671875 -488.0625 24.671875 c 7
 -617.61328125 24.671875 -666.71875 121.9609375 -666.71875 303.1484375 c 12
 -667.334960938 674.267578125 -666.263671875 922.56640625 -666.263671875 1254.40429688 c 1028
-666.607421875 373.989257812 m 4
 -666.607421875 272.484375 -782.021484375 24.75390625 -978.376953125 24.75390625 c 7
 -1109.68554688 24.75390625 -1192.95410156 146.854492188 -1192.95410156 298.979492188 c 4
 -1192.95410156 298.979492188 -1192.95410156 1156.40136719 -1192.95410156 1158.40429688 c 4
 -1192.79199219 1204.4609375 -1208.91894531 1256.20410156 -1263.94042969 1256.20410156 c 7
 -1303.78417969 1256.20410156 -1323.36425781 1218.15625 -1337.93457031 1189.69628906 c 4
 -1396.14160156 1071.11523438 l 1029
185.994140625 1256.04980469 m 4
 167.021484375 1222.84765625 143.3046875 1206.77246094 109.153320312 1188.91601562 c 4
 79.220703125 1173.265625 50.435546875 1170.72363281 23.7744140625 1170.72363281 c 7
 -2.8857421875 1170.72363281 -32.619140625 1173.265625 -62.5517578125 1188.91601562 c 4
 -96.7041015625 1206.77246094 -118.522460938 1222.84765625 -137.495117188 1256.04980469 c 4
 -92.95703125 1189.36132812 -40.7333984375 1019.17285156 -40.7333984375 813.08203125 c 7
 -40.7333984375 574.970703125 -93.9580078125 344.791015625 -165.018554688 230.765625 c 4
 -261.973632812 75.1865234375 -395.041992188 24.75390625 -487.061523438 24.75390625 c 7
 -649 24.75390625 -712.881835938 133.04296875 -712.881835938 314.23046875 c 4
 -712.881835938 314.23046875 -712.791992188 825.8046875 -712.791992188 1157.64160156 c 7
 -712.791992188 1204.4609375 -728.918945312 1256.20410156 -783.940429688 1256.20410156 c 7
 -823.784179688 1256.20410156 -843.364257812 1218.15625 -857.934570312 1189.69628906 c 4
 -916.141601562 1071.11523438 l 1029
-61.9169921875 643.147460938 m 7
 -61.9169921875 984.818359375 -194.133789062 1256.29492188 -485.294921875 1256.29492188 c 7
 -777.978515625 1256.29492188 -908.026367188 984.811523438 -907.37890625 645.150390625 c 4
 -907.37890625 306.564453125 -777.331054688 24.0810546875 -484.647460938 24.0810546875 c 7
 -193.486328125 24.0810546875 -61.9169921875 302.55859375 -61.9169921875 643.147460938 c 7
EndSplineSet
Fore
Validated: 1
EndChar

